<svg viewBox="0 0 700 300" xmlns="http://www.w3.org/2000/svg" width="700" height="300" role="img">
  <rect x="0" y="0" width="700" height="300" fill="#ffffff"/>
  <text x="350.0" y="26.0" font-family="-apple-system,BlinkMacSystemFont,'Segoe UI',Roboto,Helvetica,Arial,sans-serif" font-size="17" font-weight="700" fill="#1f2937" text-anchor="middle" opacity="1.0" dominant-baseline="middle">Capstone: a monitored model API</text>
  <rect x="35.0" y="86.0" width="100.0" height="48.0" rx="12" fill="#ecfdf5" stroke="#10b981" stroke-width="1.8"/>
  <text x="85.0" y="114.2" font-family="-apple-system,BlinkMacSystemFont,'Segoe UI',Roboto,Helvetica,Arial,sans-serif" font-size="12.5" font-weight="400" fill="#065f46" text-anchor="middle" dominant-baseline="middle">Client</text>
  <rect x="190.0" y="82.0" width="120.0" height="56.0" rx="12" fill="#fffbeb" stroke="#f59e0b" stroke-width="1.8"/>
  <text x="250.0" y="105.9" font-family="-apple-system,BlinkMacSystemFont,'Segoe UI',Roboto,Helvetica,Arial,sans-serif" font-size="12.5" font-weight="700" fill="#92400e" text-anchor="middle" dominant-baseline="middle">API</text>
  <text x="250.0" y="122.6" font-family="-apple-system,BlinkMacSystemFont,'Segoe UI',Roboto,Helvetica,Arial,sans-serif" font-size="12.5" font-weight="400" fill="#92400e" text-anchor="middle" dominant-baseline="middle">endpoint</text>
  <rect x="375.0" y="82.0" width="110.0" height="56.0" rx="12" fill="#eef2ff" stroke="#6366f1" stroke-width="1.8"/>
  <text x="430.0" y="114.4" font-family="-apple-system,BlinkMacSystemFont,'Segoe UI',Roboto,Helvetica,Arial,sans-serif" font-size="13" font-weight="400" fill="#312e81" text-anchor="middle" dominant-baseline="middle">Model</text>
  <rect x="545.0" y="86.0" width="110.0" height="48.0" rx="12" fill="#f0f9ff" stroke="#38bdf8" stroke-width="1.8"/>
  <text x="600.0" y="114.2" font-family="-apple-system,BlinkMacSystemFont,'Segoe UI',Roboto,Helvetica,Arial,sans-serif" font-size="12.5" font-weight="400" fill="#075985" text-anchor="middle" dominant-baseline="middle">Response</text>
  <line x1="135.0" y1="110.0" x2="190.0" y2="110.0" stroke="#475569" stroke-width="2.2" stroke-linecap="round"/>
  <path d="M190.0,110.0 L180.9,105.9 L180.9,114.1 Z" fill="#475569"/>
  <line x1="310.0" y1="110.0" x2="375.0" y2="110.0" stroke="#475569" stroke-width="2.2" stroke-linecap="round"/>
  <path d="M375.0,110.0 L365.9,105.9 L365.9,114.1 Z" fill="#475569"/>
  <line x1="485.0" y1="110.0" x2="545.0" y2="110.0" stroke="#475569" stroke-width="2.2" stroke-linecap="round"/>
  <path d="M545.0,110.0 L535.9,105.9 L535.9,114.1 Z" fill="#475569"/>
  <rect x="130.0" y="201.0" width="420.0" height="48.0" rx="12" fill="#f5f3ff" stroke="#8b5cf6" stroke-width="1.8"/>
  <text x="340.0" y="229.1" font-family="-apple-system,BlinkMacSystemFont,'Segoe UI',Roboto,Helvetica,Arial,sans-serif" font-size="12" font-weight="700" fill="#5b21b6" text-anchor="middle" dominant-baseline="middle">Monitoring: latency · errors · predictions · drift</text>
  <path d="M250.0,138.0 L250.0,201.0" fill="none" stroke="#94a3b8" stroke-width="1.6" stroke-dasharray="6 5" stroke-linejoin="round" stroke-linecap="round"/>
  <path d="M250.0,201.0 L254.1,191.9 L245.9,191.9 Z" fill="#94a3b8"/>
  <path d="M430.0,138.0 L410.0,201.0" fill="none" stroke="#94a3b8" stroke-width="1.6" stroke-dasharray="6 5" stroke-linejoin="round" stroke-linecap="round"/>
  <path d="M410.0,201.0 L416.6,193.5 L408.9,191.1 Z" fill="#94a3b8"/>
  <text x="350.0" y="278.0" font-family="-apple-system,BlinkMacSystemFont,'Segoe UI',Roboto,Helvetica,Arial,sans-serif" font-size="12.5" font-weight="400" fill="#64748b" text-anchor="middle" opacity="1.0" dominant-baseline="middle">Wrap the model in an API, then log latency, errors, and predictions — you can't operate what you can't see.</text>
</svg>
