<svg viewBox="0 0 620 340" xmlns="http://www.w3.org/2000/svg" width="620" height="340" role="img">
  <rect x="0" y="0" width="620" height="340" fill="#ffffff"/>
  <text x="310.0" y="26.0" font-family="-apple-system,BlinkMacSystemFont,'Segoe UI',Roboto,Helvetica,Arial,sans-serif" font-size="17" font-weight="700" fill="#1f2937" text-anchor="middle" opacity="1.0" dominant-baseline="middle">Choosing k: look for the 'elbow'</text>
  <line x1="80.0" y1="290.0" x2="550.0" y2="290.0" stroke="#475569" stroke-width="1.8" stroke-linecap="round"/>
  <line x1="80.0" y1="290.0" x2="80.0" y2="50.0" stroke="#475569" stroke-width="1.8" stroke-linecap="round"/>
  <text x="315.0" y="318.0" font-family="-apple-system,BlinkMacSystemFont,'Segoe UI',Roboto,Helvetica,Arial,sans-serif" font-size="12.5" font-weight="400" fill="#64748b" text-anchor="middle" opacity="1.0" dominant-baseline="middle">number of clusters k →</text>
  <text x="46.0" y="170.0" font-family="-apple-system,BlinkMacSystemFont,'Segoe UI',Roboto,Helvetica,Arial,sans-serif" font-size="12.5" fill="#64748b" text-anchor="middle" transform="rotate(-90 46.0 170.0)">within-cluster error →</text>
  <path d="M142.0,179.4 L204.0,228.4 L266.0,250.4 L328.0,260.3 L390.0,264.8 L452.0,266.8 L514.0,267.7 L576.0,268.1" fill="none" stroke="#6366f1" stroke-width="2.6"/>
  <circle cx="142.0" cy="179.4" r="4.2" fill="#312e81"/>
  <circle cx="204.0" cy="228.4" r="4.2" fill="#312e81"/>
  <circle cx="266.0" cy="250.4" r="4.2" fill="#312e81"/>
  <circle cx="328.0" cy="260.3" r="4.2" fill="#312e81"/>
  <circle cx="390.0" cy="264.8" r="4.2" fill="#312e81"/>
  <circle cx="452.0" cy="266.8" r="4.2" fill="#312e81"/>
  <circle cx="514.0" cy="267.7" r="4.2" fill="#312e81"/>
  <circle cx="576.0" cy="268.1" r="4.2" fill="#312e81"/>
  <circle cx="266.0" cy="250.4" r="11.0" fill="none" stroke="#9f1239" stroke-width="2.4"/>
  <text x="272.0" y="230.4" font-family="-apple-system,BlinkMacSystemFont,'Segoe UI',Roboto,Helvetica,Arial,sans-serif" font-size="11.5" font-weight="700" fill="#9f1239" text-anchor="start" opacity="1.0" dominant-baseline="middle">elbow → k = 3</text>
  <text x="380.0" y="260.0" font-family="-apple-system,BlinkMacSystemFont,'Segoe UI',Roboto,Helvetica,Arial,sans-serif" font-size="11" font-weight="400" fill="#64748b" text-anchor="middle" opacity="1.0" dominant-baseline="middle">adding clusters past here barely helps</text>
</svg>
