<svg viewBox="0 0 720 340" xmlns="http://www.w3.org/2000/svg" width="720" height="340" role="img">
  <rect x="0" y="0" width="720" height="340" fill="#ffffff"/>
  <text x="360.0" y="26.0" font-family="-apple-system,BlinkMacSystemFont,'Segoe UI',Roboto,Helvetica,Arial,sans-serif" font-size="17" font-weight="700" fill="#1f2937" text-anchor="middle" opacity="1.0" dominant-baseline="middle">k-means alternates: assign points, then move the centers</text>
  <rect x="52.0" y="70.0" width="300.0" height="236.0" rx="10" fill="#ffffff" stroke="#94a3b8" stroke-width="1.3" opacity="1.0"/>
  <line x1="60.0" y1="290.0" x2="330.0" y2="290.0" stroke="#475569" stroke-width="1.4" stroke-linecap="round"/>
  <line x1="60.0" y1="290.0" x2="60.0" y2="90.0" stroke="#475569" stroke-width="1.4" stroke-linecap="round"/>
  <circle cx="100.0" cy="180.0" r="4.2" fill="#10b981"/>
  <circle cx="120.0" cy="158.0" r="4.2" fill="#10b981"/>
  <circle cx="130.0" cy="180.0" r="4.2" fill="#10b981"/>
  <circle cx="110.0" cy="193.2" r="4.2" fill="#10b981"/>
  <circle cx="120.0" cy="166.8" r="4.2" fill="#10b981"/>
  <circle cx="104.0" cy="175.6" r="4.2" fill="#10b981"/>
  <circle cx="200.0" cy="202.0" r="4.2" fill="#38bdf8"/>
  <circle cx="210.0" cy="188.8" r="4.2" fill="#38bdf8"/>
  <circle cx="220.0" cy="210.8" r="4.2" fill="#38bdf8"/>
  <circle cx="192.0" cy="213.0" r="4.2" fill="#38bdf8"/>
  <circle cx="206.0" cy="197.6" r="4.2" fill="#38bdf8"/>
  <circle cx="216.0" cy="202.0" r="4.2" fill="#38bdf8"/>
  <line x1="138.0" y1="141.2" x2="154.0" y2="157.2" stroke="#065f46" stroke-width="3" stroke-linecap="round"/>
  <line x1="138.0" y1="157.2" x2="154.0" y2="141.2" stroke="#065f46" stroke-width="3" stroke-linecap="round"/>
  <line x1="172.0" y1="220.4" x2="188.0" y2="236.4" stroke="#075985" stroke-width="3" stroke-linecap="round"/>
  <line x1="172.0" y1="236.4" x2="188.0" y2="220.4" stroke="#075985" stroke-width="3" stroke-linecap="round"/>
  <text x="195.0" y="86.0" font-family="-apple-system,BlinkMacSystemFont,'Segoe UI',Roboto,Helvetica,Arial,sans-serif" font-size="12.5" font-weight="700" fill="#1f2937" text-anchor="middle" opacity="1.0" dominant-baseline="middle">1. assign to nearest center</text>
  <rect x="382.0" y="70.0" width="300.0" height="236.0" rx="10" fill="#ffffff" stroke="#94a3b8" stroke-width="1.3" opacity="1.0"/>
  <line x1="390.0" y1="290.0" x2="660.0" y2="290.0" stroke="#475569" stroke-width="1.4" stroke-linecap="round"/>
  <line x1="390.0" y1="290.0" x2="390.0" y2="90.0" stroke="#475569" stroke-width="1.4" stroke-linecap="round"/>
  <circle cx="430.0" cy="180.0" r="4.2" fill="#10b981"/>
  <circle cx="450.0" cy="158.0" r="4.2" fill="#10b981"/>
  <circle cx="460.0" cy="180.0" r="4.2" fill="#10b981"/>
  <circle cx="440.0" cy="193.2" r="4.2" fill="#10b981"/>
  <circle cx="450.0" cy="166.8" r="4.2" fill="#10b981"/>
  <circle cx="434.0" cy="175.6" r="4.2" fill="#10b981"/>
  <circle cx="530.0" cy="202.0" r="4.2" fill="#38bdf8"/>
  <circle cx="540.0" cy="188.8" r="4.2" fill="#38bdf8"/>
  <circle cx="550.0" cy="210.8" r="4.2" fill="#38bdf8"/>
  <circle cx="522.0" cy="213.0" r="4.2" fill="#38bdf8"/>
  <circle cx="536.0" cy="197.6" r="4.2" fill="#38bdf8"/>
  <circle cx="546.0" cy="202.0" r="4.2" fill="#38bdf8"/>
  <line x1="436.0" y1="165.4" x2="452.0" y2="181.4" stroke="#065f46" stroke-width="3" stroke-linecap="round"/>
  <line x1="436.0" y1="181.4" x2="452.0" y2="165.4" stroke="#065f46" stroke-width="3" stroke-linecap="round"/>
  <line x1="530.0" y1="194.0" x2="546.0" y2="210.0" stroke="#075985" stroke-width="3" stroke-linecap="round"/>
  <line x1="530.0" y1="210.0" x2="546.0" y2="194.0" stroke="#075985" stroke-width="3" stroke-linecap="round"/>
  <text x="525.0" y="86.0" font-family="-apple-system,BlinkMacSystemFont,'Segoe UI',Roboto,Helvetica,Arial,sans-serif" font-size="12.5" font-weight="700" fill="#1f2937" text-anchor="middle" opacity="1.0" dominant-baseline="middle">2. move centers to the mean</text>
  <line x1="330.0" y1="190.0" x2="378.0" y2="190.0" stroke="#94a3b8" stroke-width="2.4" stroke-linecap="round"/>
  <path d="M378.0,190.0 L368.9,185.9 L368.9,194.1 Z" fill="#94a3b8"/>
  <text x="354.0" y="176.0" font-family="-apple-system,BlinkMacSystemFont,'Segoe UI',Roboto,Helvetica,Arial,sans-serif" font-size="10.5" font-weight="400" fill="#64748b" text-anchor="middle" opacity="1.0" dominant-baseline="middle">repeat</text>
  <text x="360.0" y="326.0" font-family="-apple-system,BlinkMacSystemFont,'Segoe UI',Roboto,Helvetica,Arial,sans-serif" font-size="12" font-weight="400" fill="#64748b" text-anchor="middle" opacity="1.0" dominant-baseline="middle">iterate until the centers stop moving — that's a cluster assignment</text>
</svg>
