<svg viewBox="0 0 640 360" xmlns="http://www.w3.org/2000/svg" width="640" height="360" role="img">
  <rect x="0" y="0" width="640" height="360" fill="#ffffff"/>
  <text x="320.0" y="26.0" font-family="-apple-system,BlinkMacSystemFont,'Segoe UI',Roboto,Helvetica,Arial,sans-serif" font-size="17" font-weight="700" fill="#1f2937" text-anchor="middle" opacity="1.0" dominant-baseline="middle">PCA rotates to the axes of greatest variance</text>
  <circle cx="331.6" cy="199.3" r="3.6" fill="#075985"/>
  <circle cx="289.4" cy="215.8" r="3.6" fill="#075985"/>
  <circle cx="308.1" cy="186.6" r="3.6" fill="#075985"/>
  <circle cx="396.1" cy="150.3" r="3.6" fill="#075985"/>
  <circle cx="322.9" cy="195.2" r="3.6" fill="#075985"/>
  <circle cx="364.4" cy="162.8" r="3.6" fill="#075985"/>
  <circle cx="337.1" cy="161.1" r="3.6" fill="#075985"/>
  <circle cx="302.7" cy="186.4" r="3.6" fill="#075985"/>
  <circle cx="257.8" cy="191.3" r="3.6" fill="#075985"/>
  <circle cx="254.1" cy="213.4" r="3.6" fill="#075985"/>
  <circle cx="311.2" cy="184.2" r="3.6" fill="#075985"/>
  <circle cx="314.3" cy="166.4" r="3.6" fill="#075985"/>
  <circle cx="318.4" cy="189.6" r="3.6" fill="#075985"/>
  <circle cx="344.4" cy="159.6" r="3.6" fill="#075985"/>
  <circle cx="291.5" cy="166.7" r="3.6" fill="#075985"/>
  <circle cx="286.2" cy="166.4" r="3.6" fill="#075985"/>
  <circle cx="270.8" cy="226.6" r="3.6" fill="#075985"/>
  <circle cx="237.9" cy="237.8" r="3.6" fill="#075985"/>
  <circle cx="331.0" cy="174.6" r="3.6" fill="#075985"/>
  <circle cx="341.5" cy="182.9" r="3.6" fill="#075985"/>
  <circle cx="359.9" cy="161.8" r="3.6" fill="#075985"/>
  <circle cx="292.8" cy="188.6" r="3.6" fill="#075985"/>
  <circle cx="280.7" cy="203.5" r="3.6" fill="#075985"/>
  <circle cx="295.6" cy="214.0" r="3.6" fill="#075985"/>
  <circle cx="239.2" cy="207.0" r="3.6" fill="#075985"/>
  <circle cx="269.1" cy="176.4" r="3.6" fill="#075985"/>
  <circle cx="380.1" cy="117.2" r="3.6" fill="#075985"/>
  <circle cx="305.5" cy="183.7" r="3.6" fill="#075985"/>
  <circle cx="373.0" cy="127.4" r="3.6" fill="#075985"/>
  <circle cx="357.8" cy="154.9" r="3.6" fill="#075985"/>
  <circle cx="309.6" cy="179.3" r="3.6" fill="#075985"/>
  <circle cx="338.2" cy="158.0" r="3.6" fill="#075985"/>
  <circle cx="319.1" cy="191.1" r="3.6" fill="#075985"/>
  <circle cx="377.6" cy="118.4" r="3.6" fill="#075985"/>
  <circle cx="386.3" cy="167.8" r="3.6" fill="#075985"/>
  <circle cx="302.8" cy="198.3" r="3.6" fill="#075985"/>
  <circle cx="311.9" cy="215.2" r="3.6" fill="#075985"/>
  <circle cx="326.9" cy="178.2" r="3.6" fill="#075985"/>
  <circle cx="309.7" cy="186.8" r="3.6" fill="#075985"/>
  <circle cx="307.5" cy="177.1" r="3.6" fill="#075985"/>
  <circle cx="389.4" cy="120.6" r="3.6" fill="#075985"/>
  <circle cx="176.6" cy="253.1" r="3.6" fill="#075985"/>
  <circle cx="316.5" cy="192.6" r="3.6" fill="#075985"/>
  <circle cx="311.0" cy="187.0" r="3.6" fill="#075985"/>
  <circle cx="339.2" cy="191.1" r="3.6" fill="#075985"/>
  <circle cx="299.9" cy="188.8" r="3.6" fill="#075985"/>
  <line x1="238.3" y1="224.9" x2="410.3" y2="140.9" stroke="#9f1239" stroke-width="2.8" stroke-linecap="round"/>
  <path d="M410.3,140.9 L399.3,141.3 L403.2,149.3 Z" fill="#9f1239"/>
  <line x1="303.2" y1="150.6" x2="340.2" y2="226.3" stroke="#065f46" stroke-width="2.6" stroke-linecap="round"/>
  <path d="M340.2,226.3 L339.8,216.3 L332.5,219.9 Z" fill="#065f46"/>
  <text x="421.5" y="141.4" font-family="-apple-system,BlinkMacSystemFont,'Segoe UI',Roboto,Helvetica,Arial,sans-serif" font-size="12" font-weight="700" fill="#9f1239" text-anchor="middle" opacity="1.0" dominant-baseline="middle">PC1</text>
  <text x="352.9" y="240.0" font-family="-apple-system,BlinkMacSystemFont,'Segoe UI',Roboto,Helvetica,Arial,sans-serif" font-size="12" font-weight="700" fill="#065f46" text-anchor="middle" opacity="1.0" dominant-baseline="middle">PC2</text>
  <text x="320.0" y="326.0" font-family="-apple-system,BlinkMacSystemFont,'Segoe UI',Roboto,Helvetica,Arial,sans-serif" font-size="11.5" font-weight="400" fill="#64748b" text-anchor="middle" opacity="1.0" dominant-baseline="middle">PC1 captures the most spread; keep it, drop PC2 → 2-D becomes 1-D with little loss</text>
</svg>
