<svg viewBox="0 0 640 330" xmlns="http://www.w3.org/2000/svg" width="640" height="330" role="img">
  <rect x="0" y="0" width="640" height="330" fill="#ffffff"/>
  <text x="320.0" y="26.0" font-family="-apple-system,BlinkMacSystemFont,'Segoe UI',Roboto,Helvetica,Arial,sans-serif" font-size="17" font-weight="700" fill="#1f2937" text-anchor="middle" opacity="1.0" dominant-baseline="middle">t-SNE / UMAP: a 2-D map that groups similar points</text>
  <circle cx="173.3" cy="162.3" r="4" fill="#10b981"/>
  <circle cx="174.1" cy="142.4" r="4" fill="#10b981"/>
  <circle cx="155.8" cy="144.9" r="4" fill="#10b981"/>
  <circle cx="208.9" cy="160.2" r="4" fill="#10b981"/>
  <circle cx="207.0" cy="156.0" r="4" fill="#10b981"/>
  <circle cx="190.3" cy="154.4" r="4" fill="#10b981"/>
  <circle cx="136.7" cy="170.5" r="4" fill="#10b981"/>
  <circle cx="193.2" cy="162.0" r="4" fill="#10b981"/>
  <circle cx="136.0" cy="108.1" r="4" fill="#10b981"/>
  <circle cx="156.9" cy="138.8" r="4" fill="#10b981"/>
  <circle cx="187.9" cy="148.9" r="4" fill="#10b981"/>
  <circle cx="193.5" cy="134.6" r="4" fill="#10b981"/>
  <circle cx="188.0" cy="159.5" r="4" fill="#10b981"/>
  <circle cx="162.8" cy="191.2" r="4" fill="#10b981"/>
  <circle cx="194.5" cy="178.7" r="4" fill="#10b981"/>
  <circle cx="163.9" cy="132.3" r="4" fill="#10b981"/>
  <circle cx="171.1" cy="147.4" r="4" fill="#10b981"/>
  <circle cx="196.4" cy="156.0" r="4" fill="#10b981"/>
  <circle cx="168.4" cy="127.0" r="4" fill="#10b981"/>
  <circle cx="166.5" cy="179.3" r="4" fill="#10b981"/>
  <circle cx="159.0" cy="155.9" r="4" fill="#10b981"/>
  <circle cx="191.1" cy="114.2" r="4" fill="#10b981"/>
  <circle cx="431.3" cy="151.3" r="4" fill="#38bdf8"/>
  <circle cx="377.6" cy="112.3" r="4" fill="#38bdf8"/>
  <circle cx="427.2" cy="100.4" r="4" fill="#38bdf8"/>
  <circle cx="442.9" cy="118.5" r="4" fill="#38bdf8"/>
  <circle cx="391.9" cy="139.9" r="4" fill="#38bdf8"/>
  <circle cx="447.4" cy="142.7" r="4" fill="#38bdf8"/>
  <circle cx="467.5" cy="128.7" r="4" fill="#38bdf8"/>
  <circle cx="433.1" cy="88.8" r="4" fill="#38bdf8"/>
  <circle cx="446.0" cy="105.3" r="4" fill="#38bdf8"/>
  <circle cx="418.2" cy="89.6" r="4" fill="#38bdf8"/>
  <circle cx="404.8" cy="107.3" r="4" fill="#38bdf8"/>
  <circle cx="463.5" cy="71.2" r="4" fill="#38bdf8"/>
  <circle cx="392.1" cy="125.7" r="4" fill="#38bdf8"/>
  <circle cx="467.5" cy="133.9" r="4" fill="#38bdf8"/>
  <circle cx="380.6" cy="59.6" r="4" fill="#38bdf8"/>
  <circle cx="439.3" cy="102.3" r="4" fill="#38bdf8"/>
  <circle cx="400.9" cy="143.5" r="4" fill="#38bdf8"/>
  <circle cx="458.6" cy="123.8" r="4" fill="#38bdf8"/>
  <circle cx="436.4" cy="130.4" r="4" fill="#38bdf8"/>
  <circle cx="471.4" cy="134.9" r="4" fill="#38bdf8"/>
  <circle cx="443.5" cy="133.1" r="4" fill="#38bdf8"/>
  <circle cx="389.2" cy="150.8" r="4" fill="#38bdf8"/>
  <circle cx="384.8" cy="262.7" r="4" fill="#f59e0b"/>
  <circle cx="308.7" cy="234.8" r="4" fill="#f59e0b"/>
  <circle cx="381.9" cy="206.5" r="4" fill="#f59e0b"/>
  <circle cx="355.2" cy="274.5" r="4" fill="#f59e0b"/>
  <circle cx="325.9" cy="288.6" r="4" fill="#f59e0b"/>
  <circle cx="374.4" cy="246.4" r="4" fill="#f59e0b"/>
  <circle cx="368.4" cy="265.6" r="4" fill="#f59e0b"/>
  <circle cx="363.1" cy="277.5" r="4" fill="#f59e0b"/>
  <circle cx="342.8" cy="240.0" r="4" fill="#f59e0b"/>
  <circle cx="387.1" cy="250.6" r="4" fill="#f59e0b"/>
  <circle cx="337.1" cy="272.7" r="4" fill="#f59e0b"/>
  <circle cx="398.1" cy="239.3" r="4" fill="#f59e0b"/>
  <circle cx="324.1" cy="246.8" r="4" fill="#f59e0b"/>
  <circle cx="356.1" cy="242.8" r="4" fill="#f59e0b"/>
  <circle cx="396.5" cy="225.4" r="4" fill="#f59e0b"/>
  <circle cx="392.8" cy="219.6" r="4" fill="#f59e0b"/>
  <circle cx="339.5" cy="265.2" r="4" fill="#f59e0b"/>
  <circle cx="389.3" cy="270.6" r="4" fill="#f59e0b"/>
  <circle cx="369.0" cy="253.4" r="4" fill="#f59e0b"/>
  <circle cx="364.0" cy="263.8" r="4" fill="#f59e0b"/>
  <circle cx="355.4" cy="256.7" r="4" fill="#f59e0b"/>
  <circle cx="374.9" cy="250.0" r="4" fill="#f59e0b"/>
  <text x="320.0" y="306.0" font-family="-apple-system,BlinkMacSystemFont,'Segoe UI',Roboto,Helvetica,Arial,sans-serif" font-size="11" font-weight="400" fill="#64748b" text-anchor="middle" opacity="1.0" dominant-baseline="middle">read which points group together — but cluster size and between-cluster distance aren't literal</text>
</svg>
