<svg viewBox="0 0 700 350" xmlns="http://www.w3.org/2000/svg" width="700" height="350" role="img">
  <rect x="0" y="0" width="700" height="350" fill="#ffffff"/>
  <text x="350.0" y="26.0" font-family="-apple-system,BlinkMacSystemFont,'Segoe UI',Roboto,Helvetica,Arial,sans-serif" font-size="17" font-weight="700" fill="#1f2937" text-anchor="middle" opacity="1.0" dominant-baseline="middle">Grid vs. random hyperparameter search</text>
  <rect x="60.0" y="90.0" width="240.0" height="210.0" rx="8" fill="#ffffff" stroke="#94a3b8" stroke-width="1.4" opacity="1.0"/>
  <ellipse cx="208.8" cy="169.8" rx="20" ry="15" fill="none" stroke="#10b981" stroke-width="1.3" opacity="0.6"/>
  <ellipse cx="208.8" cy="169.8" rx="40" ry="30" fill="none" stroke="#10b981" stroke-width="1.3" opacity="0.6"/>
  <ellipse cx="208.8" cy="169.8" rx="60" ry="45" fill="none" stroke="#10b981" stroke-width="1.3" opacity="0.6"/>
  <circle cx="90.0" cy="273.8" r="4.4" fill="#312e81"/>
  <circle cx="90.0" cy="221.2" r="4.4" fill="#312e81"/>
  <circle cx="90.0" cy="168.8" r="4.4" fill="#312e81"/>
  <circle cx="90.0" cy="116.2" r="4.4" fill="#312e81"/>
  <circle cx="150.0" cy="273.8" r="4.4" fill="#312e81"/>
  <circle cx="150.0" cy="221.2" r="4.4" fill="#312e81"/>
  <circle cx="150.0" cy="168.8" r="4.4" fill="#312e81"/>
  <circle cx="150.0" cy="116.2" r="4.4" fill="#312e81"/>
  <circle cx="210.0" cy="273.8" r="4.4" fill="#312e81"/>
  <circle cx="210.0" cy="221.2" r="4.4" fill="#312e81"/>
  <circle cx="210.0" cy="168.8" r="4.4" fill="#065f46"/>
  <circle cx="210.0" cy="116.2" r="4.4" fill="#312e81"/>
  <circle cx="270.0" cy="273.8" r="4.4" fill="#312e81"/>
  <circle cx="270.0" cy="221.2" r="4.4" fill="#312e81"/>
  <circle cx="270.0" cy="168.8" r="4.4" fill="#312e81"/>
  <circle cx="270.0" cy="116.2" r="4.4" fill="#312e81"/>
  <text x="180.0" y="78.0" font-family="-apple-system,BlinkMacSystemFont,'Segoe UI',Roboto,Helvetica,Arial,sans-serif" font-size="12.5" font-weight="700" fill="#1f2937" text-anchor="middle" opacity="1.0" dominant-baseline="middle">grid: 4×4 = 16 runs</text>
  <text x="180.0" y="322.0" font-family="-apple-system,BlinkMacSystemFont,'Segoe UI',Roboto,Helvetica,Arial,sans-serif" font-size="10.5" font-weight="400" fill="#64748b" text-anchor="middle" opacity="1.0" dominant-baseline="middle">only 4 distinct values per axis</text>
  <rect x="400.0" y="90.0" width="240.0" height="210.0" rx="8" fill="#ffffff" stroke="#94a3b8" stroke-width="1.4" opacity="1.0"/>
  <ellipse cx="548.8" cy="169.8" rx="20" ry="15" fill="none" stroke="#10b981" stroke-width="1.3" opacity="0.6"/>
  <ellipse cx="548.8" cy="169.8" rx="40" ry="30" fill="none" stroke="#10b981" stroke-width="1.3" opacity="0.6"/>
  <ellipse cx="548.8" cy="169.8" rx="60" ry="45" fill="none" stroke="#10b981" stroke-width="1.3" opacity="0.6"/>
  <circle cx="549.5" cy="144.2" r="4.4" fill="#312e81"/>
  <circle cx="590.8" cy="102.1" r="4.4" fill="#312e81"/>
  <circle cx="577.6" cy="106.3" r="4.4" fill="#312e81"/>
  <circle cx="407.0" cy="202.2" r="4.4" fill="#312e81"/>
  <circle cx="626.4" cy="163.7" r="4.4" fill="#312e81"/>
  <circle cx="616.2" cy="276.2" r="4.4" fill="#312e81"/>
  <circle cx="512.6" cy="248.2" r="4.4" fill="#312e81"/>
  <circle cx="530.5" cy="179.5" r="4.4" fill="#312e81"/>
  <circle cx="403.1" cy="254.5" r="4.4" fill="#312e81"/>
  <circle cx="467.1" cy="107.6" r="4.4" fill="#312e81"/>
  <circle cx="583.8" cy="266.5" r="4.4" fill="#312e81"/>
  <circle cx="591.3" cy="270.9" r="4.4" fill="#312e81"/>
  <circle cx="548.2" cy="273.4" r="4.4" fill="#312e81"/>
  <circle cx="400.4" cy="117.0" r="4.4" fill="#312e81"/>
  <circle cx="450.3" cy="254.7" r="4.4" fill="#312e81"/>
  <circle cx="635.8" cy="116.8" r="4.4" fill="#312e81"/>
  <text x="520.0" y="78.0" font-family="-apple-system,BlinkMacSystemFont,'Segoe UI',Roboto,Helvetica,Arial,sans-serif" font-size="12.5" font-weight="700" fill="#1f2937" text-anchor="middle" opacity="1.0" dominant-baseline="middle">random: 16 runs</text>
  <text x="520.0" y="322.0" font-family="-apple-system,BlinkMacSystemFont,'Segoe UI',Roboto,Helvetica,Arial,sans-serif" font-size="10.5" font-weight="400" fill="#64748b" text-anchor="middle" opacity="1.0" dominant-baseline="middle">16 distinct values per axis — often finds the peak faster</text>
</svg>
