<svg viewBox="0 0 620 360" xmlns="http://www.w3.org/2000/svg" width="620" height="360" role="img">
  <rect x="0" y="0" width="620" height="360" fill="#ffffff"/>
  <text x="310.0" y="26.0" font-family="-apple-system,BlinkMacSystemFont,'Segoe UI',Roboto,Helvetica,Arial,sans-serif" font-size="17" font-weight="700" fill="#1f2937" text-anchor="middle" opacity="1.0" dominant-baseline="middle">Linear regression fits the line with the smallest squared error</text>
  <line x1="80.0" y1="300.0" x2="550.0" y2="300.0" stroke="#475569" stroke-width="1.8" stroke-linecap="round"/>
  <line x1="80.0" y1="300.0" x2="80.0" y2="50.0" stroke="#475569" stroke-width="1.8" stroke-linecap="round"/>
  <text x="315.0" y="328.0" font-family="-apple-system,BlinkMacSystemFont,'Segoe UI',Roboto,Helvetica,Arial,sans-serif" font-size="12.5" font-weight="400" fill="#64748b" text-anchor="middle" opacity="1.0" dominant-baseline="middle">house size  →</text>
  <text x="46.0" y="175.0" font-family="-apple-system,BlinkMacSystemFont,'Segoe UI',Roboto,Helvetica,Arial,sans-serif" font-size="12.5" fill="#64748b" text-anchor="middle" transform="rotate(-90 46.0 175.0)">price  →</text>
  <line x1="132.0" y1="242.8" x2="132.0" y2="240.7" stroke="#fb7185" stroke-width="1.6" stroke-dasharray="6 5" stroke-linecap="round"/>
  <line x1="184.0" y1="227.2" x2="184.0" y2="220.4" stroke="#fb7185" stroke-width="1.6" stroke-dasharray="6 5" stroke-linecap="round"/>
  <line x1="236.0" y1="193.4" x2="236.0" y2="200.2" stroke="#fb7185" stroke-width="1.6" stroke-dasharray="6 5" stroke-linecap="round"/>
  <line x1="288.0" y1="185.6" x2="288.0" y2="179.9" stroke="#fb7185" stroke-width="1.6" stroke-dasharray="6 5" stroke-linecap="round"/>
  <line x1="340.0" y1="164.8" x2="340.0" y2="159.6" stroke="#fb7185" stroke-width="1.6" stroke-dasharray="6 5" stroke-linecap="round"/>
  <line x1="392.0" y1="133.6" x2="392.0" y2="139.3" stroke="#fb7185" stroke-width="1.6" stroke-dasharray="6 5" stroke-linecap="round"/>
  <line x1="444.0" y1="128.4" x2="444.0" y2="119.0" stroke="#fb7185" stroke-width="1.6" stroke-dasharray="6 5" stroke-linecap="round"/>
  <line x1="496.0" y1="92.0" x2="496.0" y2="98.8" stroke="#fb7185" stroke-width="1.6" stroke-dasharray="6 5" stroke-linecap="round"/>
  <path d="M80.0,252.9 L293.2,169.7 L506.4,86.6" fill="none" stroke="#6366f1" stroke-width="2.8"/>
  <circle cx="132.0" cy="242.8" r="4.2" fill="#075985"/>
  <circle cx="184.0" cy="227.2" r="4.2" fill="#075985"/>
  <circle cx="236.0" cy="193.4" r="4.2" fill="#075985"/>
  <circle cx="288.0" cy="185.6" r="4.2" fill="#075985"/>
  <circle cx="340.0" cy="164.8" r="4.2" fill="#075985"/>
  <circle cx="392.0" cy="133.6" r="4.2" fill="#075985"/>
  <circle cx="444.0" cy="128.4" r="4.2" fill="#075985"/>
  <circle cx="496.0" cy="92.0" r="4.2" fill="#075985"/>
  <text x="400.0" y="78.7" font-family="-apple-system,BlinkMacSystemFont,'Segoe UI',Roboto,Helvetica,Arial,sans-serif" font-size="12.5" font-weight="700" fill="#312e81" text-anchor="middle" opacity="1.0" dominant-baseline="middle">best-fit line</text>
  <text x="266.0" y="218.8" font-family="-apple-system,BlinkMacSystemFont,'Segoe UI',Roboto,Helvetica,Arial,sans-serif" font-size="11" font-weight="400" fill="#9f1239" text-anchor="start" opacity="1.0" dominant-baseline="middle">residual</text>
  <text x="310.0" y="348.0" font-family="-apple-system,BlinkMacSystemFont,'Segoe UI',Roboto,Helvetica,Arial,sans-serif" font-size="11.5" font-weight="400" fill="#64748b" text-anchor="middle" opacity="1.0" dominant-baseline="middle">the line that makes the total of all squared red gaps as small as possible</text>
</svg>
