<svg viewBox="0 0 640 340" xmlns="http://www.w3.org/2000/svg" width="640" height="340" role="img">
  <rect x="0" y="0" width="640" height="340" fill="#ffffff"/>
  <text x="320.0" y="26.0" font-family="-apple-system,BlinkMacSystemFont,'Segoe UI',Roboto,Helvetica,Arial,sans-serif" font-size="17" font-weight="700" fill="#1f2937" text-anchor="middle" opacity="1.0" dominant-baseline="middle">The sigmoid maps any score to a probability in (0,1)</text>
  <line x1="90.0" y1="80.0" x2="550.0" y2="80.0" stroke="#94a3b8" stroke-width="1.2" stroke-dasharray="6 5" stroke-linecap="round"/>
  <line x1="90.0" y1="280.0" x2="550.0" y2="280.0" stroke="#94a3b8" stroke-width="1.2" stroke-dasharray="6 5" stroke-linecap="round"/>
  <line x1="320.0" y1="286.0" x2="320.0" y2="74.0" stroke="#475569" stroke-width="1.6" stroke-linecap="round"/>
  <line x1="90.0" y1="280.0" x2="550.0" y2="280.0" stroke="#475569" stroke-width="1.8" stroke-linecap="round"/>
  <path d="M90.0,279.5 L95.1,279.4 L100.2,279.4 L105.3,279.3 L110.4,279.2 L115.6,279.0 L120.7,278.9 L125.8,278.7 L130.9,278.6 L136.0,278.4 L141.1,278.1 L146.2,277.9 L151.3,277.6 L156.4,277.2 L161.6,276.8 L166.7,276.4 L171.8,275.9 L176.9,275.3 L182.0,274.7 L187.1,273.9 L192.2,273.1 L197.3,272.2 L202.4,271.1 L207.6,269.9 L212.7,268.5 L217.8,267.0 L222.9,265.3 L228.0,263.4 L233.1,261.2 L238.2,258.8 L243.3,256.2 L248.4,253.2 L253.6,250.0 L258.7,246.4 L263.8,242.5 L268.9,238.3 L274.0,233.7 L279.1,228.8 L284.2,223.6 L289.3,218.0 L294.4,212.2 L299.6,206.1 L304.7,199.7 L309.8,193.3 L314.9,186.7 L320.0,180.0 L325.1,173.3 L330.2,166.7 L335.3,160.3 L340.4,153.9 L345.6,147.8 L350.7,142.0 L355.8,136.4 L360.9,131.2 L366.0,126.3 L371.1,121.7 L376.2,117.5 L381.3,113.6 L386.4,110.0 L391.6,106.8 L396.7,103.8 L401.8,101.2 L406.9,98.8 L412.0,96.6 L417.1,94.7 L422.2,93.0 L427.3,91.5 L432.4,90.1 L437.6,88.9 L442.7,87.8 L447.8,86.9 L452.9,86.1 L458.0,85.3 L463.1,84.7 L468.2,84.1 L473.3,83.6 L478.4,83.2 L483.6,82.8 L488.7,82.4 L493.8,82.1 L498.9,81.9 L504.0,81.6 L509.1,81.4 L514.2,81.3 L519.3,81.1 L524.4,81.0 L529.6,80.8 L534.7,80.7 L539.8,80.6 L544.9,80.6 L550.0,80.5" fill="none" stroke="#6366f1" stroke-width="3"/>
  <line x1="90.0" y1="180.0" x2="550.0" y2="180.0" stroke="#fb7185" stroke-width="1.4" stroke-dasharray="6 5" stroke-linecap="round"/>
  <circle cx="320.0" cy="180.0" r="4.6" fill="#9f1239"/>
  <text x="80.0" y="280.0" font-family="-apple-system,BlinkMacSystemFont,'Segoe UI',Roboto,Helvetica,Arial,sans-serif" font-size="12" font-weight="400" fill="#64748b" text-anchor="end" opacity="1.0" dominant-baseline="middle">0</text>
  <text x="80.0" y="80.0" font-family="-apple-system,BlinkMacSystemFont,'Segoe UI',Roboto,Helvetica,Arial,sans-serif" font-size="12" font-weight="400" fill="#64748b" text-anchor="end" opacity="1.0" dominant-baseline="middle">1</text>
  <text x="80.0" y="180.0" font-family="-apple-system,BlinkMacSystemFont,'Segoe UI',Roboto,Helvetica,Arial,sans-serif" font-size="12" font-weight="400" fill="#9f1239" text-anchor="end" opacity="1.0" dominant-baseline="middle">0.5</text>
  <text x="550.0" y="300.0" font-family="-apple-system,BlinkMacSystemFont,'Segoe UI',Roboto,Helvetica,Arial,sans-serif" font-size="12" font-weight="400" fill="#64748b" text-anchor="end" opacity="1.0" dominant-baseline="middle">z  (model's raw score w·x+b)</text>
  <text x="328.0" y="78.0" font-family="-apple-system,BlinkMacSystemFont,'Segoe UI',Roboto,Helvetica,Arial,sans-serif" font-size="12" font-weight="700" fill="#312e81" text-anchor="start" opacity="1.0" dominant-baseline="middle">probability σ(z)</text>
  <text x="320.0" y="322.0" font-family="-apple-system,BlinkMacSystemFont,'Segoe UI',Roboto,Helvetica,Arial,sans-serif" font-size="11.5" font-weight="400" fill="#64748b" text-anchor="middle" opacity="1.0" dominant-baseline="middle">predict class 1 when σ(z) &gt; 0.5  (i.e. when z &gt; 0)</text>
</svg>
