<svg viewBox="0 0 620 340" xmlns="http://www.w3.org/2000/svg" width="620" height="340" role="img">
  <rect x="0" y="0" width="620" height="340" fill="#ffffff"/>
  <text x="310.0" y="26.0" font-family="-apple-system,BlinkMacSystemFont,'Segoe UI',Roboto,Helvetica,Arial,sans-serif" font-size="17" font-weight="700" fill="#1f2937" text-anchor="middle" opacity="1.0" dominant-baseline="middle">Logistic regression draws a straight decision boundary</text>
  <line x1="80.0" y1="300.0" x2="540.0" y2="300.0" stroke="#475569" stroke-width="1.8" stroke-linecap="round"/>
  <line x1="80.0" y1="300.0" x2="80.0" y2="50.0" stroke="#475569" stroke-width="1.8" stroke-linecap="round"/>
  <text x="310.0" y="328.0" font-family="-apple-system,BlinkMacSystemFont,'Segoe UI',Roboto,Helvetica,Arial,sans-serif" font-size="12.5" font-weight="400" fill="#64748b" text-anchor="middle" opacity="1.0" dominant-baseline="middle">feature 1  →</text>
  <text x="46.0" y="175.0" font-family="-apple-system,BlinkMacSystemFont,'Segoe UI',Roboto,Helvetica,Arial,sans-serif" font-size="12.5" fill="#64748b" text-anchor="middle" transform="rotate(-90 46.0 175.0)">feature 2  →</text>
  <path d="M142.4,66.0 L485.6,264.0" fill="none" stroke="#8b5cf6" stroke-width="2.6"/>
  <circle cx="184.0" cy="240.0" r="4.4" fill="#10b981"/>
  <circle cx="215.2" cy="210.0" r="4.4" fill="#10b981"/>
  <circle cx="251.6" cy="234.0" r="4.4" fill="#10b981"/>
  <circle cx="168.4" cy="198.0" r="4.4" fill="#10b981"/>
  <circle cx="230.8" cy="249.0" r="4.4" fill="#10b981"/>
  <circle cx="267.2" cy="201.0" r="4.4" fill="#10b981"/>
  <circle cx="194.4" cy="222.0" r="4.4" fill="#10b981"/>
  <path d="M392.0,115.4 L387.4,124.0 L396.6,124.0 Z" fill="#fb7185"/>
  <path d="M428.4,85.4 L423.8,94.0 L433.0,94.0 Z" fill="#fb7185"/>
  <path d="M459.6,109.4 L455.0,118.0 L464.2,118.0 Z" fill="#fb7185"/>
  <path d="M376.4,82.4 L371.8,91.0 L381.0,91.0 Z" fill="#fb7185"/>
  <path d="M438.8,124.4 L434.2,133.0 L443.4,133.0 Z" fill="#fb7185"/>
  <path d="M470.0,85.4 L465.4,94.0 L474.6,94.0 Z" fill="#fb7185"/>
  <path d="M407.6,97.4 L403.0,106.0 L412.2,106.0 Z" fill="#fb7185"/>
  <text x="184.0" y="270.0" font-family="-apple-system,BlinkMacSystemFont,'Segoe UI',Roboto,Helvetica,Arial,sans-serif" font-size="11.5" font-weight="400" fill="#065f46" text-anchor="middle" opacity="1.0" dominant-baseline="middle">class A</text>
  <text x="433.6" y="69.0" font-family="-apple-system,BlinkMacSystemFont,'Segoe UI',Roboto,Helvetica,Arial,sans-serif" font-size="11.5" font-weight="400" fill="#9f1239" text-anchor="middle" opacity="1.0" dominant-baseline="middle">class B</text>
  <text x="412.8" y="208.0" font-family="-apple-system,BlinkMacSystemFont,'Segoe UI',Roboto,Helvetica,Arial,sans-serif" font-size="11" font-weight="700" fill="#5b21b6" text-anchor="middle" opacity="1.0" dominant-baseline="middle">boundary</text>
</svg>
