<svg viewBox="0 0 560 380" xmlns="http://www.w3.org/2000/svg" width="560" height="380" role="img">
  <rect x="0" y="0" width="560" height="380" fill="#ffffff"/>
  <text x="280.0" y="26.0" font-family="-apple-system,BlinkMacSystemFont,'Segoe UI',Roboto,Helvetica,Arial,sans-serif" font-size="17" font-weight="700" fill="#1f2937" text-anchor="middle" opacity="1.0" dominant-baseline="middle">The ROC curve &amp; AUC</text>
  <line x1="100.0" y1="310.0" x2="350.0" y2="310.0" stroke="#475569" stroke-width="1.8" stroke-linecap="round"/>
  <line x1="100.0" y1="310.0" x2="100.0" y2="60.0" stroke="#475569" stroke-width="1.8" stroke-linecap="round"/>
  <text x="225.0" y="338.0" font-family="-apple-system,BlinkMacSystemFont,'Segoe UI',Roboto,Helvetica,Arial,sans-serif" font-size="12.5" font-weight="400" fill="#64748b" text-anchor="middle" opacity="1.0" dominant-baseline="middle">false positive rate →</text>
  <text x="66.0" y="185.0" font-family="-apple-system,BlinkMacSystemFont,'Segoe UI',Roboto,Helvetica,Arial,sans-serif" font-size="12.5" fill="#64748b" text-anchor="middle" transform="rotate(-90 66.0 185.0)">true positive rate →</text>
  <polygon points="100.0,310.0 110.0,205.0 125.0,150.0 150.0,110.0 195.0,85.0 255.0,70.0 350.0,60.0 350.0,310.0 100.0,310.0" fill="#6366f1" fill-opacity="0.10"/>
  <line x1="100.0" y1="310.0" x2="350.0" y2="60.0" stroke="#94a3b8" stroke-width="1.6" stroke-dasharray="6 5" stroke-linecap="round"/>
  <path d="M100.0,310.0 L110.0,205.0 L125.0,150.0 L150.0,110.0 L195.0,85.0 L255.0,70.0 L350.0,60.0" fill="none" stroke="#6366f1" stroke-width="3"/>
  <text x="255.0" y="172.5" font-family="-apple-system,BlinkMacSystemFont,'Segoe UI',Roboto,Helvetica,Arial,sans-serif" font-size="14" font-weight="700" fill="#312e81" text-anchor="middle" opacity="1.0" dominant-baseline="middle">AUC</text>
  <text x="295.0" y="220.0" font-family="-apple-system,BlinkMacSystemFont,'Segoe UI',Roboto,Helvetica,Arial,sans-serif" font-size="10.5" font-weight="400" fill="#64748b" text-anchor="middle" opacity="1.0" dominant-baseline="middle">random</text>
  <text x="225.0" y="54.0" font-family="-apple-system,BlinkMacSystemFont,'Segoe UI',Roboto,Helvetica,Arial,sans-serif" font-size="11" font-weight="400" fill="#64748b" text-anchor="middle" opacity="1.0" dominant-baseline="middle">top-left is better · AUC: 1.0 perfect, 0.5 = coin flip</text>
</svg>
