<svg viewBox="0 0 660 370" xmlns="http://www.w3.org/2000/svg" width="660" height="370" role="img">
  <rect x="0" y="0" width="660" height="370" fill="#ffffff"/>
  <text x="330.0" y="26.0" font-family="-apple-system,BlinkMacSystemFont,'Segoe UI',Roboto,Helvetica,Arial,sans-serif" font-size="17" font-weight="700" fill="#1f2937" text-anchor="middle" opacity="1.0" dominant-baseline="middle">The bias–variance tradeoff: test error is U-shaped in complexity</text>
  <line x1="80.0" y1="300.0" x2="580.0" y2="300.0" stroke="#475569" stroke-width="1.8" stroke-linecap="round"/>
  <line x1="80.0" y1="300.0" x2="80.0" y2="50.0" stroke="#475569" stroke-width="1.8" stroke-linecap="round"/>
  <text x="330.0" y="328.0" font-family="-apple-system,BlinkMacSystemFont,'Segoe UI',Roboto,Helvetica,Arial,sans-serif" font-size="12.5" font-weight="400" fill="#64748b" text-anchor="middle" opacity="1.0" dominant-baseline="middle">model complexity →</text>
  <text x="46.0" y="175.0" font-family="-apple-system,BlinkMacSystemFont,'Segoe UI',Roboto,Helvetica,Arial,sans-serif" font-size="12.5" fill="#64748b" text-anchor="middle" transform="rotate(-90 46.0 175.0)">error →</text>
  <path d="M80.0,211.7 L85.4,215.4 L90.7,219.0 L96.1,222.4 L101.5,225.6 L106.9,228.7 L112.2,231.6 L117.6,234.4 L123.0,237.1 L128.4,239.7 L133.7,242.1 L139.1,244.5 L144.5,246.7 L149.9,248.8 L155.2,250.8 L160.6,252.8 L166.0,254.6 L171.3,256.4 L176.7,258.1 L182.1,259.7 L187.5,261.2 L192.8,262.7 L198.2,264.1 L203.6,265.4 L209.0,266.7 L214.3,267.9 L219.7,269.1 L225.1,270.2 L230.5,271.3 L235.8,272.3 L241.2,273.2 L246.6,274.2 L251.9,275.0 L257.3,275.9 L262.7,276.7 L268.1,277.4 L273.4,278.2 L278.8,278.9 L284.2,279.5 L289.6,280.2 L294.9,280.8 L300.3,281.3 L305.7,281.9 L311.1,282.4 L316.4,282.9 L321.8,283.4 L327.2,283.9 L332.5,284.3 L337.9,284.7 L343.3,285.1 L348.7,285.5 L354.0,285.9 L359.4,286.2 L364.8,286.5 L370.2,286.9 L375.5,287.2 L380.9,287.5 L386.3,287.7 L391.7,288.0 L397.0,288.2 L402.4,288.5 L407.8,288.7 L413.1,288.9 L418.5,289.1 L423.9,289.3 L429.3,289.5 L434.6,289.7 L440.0,289.9 L445.4,290.0 L450.8,290.2 L456.1,290.3 L461.5,290.5 L466.9,290.6 L472.3,290.8 L477.6,290.9 L483.0,291.0 L488.4,291.1 L493.7,291.2 L499.1,291.3 L504.5,291.4 L509.9,291.5 L515.2,291.6 L520.6,291.7 L526.0,291.8 L531.4,291.9 L536.7,291.9 L542.1,292.0 L547.5,292.1 L552.9,292.1 L558.2,292.2 L563.6,292.3" fill="none" stroke="#10b981" stroke-width="2.8"/>
  <path d="M80.0,209.9 L85.4,214.0 L90.7,217.8 L96.1,221.5 L101.5,225.0 L106.9,228.3 L112.2,231.4 L117.6,234.3 L123.0,237.1 L128.4,239.7 L133.7,242.1 L139.1,244.4 L144.5,246.6 L149.9,248.6 L155.2,250.5 L160.6,252.2 L166.0,253.9 L171.3,255.4 L176.7,256.7 L182.1,258.0 L187.5,259.2 L192.8,260.2 L198.2,261.1 L203.6,262.0 L209.0,262.7 L214.3,263.4 L219.7,263.9 L225.1,264.4 L230.5,264.7 L235.8,265.0 L241.2,265.2 L246.6,265.3 L251.9,265.3 L257.3,265.3 L262.7,265.2 L268.1,265.0 L273.4,264.7 L278.8,264.4 L284.2,263.9 L289.6,263.5 L294.9,262.9 L300.3,262.3 L305.7,261.6 L311.1,260.8 L316.4,260.0 L321.8,259.2 L327.2,258.2 L332.5,257.2 L337.9,256.2 L343.3,255.1 L348.7,253.9 L354.0,252.7 L359.4,251.4 L364.8,250.1 L370.2,248.7 L375.5,247.2 L380.9,245.8 L386.3,244.2 L391.7,242.6 L397.0,241.0 L402.4,239.3 L407.8,237.5 L413.1,235.7 L418.5,233.9 L423.9,232.0 L429.3,230.0 L434.6,228.1 L440.0,226.0 L445.4,223.9 L450.8,221.8 L456.1,219.6 L461.5,217.4 L466.9,215.1 L472.3,212.8 L477.6,210.5 L483.0,208.1 L488.4,205.6 L493.7,203.1 L499.1,200.6 L504.5,198.0 L509.9,195.4 L515.2,192.8 L520.6,190.0 L526.0,187.3 L531.4,184.5 L536.7,181.7 L542.1,178.8 L547.5,175.9 L552.9,172.9 L558.2,169.9 L563.6,166.9" fill="none" stroke="#fb7185" stroke-width="2.8"/>
  <line x1="267.3" y1="300.0" x2="267.3" y2="265.3" stroke="#8b5cf6" stroke-width="1.6" stroke-dasharray="6 5" stroke-linecap="round"/>
  <circle cx="267.3" cy="265.3" r="4.6" fill="#8b5cf6"/>
  <text x="267.3" y="249.3" font-family="-apple-system,BlinkMacSystemFont,'Segoe UI',Roboto,Helvetica,Arial,sans-serif" font-size="11" font-weight="700" fill="#5b21b6" text-anchor="middle" opacity="1.0" dominant-baseline="middle">sweet spot</text>
  <text x="407.6" y="273.0" font-family="-apple-system,BlinkMacSystemFont,'Segoe UI',Roboto,Helvetica,Arial,sans-serif" font-size="11.5" font-weight="400" fill="#065f46" text-anchor="middle" opacity="1.0" dominant-baseline="middle">train error</text>
  <text x="548.0" y="186.0" font-family="-apple-system,BlinkMacSystemFont,'Segoe UI',Roboto,Helvetica,Arial,sans-serif" font-size="11.5" font-weight="400" fill="#9f1239" text-anchor="end" opacity="1.0" dominant-baseline="middle">test error</text>
  <text x="152.8" y="282.0" font-family="-apple-system,BlinkMacSystemFont,'Segoe UI',Roboto,Helvetica,Arial,sans-serif" font-size="10.5" font-weight="400" fill="#64748b" text-anchor="middle" opacity="1.0" dominant-baseline="middle">underfit</text>
  <text x="522.0" y="282.0" font-family="-apple-system,BlinkMacSystemFont,'Segoe UI',Roboto,Helvetica,Arial,sans-serif" font-size="10.5" font-weight="400" fill="#64748b" text-anchor="middle" opacity="1.0" dominant-baseline="middle">overfit</text>
</svg>
