<svg viewBox="0 0 660 350" xmlns="http://www.w3.org/2000/svg" width="660" height="350" role="img">
  <rect x="0" y="0" width="660" height="350" fill="#ffffff"/>
  <text x="330.0" y="26.0" font-family="-apple-system,BlinkMacSystemFont,'Segoe UI',Roboto,Helvetica,Arial,sans-serif" font-size="17" font-weight="700" fill="#1f2937" text-anchor="middle" opacity="1.0" dominant-baseline="middle">Increasing the penalty λ shrinks coefficients toward zero</text>
  <line x1="90.0" y1="300.0" x2="580.0" y2="300.0" stroke="#475569" stroke-width="1.8" stroke-linecap="round"/>
  <line x1="90.0" y1="300.0" x2="90.0" y2="60.0" stroke="#475569" stroke-width="1.8" stroke-linecap="round"/>
  <line x1="90.0" y1="170.0" x2="580.0" y2="170.0" stroke="#94a3b8" stroke-width="1.3" stroke-dasharray="6 5" stroke-linecap="round"/>
  <text x="80.0" y="170.0" font-family="-apple-system,BlinkMacSystemFont,'Segoe UI',Roboto,Helvetica,Arial,sans-serif" font-size="11" font-weight="400" fill="#64748b" text-anchor="end" opacity="1.0" dominant-baseline="middle">0</text>
  <text x="335.0" y="326.0" font-family="-apple-system,BlinkMacSystemFont,'Segoe UI',Roboto,Helvetica,Arial,sans-serif" font-size="12.5" font-weight="400" fill="#64748b" text-anchor="middle" opacity="1.0" dominant-baseline="middle">penalty strength λ →</text>
  <text x="56.0" y="180" font-family="-apple-system,BlinkMacSystemFont,'Segoe UI',Roboto,Helvetica,Arial,sans-serif" font-size="12.5" fill="#64748b" text-anchor="middle" transform="rotate(-90 56.0 180)">coefficient value</text>
  <path d="M90.0,62.0 L96.1,66.8 L102.2,71.3 L108.4,75.6 L114.5,79.8 L120.6,83.8 L126.8,87.6 L132.9,91.2 L139.0,94.7 L145.1,98.0 L151.2,101.1 L157.4,104.2 L163.5,107.1 L169.6,109.8 L175.8,112.5 L181.9,115.0 L188.0,117.4 L194.1,119.7 L200.2,122.0 L206.4,124.1 L212.5,126.1 L218.6,128.0 L224.8,129.9 L230.9,131.6 L237.0,133.3 L243.1,134.9 L249.2,136.5 L255.4,138.0 L261.5,139.4 L267.6,140.7 L273.8,142.0 L279.9,143.2 L286.0,144.4 L292.1,145.5 L298.2,146.6 L304.4,147.6 L310.5,148.6 L316.6,149.6 L322.8,150.5 L328.9,151.3 L335.0,152.1 L341.1,152.9 L347.2,153.7 L353.4,154.4 L359.5,155.1 L365.6,155.7 L371.8,156.4 L377.9,157.0 L384.0,157.5 L390.1,158.1 L396.2,158.6 L402.4,159.1 L408.5,159.6 L414.6,160.1 L420.8,160.5 L426.9,160.9 L433.0,161.3 L439.1,161.7 L445.2,162.1 L451.4,162.4 L457.5,162.7 L463.6,163.1 L469.8,163.4 L475.9,163.7 L482.0,163.9 L488.1,164.2 L494.2,164.5 L500.4,164.7 L506.5,164.9 L512.6,165.2 L518.8,165.4 L524.9,165.6 L531.0,165.8 L537.1,166.0 L543.2,166.1 L549.4,166.3 L555.5,166.5 L561.6,166.6 L567.8,166.8 L573.9,166.9 L580.0,167.0" fill="none" stroke="#10b981" stroke-width="2.4"/>
  <path d="M90.0,249.2 L96.1,245.7 L102.2,242.4 L108.4,239.2 L114.5,236.2 L120.6,233.2 L126.8,230.5 L132.9,227.8 L139.0,225.3 L145.1,222.8 L151.2,220.5 L157.4,218.3 L163.5,216.2 L169.6,214.1 L175.8,212.2 L181.9,210.3 L188.0,208.6 L194.1,206.9 L200.2,205.2 L206.4,203.7 L212.5,202.2 L218.6,200.8 L224.8,199.4 L230.9,198.1 L237.0,196.9 L243.1,195.7 L249.2,194.6 L255.4,193.5 L261.5,192.5 L267.6,191.5 L273.8,190.5 L279.9,189.6 L286.0,188.8 L292.1,187.9 L298.2,187.1 L304.4,186.4 L310.5,185.7 L316.6,185.0 L322.8,184.3 L328.9,183.7 L335.0,183.1 L341.1,182.5 L347.2,182.0 L353.4,181.4 L359.5,180.9 L365.6,180.5 L371.8,180.0 L377.9,179.6 L384.0,179.1 L390.1,178.7 L396.2,178.3 L402.4,178.0 L408.5,177.6 L414.6,177.3 L420.8,177.0 L426.9,176.7 L433.0,176.4 L439.1,176.1 L445.2,175.8 L451.4,175.6 L457.5,175.3 L463.6,175.1 L469.8,174.9 L475.9,174.7 L482.0,174.4 L488.1,174.3 L494.2,174.1 L500.4,173.9 L506.5,173.7 L512.6,173.6 L518.8,173.4 L524.9,173.2 L531.0,173.1 L537.1,173.0 L543.2,172.8 L549.4,172.7 L555.5,172.6 L561.6,172.5 L567.8,172.4 L573.9,172.3 L580.0,172.2" fill="none" stroke="#fb7185" stroke-width="2.4"/>
  <path d="M90.0,112.4 L96.1,114.9 L102.2,117.4 L108.4,119.7 L114.5,121.9 L120.6,124.0 L126.8,126.0 L132.9,128.0 L139.0,129.8 L145.1,131.6 L151.2,133.3 L157.4,134.9 L163.5,136.4 L169.6,137.9 L175.8,139.3 L181.9,140.7 L188.0,142.0 L194.1,143.2 L200.2,144.4 L206.4,145.5 L212.5,146.6 L218.6,147.6 L224.8,148.6 L230.9,149.5 L237.0,150.4 L243.1,151.3 L249.2,152.1 L255.4,152.9 L261.5,153.7 L267.6,154.4 L273.8,155.1 L279.9,155.7 L286.0,156.4 L292.1,157.0 L298.2,157.5 L304.4,158.1 L310.5,158.6 L316.6,159.1 L322.8,159.6 L328.9,160.0 L335.0,160.5 L341.1,160.9 L347.2,161.3 L353.4,161.7 L359.5,162.0 L365.6,162.4 L371.8,162.7 L377.9,163.1 L384.0,163.4 L390.1,163.6 L396.2,163.9 L402.4,164.2 L408.5,164.5 L414.6,164.7 L420.8,164.9 L426.9,165.2 L433.0,165.4 L439.1,165.6 L445.2,165.8 L451.4,166.0 L457.5,166.1 L463.6,166.3 L469.8,166.5 L475.9,166.6 L482.0,166.8 L488.1,166.9 L494.2,167.0 L500.4,167.2 L506.5,167.3 L512.6,167.4 L518.8,167.5 L524.9,167.6 L531.0,167.7 L537.1,167.8 L543.2,167.9 L549.4,168.0 L555.5,168.1 L561.6,168.2 L567.8,168.3 L573.9,168.4 L580.0,168.4" fill="none" stroke="#38bdf8" stroke-width="2.4"/>
  <path d="M90.0,202.4 L96.1,201.0 L102.2,199.6 L108.4,198.3 L114.5,197.1 L120.6,195.9 L126.8,194.7 L132.9,193.6 L139.0,192.6 L145.1,191.6 L151.2,190.7 L157.4,189.8 L163.5,188.9 L169.6,188.1 L175.8,187.3 L181.9,186.5 L188.0,185.8 L194.1,185.1 L200.2,184.4 L206.4,183.8 L212.5,183.2 L218.6,182.6 L224.8,182.0 L230.9,181.5 L237.0,181.0 L243.1,180.5 L249.2,180.1 L255.4,179.6 L261.5,179.2 L267.6,178.8 L273.8,178.4 L279.9,178.0 L286.0,177.7 L292.1,177.3 L298.2,177.0 L304.4,176.7 L310.5,176.4 L316.6,176.1 L322.8,175.9 L328.9,175.6 L335.0,175.4 L341.1,175.1 L347.2,174.9 L353.4,174.7 L359.5,174.5 L365.6,174.3 L371.8,174.1 L377.9,173.9 L384.0,173.7 L390.1,173.6 L396.2,173.4 L402.4,173.3 L408.5,173.1 L414.6,173.0 L420.8,172.9 L426.9,172.7 L433.0,172.6 L439.1,172.5 L445.2,172.4 L451.4,172.3 L457.5,172.2 L463.6,172.1 L469.8,172.0 L475.9,171.9 L482.0,171.8 L488.1,171.7 L494.2,171.7 L500.4,171.6 L506.5,171.5 L512.6,171.5 L518.8,171.4 L524.9,171.3 L531.0,171.3 L537.1,171.2 L543.2,171.2 L549.4,171.1 L555.5,171.1 L561.6,171.0 L567.8,171.0 L573.9,170.9 L580.0,170.9" fill="none" stroke="#f59e0b" stroke-width="2.4"/>
  <path d="M90.0,152.0 L96.1,152.8 L102.2,153.5 L108.4,154.3 L114.5,155.0 L120.6,155.6 L126.8,156.3 L132.9,156.9 L139.0,157.4 L145.1,158.0 L151.2,158.5 L157.4,159.0 L163.5,159.5 L169.6,160.0 L175.8,160.4 L181.9,160.8 L188.0,161.2 L194.1,161.6 L200.2,162.0 L206.4,162.3 L212.5,162.7 L218.6,163.0 L224.8,163.3 L230.9,163.6 L237.0,163.9 L243.1,164.2 L249.2,164.4 L255.4,164.7 L261.5,164.9 L267.6,165.1 L273.8,165.3 L279.9,165.5 L286.0,165.7 L292.1,165.9 L298.2,166.1 L304.4,166.3 L310.5,166.4 L316.6,166.6 L322.8,166.7 L328.9,166.9 L335.0,167.0 L341.1,167.2 L347.2,167.3 L353.4,167.4 L359.5,167.5 L365.6,167.6 L371.8,167.7 L377.9,167.8 L384.0,167.9 L390.1,168.0 L396.2,168.1 L402.4,168.2 L408.5,168.3 L414.6,168.3 L420.8,168.4 L426.9,168.5 L433.0,168.6 L439.1,168.6 L445.2,168.7 L451.4,168.7 L457.5,168.8 L463.6,168.8 L469.8,168.9 L475.9,168.9 L482.0,169.0 L488.1,169.0 L494.2,169.1 L500.4,169.1 L506.5,169.2 L512.6,169.2 L518.8,169.2 L524.9,169.3 L531.0,169.3 L537.1,169.3 L543.2,169.4 L549.4,169.4 L555.5,169.4 L561.6,169.4 L567.8,169.5 L573.9,169.5 L580.0,169.5" fill="none" stroke="#8b5cf6" stroke-width="2.4"/>
  <text x="560.0" y="170.0" font-family="-apple-system,BlinkMacSystemFont,'Segoe UI',Roboto,Helvetica,Arial,sans-serif" font-size="12" font-weight="400" fill="#64748b" text-anchor="start" opacity="1.0" dominant-baseline="middle">→ 0</text>
  <text x="240.0" y="80.0" font-family="-apple-system,BlinkMacSystemFont,'Segoe UI',Roboto,Helvetica,Arial,sans-serif" font-size="10.5" font-weight="400" fill="#64748b" text-anchor="middle" opacity="1.0" dominant-baseline="middle">small λ: rich, complex model</text>
  <text x="450.0" y="112.0" font-family="-apple-system,BlinkMacSystemFont,'Segoe UI',Roboto,Helvetica,Arial,sans-serif" font-size="10.5" font-weight="400" fill="#64748b" text-anchor="middle" opacity="1.0" dominant-baseline="middle">large λ: simpler, shrunken model</text>
</svg>
