<svg viewBox="0 0 620 350" xmlns="http://www.w3.org/2000/svg" width="620" height="350" role="img">
  <rect x="0" y="0" width="620" height="350" fill="#ffffff"/>
  <text x="310.0" y="26.0" font-family="-apple-system,BlinkMacSystemFont,'Segoe UI',Roboto,Helvetica,Arial,sans-serif" font-size="17" font-weight="700" fill="#1f2937" text-anchor="middle" opacity="1.0" dominant-baseline="middle">A tree carves the space into axis-aligned boxes</text>
  <line x1="80.0" y1="300.0" x2="540.0" y2="300.0" stroke="#475569" stroke-width="1.8" stroke-linecap="round"/>
  <line x1="80.0" y1="300.0" x2="80.0" y2="50.0" stroke="#475569" stroke-width="1.8" stroke-linecap="round"/>
  <text x="310.0" y="328.0" font-family="-apple-system,BlinkMacSystemFont,'Segoe UI',Roboto,Helvetica,Arial,sans-serif" font-size="12.5" font-weight="400" fill="#64748b" text-anchor="middle" opacity="1.0" dominant-baseline="middle">feature 1 →</text>
  <text x="46.0" y="175.0" font-family="-apple-system,BlinkMacSystemFont,'Segoe UI',Roboto,Helvetica,Arial,sans-serif" font-size="12.5" fill="#64748b" text-anchor="middle" transform="rotate(-90 46.0 175.0)">feature 2 →</text>
  <path d="M314.0,300.0 L314.0,165.0 L540.0,165.0" fill="none" stroke="#8b5cf6" stroke-width="2.6"/>
  <circle cx="184.0" cy="120.0" r="4.4" fill="#10b981"/>
  <circle cx="236.0" cy="90.0" r="4.4" fill="#10b981"/>
  <circle cx="392.0" cy="120.0" r="4.4" fill="#10b981"/>
  <circle cx="444.0" cy="84.0" r="4.4" fill="#10b981"/>
  <circle cx="340.0" cy="102.0" r="4.4" fill="#10b981"/>
  <circle cx="496.0" cy="120.0" r="4.4" fill="#10b981"/>
  <circle cx="194.4" cy="132.0" r="4.4" fill="#10b981"/>
  <circle cx="423.2" cy="138.0" r="4.4" fill="#10b981"/>
  <path d="M163.2,247.4 L158.6,256.0 L167.8,256.0 Z" fill="#fb7185"/>
  <path d="M215.2,232.4 L210.6,241.0 L219.8,241.0 Z" fill="#fb7185"/>
  <path d="M262.0,262.4 L257.4,271.0 L266.6,271.0 Z" fill="#fb7185"/>
  <path d="M137.2,217.4 L132.6,226.0 L141.8,226.0 Z" fill="#fb7185"/>
  <path d="M241.2,202.4 L236.6,211.0 L245.8,211.0 Z" fill="#fb7185"/>
  <path d="M184.0,262.4 L179.4,271.0 L188.6,271.0 Z" fill="#fb7185"/>
  <path d="M267.2,223.4 L262.6,232.0 L271.8,232.0 Z" fill="#fb7185"/>
  <text x="163.2" y="279.0" font-family="-apple-system,BlinkMacSystemFont,'Segoe UI',Roboto,Helvetica,Arial,sans-serif" font-size="11" font-weight="400" fill="#9f1239" text-anchor="middle" opacity="1.0" dominant-baseline="middle">class B</text>
  <text x="412.8" y="72.0" font-family="-apple-system,BlinkMacSystemFont,'Segoe UI',Roboto,Helvetica,Arial,sans-serif" font-size="11" font-weight="400" fill="#065f46" text-anchor="middle" opacity="1.0" dominant-baseline="middle">class A</text>
  <text x="330.0" y="153.0" font-family="-apple-system,BlinkMacSystemFont,'Segoe UI',Roboto,Helvetica,Arial,sans-serif" font-size="11" font-weight="700" fill="#5b21b6" text-anchor="middle" opacity="1.0" dominant-baseline="middle">staircase boundary</text>
</svg>
