<svg viewBox="0 0 700 330" xmlns="http://www.w3.org/2000/svg" width="700" height="330" role="img">
  <rect x="0" y="0" width="700" height="330" fill="#ffffff"/>
  <text x="350.0" y="26.0" font-family="-apple-system,BlinkMacSystemFont,'Segoe UI',Roboto,Helvetica,Arial,sans-serif" font-size="17" font-weight="700" fill="#1f2937" text-anchor="middle" opacity="1.0" dominant-baseline="middle">Each split picks the question that most reduces impurity</text>
  <rect x="94.0" y="110.0" width="132.0" height="80.0" rx="10" fill="#ffffff" stroke="#94a3b8" stroke-width="1.4" opacity="1.0"/>
  <circle cx="168.6" cy="150.0" r="4" fill="#10b981"/>
  <circle cx="175.0" cy="156.7" r="4" fill="#10b981"/>
  <circle cx="168.8" cy="166.7" r="4" fill="#10b981"/>
  <circle cx="157.3" cy="155.0" r="4" fill="#10b981"/>
  <circle cx="145.0" cy="156.7" r="4" fill="#10b981"/>
  <circle cx="131.4" cy="150.0" r="4" fill="#fb7185"/>
  <circle cx="153.1" cy="146.9" r="4" fill="#fb7185"/>
  <circle cx="154.3" cy="139.1" r="4" fill="#fb7185"/>
  <circle cx="168.8" cy="133.3" r="4" fill="#fb7185"/>
  <circle cx="166.9" cy="146.9" r="4" fill="#fb7185"/>
  <text x="160.0" y="206.0" font-family="-apple-system,BlinkMacSystemFont,'Segoe UI',Roboto,Helvetica,Arial,sans-serif" font-size="11.5" font-weight="400" fill="#64748b" text-anchor="middle" opacity="1.0" dominant-baseline="middle">mixed parent</text>
  <text x="160.0" y="96.0" font-family="-apple-system,BlinkMacSystemFont,'Segoe UI',Roboto,Helvetica,Arial,sans-serif" font-size="12" font-weight="700" fill="#312e81" text-anchor="middle" opacity="1.0" dominant-baseline="middle">Gini 0.50</text>
  <line x1="250.0" y1="150.0" x2="330.0" y2="110.0" stroke="#94a3b8" stroke-width="2.2" stroke-linecap="round"/>
  <path d="M330.0,110.0 L321.0,110.4 L324.3,117.0 Z" fill="#94a3b8"/>
  <line x1="250.0" y1="150.0" x2="330.0" y2="210.0" stroke="#94a3b8" stroke-width="2.2" stroke-linecap="round"/>
  <path d="M330.0,210.0 L325.6,202.1 L321.2,208.0 Z" fill="#94a3b8"/>
  <rect x="364.0" y="60.0" width="132.0" height="80.0" rx="10" fill="#ffffff" stroke="#94a3b8" stroke-width="1.4" opacity="1.0"/>
  <circle cx="438.6" cy="100.0" r="4" fill="#10b981"/>
  <circle cx="439.3" cy="109.9" r="4" fill="#10b981"/>
  <circle cx="415.7" cy="115.2" r="4" fill="#10b981"/>
  <circle cx="421.4" cy="100.0" r="4" fill="#10b981"/>
  <circle cx="420.7" cy="90.1" r="4" fill="#10b981"/>
  <circle cx="444.3" cy="84.8" r="4" fill="#fb7185"/>
  <text x="430.0" y="156.0" font-family="-apple-system,BlinkMacSystemFont,'Segoe UI',Roboto,Helvetica,Arial,sans-serif" font-size="11.5" font-weight="400" fill="#64748b" text-anchor="middle" opacity="1.0" dominant-baseline="middle">'size&gt;1500?' → yes</text>
  <text x="430.0" y="46.0" font-family="-apple-system,BlinkMacSystemFont,'Segoe UI',Roboto,Helvetica,Arial,sans-serif" font-size="12" font-weight="700" fill="#312e81" text-anchor="middle" opacity="1.0" dominant-baseline="middle">Gini 0.28</text>
  <rect x="364.0" y="195.0" width="132.0" height="80.0" rx="10" fill="#ffffff" stroke="#94a3b8" stroke-width="1.4" opacity="1.0"/>
  <circle cx="438.6" cy="235.0" r="4" fill="#10b981"/>
  <circle cx="439.3" cy="244.9" r="4" fill="#fb7185"/>
  <circle cx="415.7" cy="250.2" r="4" fill="#fb7185"/>
  <circle cx="421.4" cy="235.0" r="4" fill="#fb7185"/>
  <circle cx="420.7" cy="225.1" r="4" fill="#fb7185"/>
  <circle cx="444.3" cy="219.8" r="4" fill="#fb7185"/>
  <text x="430.0" y="291.0" font-family="-apple-system,BlinkMacSystemFont,'Segoe UI',Roboto,Helvetica,Arial,sans-serif" font-size="11.5" font-weight="400" fill="#64748b" text-anchor="middle" opacity="1.0" dominant-baseline="middle">→ no</text>
  <text x="430.0" y="181.0" font-family="-apple-system,BlinkMacSystemFont,'Segoe UI',Roboto,Helvetica,Arial,sans-serif" font-size="12" font-weight="700" fill="#312e81" text-anchor="middle" opacity="1.0" dominant-baseline="middle">Gini 0.28</text>
  <text x="560.0" y="150.0" font-family="-apple-system,BlinkMacSystemFont,'Segoe UI',Roboto,Helvetica,Arial,sans-serif" font-size="12" font-weight="700" fill="#065f46" text-anchor="start" opacity="1.0" dominant-baseline="middle">purer children</text>
  <text x="560.0" y="170.0" font-family="-apple-system,BlinkMacSystemFont,'Segoe UI',Roboto,Helvetica,Arial,sans-serif" font-size="11" font-weight="400" fill="#64748b" text-anchor="start" opacity="1.0" dominant-baseline="middle">= a good split</text>
</svg>
