<svg viewBox="0 0 640 384" xmlns="http://www.w3.org/2000/svg" width="640" height="384" role="img">
  <rect x="0" y="0" width="640" height="384" fill="#ffffff"/>
  <text x="320.0" y="26.0" font-family="-apple-system,BlinkMacSystemFont,'Segoe UI',Roboto,Helvetica,Arial,sans-serif" font-size="17" font-weight="700" fill="#1f2937" text-anchor="middle" opacity="1.0" dominant-baseline="middle">An SVM picks the boundary with the widest margin</text>
  <line x1="80.0" y1="310.0" x2="550.0" y2="310.0" stroke="#475569" stroke-width="1.8" stroke-linecap="round"/>
  <line x1="80.0" y1="310.0" x2="80.0" y2="50.0" stroke="#475569" stroke-width="1.8" stroke-linecap="round"/>
  <text x="315.0" y="338.0" font-family="-apple-system,BlinkMacSystemFont,'Segoe UI',Roboto,Helvetica,Arial,sans-serif" font-size="12.5" font-weight="400" fill="#64748b" text-anchor="middle" opacity="1.0" dominant-baseline="middle">feature 1 →</text>
  <text x="46.0" y="180.0" font-family="-apple-system,BlinkMacSystemFont,'Segoe UI',Roboto,Helvetica,Arial,sans-serif" font-size="12.5" fill="#64748b" text-anchor="middle" transform="rotate(-90 46.0 180.0)">feature 2 →</text>
  <path d="M155.6,60.4 L501.2,265.2" fill="none" stroke="#8b5cf6" stroke-width="2.8"/>
  <path d="M155.6,18.8 L501.2,223.6" fill="none" stroke="#94a3b8" stroke-width="1.6" stroke-dasharray="6 5"/>
  <path d="M155.6,102.0 L501.2,306.8" fill="none" stroke="#94a3b8" stroke-width="1.6" stroke-dasharray="6 5"/>
  <circle cx="188.0" cy="239.6" r="4.4" fill="#10b981"/>
  <circle cx="242.0" cy="214.0" r="4.4" fill="#10b981"/>
  <circle cx="215.0" cy="258.8" r="4.4" fill="#10b981"/>
  <circle cx="177.2" cy="207.6" r="4.4" fill="#10b981"/>
  <circle cx="274.4" cy="239.6" r="4.4" fill="#10b981"/>
  <path d="M425.6,94.2 L421.0,102.8 L430.2,102.8 Z" fill="#fb7185"/>
  <path d="M468.8,113.4 L464.2,122.0 L473.4,122.0 Z" fill="#fb7185"/>
  <path d="M404.0,68.6 L399.4,77.2 L408.6,77.2 Z" fill="#fb7185"/>
  <path d="M490.4,81.4 L485.8,90.0 L495.0,90.0 Z" fill="#fb7185"/>
  <path d="M382.4,100.6 L377.8,109.2 L387.0,109.2 Z" fill="#fb7185"/>
  <circle cx="252.8" cy="159.6" r="9.0" fill="none" stroke="#92400e" stroke-width="2.4"/>
  <circle cx="350.0" cy="214.0" r="9.0" fill="none" stroke="#92400e" stroke-width="2.4"/>
  <text x="371.6" y="176.4" font-family="-apple-system,BlinkMacSystemFont,'Segoe UI',Roboto,Helvetica,Arial,sans-serif" font-size="11" font-weight="700" fill="#5b21b6" text-anchor="middle" opacity="1.0" dominant-baseline="middle">max-margin boundary</text>
  <text x="242.0" y="153.2" font-family="-apple-system,BlinkMacSystemFont,'Segoe UI',Roboto,Helvetica,Arial,sans-serif" font-size="10.5" font-weight="400" fill="#92400e" text-anchor="middle" opacity="1.0" dominant-baseline="middle">support</text>
  <text x="242.0" y="169.2" font-family="-apple-system,BlinkMacSystemFont,'Segoe UI',Roboto,Helvetica,Arial,sans-serif" font-size="10.5" font-weight="400" fill="#92400e" text-anchor="middle" opacity="1.0" dominant-baseline="middle">vectors</text>
  <text x="320.0" y="368.0" font-family="-apple-system,BlinkMacSystemFont,'Segoe UI',Roboto,Helvetica,Arial,sans-serif" font-size="12" font-weight="400" fill="#64748b" text-anchor="middle" opacity="1.0" dominant-baseline="middle">only the closest points (support vectors) determine the line</text>
</svg>
