<svg viewBox="0 0 720 350" xmlns="http://www.w3.org/2000/svg" width="720" height="350" role="img">
  <rect x="0" y="0" width="720" height="350" fill="#ffffff"/>
  <text x="360.0" y="26.0" font-family="-apple-system,BlinkMacSystemFont,'Segoe UI',Roboto,Helvetica,Arial,sans-serif" font-size="17" font-weight="700" fill="#1f2937" text-anchor="middle" opacity="1.0" dominant-baseline="middle">The kernel trick: lift to a higher dimension where a line works</text>
  <line x1="60.0" y1="170.0" x2="330.0" y2="170.0" stroke="#475569" stroke-width="1.8" stroke-linecap="round"/>
  <circle cx="86.0" cy="170.0" r="4.6" fill="#10b981"/>
  <circle cx="112.0" cy="170.0" r="4.6" fill="#10b981"/>
  <path d="M164.0,165.0 L159.0,174.0 L169.0,174.0 Z" fill="#fb7185"/>
  <path d="M190.0,165.0 L185.0,174.0 L195.0,174.0 Z" fill="#fb7185"/>
  <path d="M216.0,165.0 L211.0,174.0 L221.0,174.0 Z" fill="#fb7185"/>
  <circle cx="268.0" cy="170.0" r="4.6" fill="#10b981"/>
  <circle cx="294.0" cy="170.0" r="4.6" fill="#10b981"/>
  <text x="195.0" y="126.0" font-family="-apple-system,BlinkMacSystemFont,'Segoe UI',Roboto,Helvetica,Arial,sans-serif" font-size="11.5" font-weight="400" fill="#64748b" text-anchor="middle" opacity="1.0" dominant-baseline="middle">1-D: reds in the middle —</text>
  <text x="195.0" y="142.0" font-family="-apple-system,BlinkMacSystemFont,'Segoe UI',Roboto,Helvetica,Arial,sans-serif" font-size="11.5" font-weight="400" fill="#64748b" text-anchor="middle" opacity="1.0" dominant-baseline="middle">no single split separates them</text>
  <text x="195.0" y="210.0" font-family="-apple-system,BlinkMacSystemFont,'Segoe UI',Roboto,Helvetica,Arial,sans-serif" font-size="11" font-weight="400" fill="#64748b" text-anchor="middle" opacity="1.0" dominant-baseline="middle">feature x</text>
  <line x1="345.0" y1="170.0" x2="400.0" y2="170.0" stroke="#6366f1" stroke-width="2.6" stroke-linecap="round"/>
  <path d="M400.0,170.0 L390.0,165.5 L390.0,174.5 Z" fill="#6366f1"/>
  <text x="372.0" y="158.0" font-family="-apple-system,BlinkMacSystemFont,'Segoe UI',Roboto,Helvetica,Arial,sans-serif" font-size="14" font-weight="700" fill="#312e81" text-anchor="middle" opacity="1.0" dominant-baseline="middle">φ</text>
  <line x1="430.0" y1="300.0" x2="680.0" y2="300.0" stroke="#475569" stroke-width="1.8" stroke-linecap="round"/>
  <line x1="430.0" y1="300.0" x2="430.0" y2="70.0" stroke="#475569" stroke-width="1.8" stroke-linecap="round"/>
  <circle cx="456.0" cy="156.0" r="4.6" fill="#10b981"/>
  <circle cx="482.0" cy="219.0" r="4.6" fill="#10b981"/>
  <circle cx="534.0" cy="291.0" r="4.6" fill="#fb7185"/>
  <circle cx="560.0" cy="300.0" r="4.6" fill="#fb7185"/>
  <circle cx="586.0" cy="291.0" r="4.6" fill="#fb7185"/>
  <circle cx="638.0" cy="219.0" r="4.6" fill="#10b981"/>
  <circle cx="664.0" cy="156.0" r="4.6" fill="#10b981"/>
  <line x1="430.0" y1="246.0" x2="680.0" y2="246.0" stroke="#8b5cf6" stroke-width="2.2" stroke-dasharray="6 5" stroke-linecap="round"/>
  <text x="555.0" y="324.0" font-family="-apple-system,BlinkMacSystemFont,'Segoe UI',Roboto,Helvetica,Arial,sans-serif" font-size="11" font-weight="400" fill="#64748b" text-anchor="middle" opacity="1.0" dominant-baseline="middle">feature x</text>
  <text x="400.0" y="185.0" font-family="-apple-system,BlinkMacSystemFont,'Segoe UI',Roboto,Helvetica,Arial,sans-serif" font-size="11" fill="#64748b" text-anchor="middle" transform="rotate(-90 400.0 185.0)">new feature (x−5)²</text>
  <text x="560.0" y="234.0" font-family="-apple-system,BlinkMacSystemFont,'Segoe UI',Roboto,Helvetica,Arial,sans-serif" font-size="10.5" font-weight="700" fill="#5b21b6" text-anchor="middle" opacity="1.0" dominant-baseline="middle">now a line separates</text>
</svg>
