<svg viewBox="0 0 700 340" xmlns="http://www.w3.org/2000/svg" width="700" height="340" role="img">
  <rect x="0" y="0" width="700" height="340" fill="#ffffff"/>
  <text x="350.0" y="26.0" font-family="-apple-system,BlinkMacSystemFont,'Segoe UI',Roboto,Helvetica,Arial,sans-serif" font-size="17" font-weight="700" fill="#1f2937" text-anchor="middle" opacity="1.0" dominant-baseline="middle">Convolution: slide a small filter over the image</text>
  <rect x="70.0" y="90.0" width="30.0" height="30.0" rx="10" fill="#eef2ff" stroke="#6366f1" stroke-width="1.8" opacity="1.0"/>
  <rect x="100.0" y="90.0" width="30.0" height="30.0" rx="10" fill="#eef2ff" stroke="#6366f1" stroke-width="1.8" opacity="1.0"/>
  <rect x="130.0" y="90.0" width="30.0" height="30.0" rx="10" fill="#eef2ff" stroke="#6366f1" stroke-width="1.8" opacity="1.0"/>
  <rect x="160.0" y="90.0" width="30.0" height="30.0" rx="10" fill="#ffffff" stroke="#cbd5e1" stroke-width="1.0" opacity="1.0"/>
  <rect x="190.0" y="90.0" width="30.0" height="30.0" rx="10" fill="#ffffff" stroke="#cbd5e1" stroke-width="1.0" opacity="1.0"/>
  <rect x="220.0" y="90.0" width="30.0" height="30.0" rx="10" fill="#ffffff" stroke="#cbd5e1" stroke-width="1.0" opacity="1.0"/>
  <rect x="70.0" y="120.0" width="30.0" height="30.0" rx="10" fill="#eef2ff" stroke="#6366f1" stroke-width="1.8" opacity="1.0"/>
  <rect x="100.0" y="120.0" width="30.0" height="30.0" rx="10" fill="#eef2ff" stroke="#6366f1" stroke-width="1.8" opacity="1.0"/>
  <rect x="130.0" y="120.0" width="30.0" height="30.0" rx="10" fill="#eef2ff" stroke="#6366f1" stroke-width="1.8" opacity="1.0"/>
  <rect x="160.0" y="120.0" width="30.0" height="30.0" rx="10" fill="#ffffff" stroke="#cbd5e1" stroke-width="1.0" opacity="1.0"/>
  <rect x="190.0" y="120.0" width="30.0" height="30.0" rx="10" fill="#ffffff" stroke="#cbd5e1" stroke-width="1.0" opacity="1.0"/>
  <rect x="220.0" y="120.0" width="30.0" height="30.0" rx="10" fill="#ffffff" stroke="#cbd5e1" stroke-width="1.0" opacity="1.0"/>
  <rect x="70.0" y="150.0" width="30.0" height="30.0" rx="10" fill="#eef2ff" stroke="#6366f1" stroke-width="1.8" opacity="1.0"/>
  <rect x="100.0" y="150.0" width="30.0" height="30.0" rx="10" fill="#eef2ff" stroke="#6366f1" stroke-width="1.8" opacity="1.0"/>
  <rect x="130.0" y="150.0" width="30.0" height="30.0" rx="10" fill="#eef2ff" stroke="#6366f1" stroke-width="1.8" opacity="1.0"/>
  <rect x="160.0" y="150.0" width="30.0" height="30.0" rx="10" fill="#ffffff" stroke="#cbd5e1" stroke-width="1.0" opacity="1.0"/>
  <rect x="190.0" y="150.0" width="30.0" height="30.0" rx="10" fill="#ffffff" stroke="#cbd5e1" stroke-width="1.0" opacity="1.0"/>
  <rect x="220.0" y="150.0" width="30.0" height="30.0" rx="10" fill="#ffffff" stroke="#cbd5e1" stroke-width="1.0" opacity="1.0"/>
  <rect x="70.0" y="180.0" width="30.0" height="30.0" rx="10" fill="#ffffff" stroke="#cbd5e1" stroke-width="1.0" opacity="1.0"/>
  <rect x="100.0" y="180.0" width="30.0" height="30.0" rx="10" fill="#ffffff" stroke="#cbd5e1" stroke-width="1.0" opacity="1.0"/>
  <rect x="130.0" y="180.0" width="30.0" height="30.0" rx="10" fill="#ffffff" stroke="#cbd5e1" stroke-width="1.0" opacity="1.0"/>
  <rect x="160.0" y="180.0" width="30.0" height="30.0" rx="10" fill="#ffffff" stroke="#cbd5e1" stroke-width="1.0" opacity="1.0"/>
  <rect x="190.0" y="180.0" width="30.0" height="30.0" rx="10" fill="#ffffff" stroke="#cbd5e1" stroke-width="1.0" opacity="1.0"/>
  <rect x="220.0" y="180.0" width="30.0" height="30.0" rx="10" fill="#ffffff" stroke="#cbd5e1" stroke-width="1.0" opacity="1.0"/>
  <rect x="70.0" y="210.0" width="30.0" height="30.0" rx="10" fill="#ffffff" stroke="#cbd5e1" stroke-width="1.0" opacity="1.0"/>
  <rect x="100.0" y="210.0" width="30.0" height="30.0" rx="10" fill="#ffffff" stroke="#cbd5e1" stroke-width="1.0" opacity="1.0"/>
  <rect x="130.0" y="210.0" width="30.0" height="30.0" rx="10" fill="#ffffff" stroke="#cbd5e1" stroke-width="1.0" opacity="1.0"/>
  <rect x="160.0" y="210.0" width="30.0" height="30.0" rx="10" fill="#ffffff" stroke="#cbd5e1" stroke-width="1.0" opacity="1.0"/>
  <rect x="190.0" y="210.0" width="30.0" height="30.0" rx="10" fill="#ffffff" stroke="#cbd5e1" stroke-width="1.0" opacity="1.0"/>
  <rect x="220.0" y="210.0" width="30.0" height="30.0" rx="10" fill="#ffffff" stroke="#cbd5e1" stroke-width="1.0" opacity="1.0"/>
  <rect x="70.0" y="240.0" width="30.0" height="30.0" rx="10" fill="#ffffff" stroke="#cbd5e1" stroke-width="1.0" opacity="1.0"/>
  <rect x="100.0" y="240.0" width="30.0" height="30.0" rx="10" fill="#ffffff" stroke="#cbd5e1" stroke-width="1.0" opacity="1.0"/>
  <rect x="130.0" y="240.0" width="30.0" height="30.0" rx="10" fill="#ffffff" stroke="#cbd5e1" stroke-width="1.0" opacity="1.0"/>
  <rect x="160.0" y="240.0" width="30.0" height="30.0" rx="10" fill="#ffffff" stroke="#cbd5e1" stroke-width="1.0" opacity="1.0"/>
  <rect x="190.0" y="240.0" width="30.0" height="30.0" rx="10" fill="#ffffff" stroke="#cbd5e1" stroke-width="1.0" opacity="1.0"/>
  <rect x="220.0" y="240.0" width="30.0" height="30.0" rx="10" fill="#ffffff" stroke="#cbd5e1" stroke-width="1.0" opacity="1.0"/>
  <text x="160.0" y="292.0" font-family="-apple-system,BlinkMacSystemFont,'Segoe UI',Roboto,Helvetica,Arial,sans-serif" font-size="12" font-weight="400" fill="#64748b" text-anchor="middle" opacity="1.0" dominant-baseline="middle">input image</text>
  <text x="115.0" y="76.0" font-family="-apple-system,BlinkMacSystemFont,'Segoe UI',Roboto,Helvetica,Arial,sans-serif" font-size="11.5" font-weight="700" fill="#312e81" text-anchor="middle" opacity="1.0" dominant-baseline="middle">3×3 filter</text>
  <line x1="262.0" y1="180.0" x2="418.0" y2="150.0" stroke="#475569" stroke-width="2.2" stroke-linecap="round"/>
  <path d="M418.0,150.0 L408.3,147.7 L409.8,155.7 Z" fill="#475569"/>
  <text x="340.0" y="148.0" font-family="-apple-system,BlinkMacSystemFont,'Segoe UI',Roboto,Helvetica,Arial,sans-serif" font-size="11" font-weight="400" fill="#64748b" text-anchor="middle" opacity="1.0" dominant-baseline="middle">multiply +</text>
  <text x="340.0" y="164.0" font-family="-apple-system,BlinkMacSystemFont,'Segoe UI',Roboto,Helvetica,Arial,sans-serif" font-size="11" font-weight="400" fill="#64748b" text-anchor="middle" opacity="1.0" dominant-baseline="middle">sum</text>
  <rect x="430.0" y="90.0" width="28.0" height="28.0" rx="10" fill="#ecfdf5" stroke="#10b981" stroke-width="1.2" opacity="1.0"/>
  <rect x="458.0" y="90.0" width="28.0" height="28.0" rx="10" fill="#ecfdf5" stroke="#10b981" stroke-width="1.2" opacity="1.0"/>
  <rect x="486.0" y="90.0" width="28.0" height="28.0" rx="10" fill="#ecfdf5" stroke="#10b981" stroke-width="1.2" opacity="1.0"/>
  <rect x="514.0" y="90.0" width="28.0" height="28.0" rx="10" fill="#ecfdf5" stroke="#10b981" stroke-width="1.2" opacity="1.0"/>
  <rect x="430.0" y="118.0" width="28.0" height="28.0" rx="10" fill="#ecfdf5" stroke="#10b981" stroke-width="1.2" opacity="1.0"/>
  <rect x="458.0" y="118.0" width="28.0" height="28.0" rx="10" fill="#ecfdf5" stroke="#10b981" stroke-width="1.2" opacity="1.0"/>
  <rect x="486.0" y="118.0" width="28.0" height="28.0" rx="10" fill="#ecfdf5" stroke="#10b981" stroke-width="1.2" opacity="1.0"/>
  <rect x="514.0" y="118.0" width="28.0" height="28.0" rx="10" fill="#ecfdf5" stroke="#10b981" stroke-width="1.2" opacity="1.0"/>
  <rect x="430.0" y="146.0" width="28.0" height="28.0" rx="10" fill="#ecfdf5" stroke="#10b981" stroke-width="1.2" opacity="1.0"/>
  <rect x="458.0" y="146.0" width="28.0" height="28.0" rx="10" fill="#ecfdf5" stroke="#10b981" stroke-width="1.2" opacity="1.0"/>
  <rect x="486.0" y="146.0" width="28.0" height="28.0" rx="10" fill="#ecfdf5" stroke="#10b981" stroke-width="1.2" opacity="1.0"/>
  <rect x="514.0" y="146.0" width="28.0" height="28.0" rx="10" fill="#ecfdf5" stroke="#10b981" stroke-width="1.2" opacity="1.0"/>
  <rect x="430.0" y="174.0" width="28.0" height="28.0" rx="10" fill="#ecfdf5" stroke="#10b981" stroke-width="1.2" opacity="1.0"/>
  <rect x="458.0" y="174.0" width="28.0" height="28.0" rx="10" fill="#ecfdf5" stroke="#10b981" stroke-width="1.2" opacity="1.0"/>
  <rect x="486.0" y="174.0" width="28.0" height="28.0" rx="10" fill="#ecfdf5" stroke="#10b981" stroke-width="1.2" opacity="1.0"/>
  <rect x="514.0" y="174.0" width="28.0" height="28.0" rx="10" fill="#ecfdf5" stroke="#10b981" stroke-width="1.2" opacity="1.0"/>
  <text x="486.0" y="224.0" font-family="-apple-system,BlinkMacSystemFont,'Segoe UI',Roboto,Helvetica,Arial,sans-serif" font-size="12" font-weight="700" fill="#065f46" text-anchor="middle" opacity="1.0" dominant-baseline="middle">feature map</text>
  <text x="350.0" y="318.0" font-family="-apple-system,BlinkMacSystemFont,'Segoe UI',Roboto,Helvetica,Arial,sans-serif" font-size="12" font-weight="400" fill="#64748b" text-anchor="middle" opacity="1.0" dominant-baseline="middle">The same small filter slides everywhere (weight sharing) and detects a pattern anywhere it appears.</text>
</svg>
