<svg viewBox="0 0 700 340" xmlns="http://www.w3.org/2000/svg" width="700" height="340" role="img">
  <rect x="0" y="0" width="700" height="340" fill="#ffffff"/>
  <text x="350.0" y="26.0" font-family="-apple-system,BlinkMacSystemFont,'Segoe UI',Roboto,Helvetica,Arial,sans-serif" font-size="17" font-weight="700" fill="#1f2937" text-anchor="middle" opacity="1.0" dominant-baseline="middle">U-Net: compress to understand, expand to localize</text>
  <rect x="50.0" y="73.0" width="90.0" height="44.0" rx="12" fill="#ecfdf5" stroke="#10b981" stroke-width="1.8"/>
  <text x="95.0" y="99.1" font-family="-apple-system,BlinkMacSystemFont,'Segoe UI',Roboto,Helvetica,Arial,sans-serif" font-size="12" font-weight="400" fill="#065f46" text-anchor="middle" dominant-baseline="middle">image</text>
  <rect x="116.0" y="145.0" width="68.0" height="40.0" rx="12" fill="#fffbeb" stroke="#f59e0b" stroke-width="1.8"/>
  <text x="150.0" y="168.9" font-family="-apple-system,BlinkMacSystemFont,'Segoe UI',Roboto,Helvetica,Arial,sans-serif" font-size="11.5" font-weight="400" fill="#92400e" text-anchor="middle" dominant-baseline="middle">enc</text>
  <rect x="171.0" y="215.0" width="68.0" height="40.0" rx="12" fill="#fffbeb" stroke="#f59e0b" stroke-width="1.8"/>
  <text x="205.0" y="238.9" font-family="-apple-system,BlinkMacSystemFont,'Segoe UI',Roboto,Helvetica,Arial,sans-serif" font-size="11.5" font-weight="400" fill="#92400e" text-anchor="middle" dominant-baseline="middle">enc</text>
  <rect x="285.0" y="270.0" width="130.0" height="44.0" rx="12" fill="#f5f3ff" stroke="#8b5cf6" stroke-width="1.8"/>
  <text x="350.0" y="296.1" font-family="-apple-system,BlinkMacSystemFont,'Segoe UI',Roboto,Helvetica,Arial,sans-serif" font-size="12" font-weight="400" fill="#5b21b6" text-anchor="middle" dominant-baseline="middle">bottleneck</text>
  <rect x="461.0" y="215.0" width="68.0" height="40.0" rx="12" fill="#f0f9ff" stroke="#38bdf8" stroke-width="1.8"/>
  <text x="495.0" y="238.9" font-family="-apple-system,BlinkMacSystemFont,'Segoe UI',Roboto,Helvetica,Arial,sans-serif" font-size="11.5" font-weight="400" fill="#075985" text-anchor="middle" dominant-baseline="middle">dec</text>
  <rect x="516.0" y="145.0" width="68.0" height="40.0" rx="12" fill="#f0f9ff" stroke="#38bdf8" stroke-width="1.8"/>
  <text x="550.0" y="168.9" font-family="-apple-system,BlinkMacSystemFont,'Segoe UI',Roboto,Helvetica,Arial,sans-serif" font-size="11.5" font-weight="400" fill="#075985" text-anchor="middle" dominant-baseline="middle">dec</text>
  <rect x="560.0" y="73.0" width="90.0" height="44.0" rx="12" fill="#eef2ff" stroke="#6366f1" stroke-width="1.8"/>
  <text x="605.0" y="99.1" font-family="-apple-system,BlinkMacSystemFont,'Segoe UI',Roboto,Helvetica,Arial,sans-serif" font-size="12" font-weight="400" fill="#312e81" text-anchor="middle" dominant-baseline="middle">mask</text>
  <line x1="112.3" y1="117.0" x2="134.3" y2="145.0" stroke="#475569" stroke-width="1.8" stroke-linecap="round"/>
  <path d="M134.3,145.0 L131.8,135.3 L125.4,140.3 Z" fill="#475569"/>
  <line x1="165.7" y1="185.0" x2="189.3" y2="215.0" stroke="#475569" stroke-width="1.8" stroke-linecap="round"/>
  <path d="M189.3,215.0 L186.8,205.3 L180.4,210.3 Z" fill="#475569"/>
  <line x1="239.0" y1="248.4" x2="294.0" y2="270.0" stroke="#475569" stroke-width="1.8" stroke-linecap="round"/>
  <path d="M294.0,270.0 L287.0,262.9 L284.0,270.4 Z" fill="#475569"/>
  <line x1="406.0" y1="270.0" x2="461.0" y2="248.4" stroke="#475569" stroke-width="1.8" stroke-linecap="round"/>
  <path d="M461.0,248.4 L451.0,247.9 L454.0,255.5 Z" fill="#475569"/>
  <line x1="510.7" y1="215.0" x2="534.3" y2="185.0" stroke="#475569" stroke-width="1.8" stroke-linecap="round"/>
  <path d="M534.3,185.0 L525.4,189.7 L531.8,194.7 Z" fill="#475569"/>
  <line x1="565.7" y1="145.0" x2="587.7" y2="117.0" stroke="#475569" stroke-width="1.8" stroke-linecap="round"/>
  <path d="M587.7,117.0 L578.9,121.7 L585.3,126.7 Z" fill="#475569"/>
  <line x1="140.0" y1="95.0" x2="560.0" y2="95.0" stroke="#94a3b8" stroke-width="1.4" stroke-dasharray="6 5" stroke-linecap="round"/>
  <line x1="184.0" y1="165.0" x2="516.0" y2="165.0" stroke="#94a3b8" stroke-width="1.4" stroke-dasharray="6 5" stroke-linecap="round"/>
  <line x1="239.0" y1="235.0" x2="461.0" y2="235.0" stroke="#94a3b8" stroke-width="1.4" stroke-dasharray="6 5" stroke-linecap="round"/>
  <text x="350.0" y="150.0" font-family="-apple-system,BlinkMacSystemFont,'Segoe UI',Roboto,Helvetica,Arial,sans-serif" font-size="11" font-weight="400" fill="#64748b" text-anchor="middle" opacity="1.0" dominant-baseline="middle">skip connections (dashed) carry fine detail across</text>
  <text x="350.0" y="324.0" font-family="-apple-system,BlinkMacSystemFont,'Segoe UI',Roboto,Helvetica,Arial,sans-serif" font-size="11.5" font-weight="400" fill="#64748b" text-anchor="middle" opacity="1.0" dominant-baseline="middle">Encoder shrinks the image to 'what'; decoder rebuilds 'where'; skips preserve the detail lost in between.</text>
</svg>
