<svg viewBox="0 0 720 320" xmlns="http://www.w3.org/2000/svg" width="720" height="320" role="img">
  <rect x="0" y="0" width="720" height="320" fill="#ffffff"/>
  <text x="360.0" y="26.0" font-family="-apple-system,BlinkMacSystemFont,'Segoe UI',Roboto,Helvetica,Arial,sans-serif" font-size="17" font-weight="700" fill="#1f2937" text-anchor="middle" opacity="1.0" dominant-baseline="middle">Vision Transformer: split the image into patches = tokens</text>
  <rect x="80.0" y="100.0" width="44.0" height="44.0" rx="10" fill="#eef2ff" stroke="#6366f1" stroke-width="1.4" opacity="1.0"/>
  <rect x="124.0" y="100.0" width="44.0" height="44.0" rx="10" fill="#eef2ff" stroke="#6366f1" stroke-width="1.4" opacity="1.0"/>
  <rect x="168.0" y="100.0" width="44.0" height="44.0" rx="10" fill="#eef2ff" stroke="#6366f1" stroke-width="1.4" opacity="1.0"/>
  <rect x="80.0" y="144.0" width="44.0" height="44.0" rx="10" fill="#eef2ff" stroke="#6366f1" stroke-width="1.4" opacity="1.0"/>
  <rect x="124.0" y="144.0" width="44.0" height="44.0" rx="10" fill="#eef2ff" stroke="#6366f1" stroke-width="1.4" opacity="1.0"/>
  <rect x="168.0" y="144.0" width="44.0" height="44.0" rx="10" fill="#eef2ff" stroke="#6366f1" stroke-width="1.4" opacity="1.0"/>
  <rect x="80.0" y="188.0" width="44.0" height="44.0" rx="10" fill="#eef2ff" stroke="#6366f1" stroke-width="1.4" opacity="1.0"/>
  <rect x="124.0" y="188.0" width="44.0" height="44.0" rx="10" fill="#eef2ff" stroke="#6366f1" stroke-width="1.4" opacity="1.0"/>
  <rect x="168.0" y="188.0" width="44.0" height="44.0" rx="10" fill="#eef2ff" stroke="#6366f1" stroke-width="1.4" opacity="1.0"/>
  <text x="146.0" y="252.0" font-family="-apple-system,BlinkMacSystemFont,'Segoe UI',Roboto,Helvetica,Arial,sans-serif" font-size="12" font-weight="400" fill="#64748b" text-anchor="middle" opacity="1.0" dominant-baseline="middle">image → patches</text>
  <line x1="226.0" y1="166.0" x2="340.0" y2="166.0" stroke="#475569" stroke-width="2.2" stroke-linecap="round"/>
  <path d="M340.0,166.0 L330.9,161.9 L330.9,170.1 Z" fill="#475569"/>
  <rect x="360.0" y="144.0" width="34.0" height="34.0" rx="10" fill="#f5f3ff" stroke="#8b5cf6" stroke-width="1.4" opacity="1.0"/>
  <rect x="404.0" y="144.0" width="34.0" height="34.0" rx="10" fill="#f5f3ff" stroke="#8b5cf6" stroke-width="1.4" opacity="1.0"/>
  <rect x="448.0" y="144.0" width="34.0" height="34.0" rx="10" fill="#f5f3ff" stroke="#8b5cf6" stroke-width="1.4" opacity="1.0"/>
  <rect x="492.0" y="144.0" width="34.0" height="34.0" rx="10" fill="#f5f3ff" stroke="#8b5cf6" stroke-width="1.4" opacity="1.0"/>
  <rect x="536.0" y="144.0" width="34.0" height="34.0" rx="10" fill="#f5f3ff" stroke="#8b5cf6" stroke-width="1.4" opacity="1.0"/>
  <rect x="580.0" y="144.0" width="34.0" height="34.0" rx="10" fill="#f5f3ff" stroke="#8b5cf6" stroke-width="1.4" opacity="1.0"/>
  <text x="492.0" y="200.0" font-family="-apple-system,BlinkMacSystemFont,'Segoe UI',Roboto,Helvetica,Arial,sans-serif" font-size="12" font-weight="700" fill="#5b21b6" text-anchor="middle" opacity="1.0" dominant-baseline="middle">patch tokens</text>
  <rect x="495.0" y="139.0" width="130.0" height="54.0" rx="12" fill="#f5f3ff" stroke="#8b5cf6" stroke-width="1.8"/>
  <text x="560.0" y="170.2" font-family="-apple-system,BlinkMacSystemFont,'Segoe UI',Roboto,Helvetica,Arial,sans-serif" font-size="12.5" font-weight="400" fill="#5b21b6" text-anchor="middle" dominant-baseline="middle">Transformer</text>
  <line x1="630.0" y1="166.0" x2="489.0" y2="166.0" stroke="#475569" stroke-width="2.0" stroke-linecap="round"/>
  <path d="M489.0,166.0 L497.2,169.7 L497.2,162.3 Z" fill="#475569"/>
  <text x="360.0" y="290.0" font-family="-apple-system,BlinkMacSystemFont,'Segoe UI',Roboto,Helvetica,Arial,sans-serif" font-size="12" font-weight="400" fill="#64748b" text-anchor="middle" opacity="1.0" dominant-baseline="middle">Treat each patch like a word: flatten to a token, add position, feed a transformer. Attention, for images.</text>
</svg>
