<svg viewBox="0 0 730 320" xmlns="http://www.w3.org/2000/svg" width="730" height="320" role="img">
  <rect x="0" y="0" width="730" height="320" fill="#ffffff"/>
  <text x="365.0" y="26.0" font-family="-apple-system,BlinkMacSystemFont,'Segoe UI',Roboto,Helvetica,Arial,sans-serif" font-size="17" font-weight="700" fill="#1f2937" text-anchor="middle" opacity="1.0" dominant-baseline="middle">Diffusion: add noise step by step, then learn to remove it</text>
  <rect x="70.0" y="100.0" width="70.0" height="70.0" rx="4" fill="#ffffff" stroke="#94a3b8" stroke-width="1.4" opacity="1.0"/>
  <circle cx="105.0" cy="135.0" r="16.0" fill="none" stroke="#10b981" stroke-width="2"/>
  <rect x="210.0" y="100.0" width="70.0" height="70.0" rx="4" fill="#ffffff" stroke="#94a3b8" stroke-width="1.4" opacity="1.0"/>
  <circle cx="248.0" cy="125.4" r="1.4" fill="#334155"/>
  <circle cx="266.4" cy="121.9" r="1.4" fill="#334155"/>
  <circle cx="245.6" cy="125.3" r="1.4" fill="#334155"/>
  <circle cx="239.8" cy="164.4" r="1.4" fill="#334155"/>
  <circle cx="220.4" cy="131.6" r="1.4" fill="#334155"/>
  <circle cx="227.9" cy="125.7" r="1.4" fill="#334155"/>
  <circle cx="275.9" cy="124.4" r="1.4" fill="#334155"/>
  <circle cx="251.7" cy="130.0" r="1.4" fill="#334155"/>
  <circle cx="259.3" cy="131.7" r="1.4" fill="#334155"/>
  <circle cx="224.6" cy="130.9" r="1.4" fill="#334155"/>
  <circle cx="239.3" cy="153.1" r="1.4" fill="#334155"/>
  <circle cx="248.9" cy="116.2" r="1.4" fill="#334155"/>
  <circle cx="255.8" cy="122.5" r="1.4" fill="#334155"/>
  <circle cx="245.7" cy="117.6" r="1.4" fill="#334155"/>
  <circle cx="239.5" cy="152.7" r="1.4" fill="#334155"/>
  <circle cx="246.0" cy="150.6" r="1.4" fill="#334155"/>
  <circle cx="260.9" cy="140.4" r="1.4" fill="#334155"/>
  <circle cx="254.0" cy="128.6" r="1.4" fill="#334155"/>
  <circle cx="252.3" cy="152.2" r="1.4" fill="#334155"/>
  <circle cx="245.0" cy="135.0" r="10.4" fill="none" stroke="#10b981" stroke-width="2"/>
  <rect x="350.0" y="100.0" width="70.0" height="70.0" rx="4" fill="#ffffff" stroke="#94a3b8" stroke-width="1.4" opacity="1.0"/>
  <circle cx="413.9" cy="138.7" r="1.4" fill="#334155"/>
  <circle cx="383.4" cy="136.4" r="1.4" fill="#334155"/>
  <circle cx="401.6" cy="165.3" r="1.4" fill="#334155"/>
  <circle cx="380.1" cy="118.3" r="1.4" fill="#334155"/>
  <circle cx="377.2" cy="108.2" r="1.4" fill="#334155"/>
  <circle cx="393.9" cy="165.5" r="1.4" fill="#334155"/>
  <circle cx="366.8" cy="151.1" r="1.4" fill="#334155"/>
  <circle cx="367.1" cy="161.6" r="1.4" fill="#334155"/>
  <circle cx="388.5" cy="127.8" r="1.4" fill="#334155"/>
  <circle cx="355.9" cy="113.6" r="1.4" fill="#334155"/>
  <circle cx="409.9" cy="115.6" r="1.4" fill="#334155"/>
  <circle cx="392.1" cy="138.6" r="1.4" fill="#334155"/>
  <circle cx="381.5" cy="148.2" r="1.4" fill="#334155"/>
  <circle cx="361.8" cy="145.6" r="1.4" fill="#334155"/>
  <circle cx="357.9" cy="117.3" r="1.4" fill="#334155"/>
  <circle cx="395.9" cy="115.8" r="1.4" fill="#334155"/>
  <circle cx="362.4" cy="134.8" r="1.4" fill="#334155"/>
  <circle cx="393.7" cy="104.3" r="1.4" fill="#334155"/>
  <circle cx="395.8" cy="140.2" r="1.4" fill="#334155"/>
  <circle cx="354.0" cy="139.2" r="1.4" fill="#334155"/>
  <circle cx="354.1" cy="138.4" r="1.4" fill="#334155"/>
  <circle cx="391.8" cy="127.9" r="1.4" fill="#334155"/>
  <circle cx="376.3" cy="153.2" r="1.4" fill="#334155"/>
  <circle cx="366.0" cy="132.8" r="1.4" fill="#334155"/>
  <circle cx="385.0" cy="106.7" r="1.4" fill="#334155"/>
  <circle cx="409.7" cy="115.2" r="1.4" fill="#334155"/>
  <circle cx="403.0" cy="133.0" r="1.4" fill="#334155"/>
  <circle cx="354.6" cy="122.8" r="1.4" fill="#334155"/>
  <circle cx="390.1" cy="132.6" r="1.4" fill="#334155"/>
  <circle cx="410.5" cy="105.8" r="1.4" fill="#334155"/>
  <circle cx="405.4" cy="157.5" r="1.4" fill="#334155"/>
  <circle cx="364.1" cy="135.5" r="1.4" fill="#334155"/>
  <circle cx="357.1" cy="139.9" r="1.4" fill="#334155"/>
  <circle cx="397.0" cy="121.9" r="1.4" fill="#334155"/>
  <circle cx="402.7" cy="119.1" r="1.4" fill="#334155"/>
  <circle cx="357.5" cy="133.9" r="1.4" fill="#334155"/>
  <circle cx="400.2" cy="122.7" r="1.4" fill="#334155"/>
  <circle cx="367.4" cy="144.6" r="1.4" fill="#334155"/>
  <rect x="490.0" y="100.0" width="70.0" height="70.0" rx="4" fill="#ffffff" stroke="#94a3b8" stroke-width="1.4" opacity="1.0"/>
  <circle cx="525.4" cy="132.1" r="1.4" fill="#334155"/>
  <circle cx="528.6" cy="127.8" r="1.4" fill="#334155"/>
  <circle cx="545.7" cy="113.9" r="1.4" fill="#334155"/>
  <circle cx="521.9" cy="151.3" r="1.4" fill="#334155"/>
  <circle cx="531.6" cy="160.2" r="1.4" fill="#334155"/>
  <circle cx="511.9" cy="126.2" r="1.4" fill="#334155"/>
  <circle cx="512.9" cy="112.2" r="1.4" fill="#334155"/>
  <circle cx="498.7" cy="135.9" r="1.4" fill="#334155"/>
  <circle cx="512.5" cy="140.0" r="1.4" fill="#334155"/>
  <circle cx="553.6" cy="165.7" r="1.4" fill="#334155"/>
  <circle cx="542.3" cy="124.5" r="1.4" fill="#334155"/>
  <circle cx="517.8" cy="159.7" r="1.4" fill="#334155"/>
  <circle cx="508.5" cy="155.1" r="1.4" fill="#334155"/>
  <circle cx="509.2" cy="131.8" r="1.4" fill="#334155"/>
  <circle cx="528.6" cy="163.5" r="1.4" fill="#334155"/>
  <circle cx="539.4" cy="156.0" r="1.4" fill="#334155"/>
  <circle cx="515.7" cy="125.7" r="1.4" fill="#334155"/>
  <circle cx="547.9" cy="140.3" r="1.4" fill="#334155"/>
  <circle cx="538.6" cy="110.1" r="1.4" fill="#334155"/>
  <circle cx="497.8" cy="130.5" r="1.4" fill="#334155"/>
  <circle cx="513.0" cy="120.5" r="1.4" fill="#334155"/>
  <circle cx="544.6" cy="161.0" r="1.4" fill="#334155"/>
  <circle cx="507.9" cy="110.2" r="1.4" fill="#334155"/>
  <circle cx="505.7" cy="115.4" r="1.4" fill="#334155"/>
  <circle cx="538.9" cy="127.7" r="1.4" fill="#334155"/>
  <circle cx="554.7" cy="105.2" r="1.4" fill="#334155"/>
  <circle cx="527.2" cy="112.2" r="1.4" fill="#334155"/>
  <circle cx="546.6" cy="127.6" r="1.4" fill="#334155"/>
  <circle cx="508.9" cy="140.1" r="1.4" fill="#334155"/>
  <circle cx="548.1" cy="104.9" r="1.4" fill="#334155"/>
  <circle cx="508.3" cy="160.0" r="1.4" fill="#334155"/>
  <circle cx="520.1" cy="110.0" r="1.4" fill="#334155"/>
  <circle cx="551.7" cy="162.7" r="1.4" fill="#334155"/>
  <circle cx="520.5" cy="116.1" r="1.4" fill="#334155"/>
  <circle cx="495.7" cy="150.0" r="1.4" fill="#334155"/>
  <circle cx="541.8" cy="149.7" r="1.4" fill="#334155"/>
  <circle cx="536.9" cy="125.9" r="1.4" fill="#334155"/>
  <circle cx="511.8" cy="139.6" r="1.4" fill="#334155"/>
  <circle cx="543.2" cy="133.2" r="1.4" fill="#334155"/>
  <circle cx="525.9" cy="128.1" r="1.4" fill="#334155"/>
  <circle cx="545.0" cy="163.3" r="1.4" fill="#334155"/>
  <circle cx="511.0" cy="163.5" r="1.4" fill="#334155"/>
  <circle cx="544.4" cy="129.1" r="1.4" fill="#334155"/>
  <circle cx="509.7" cy="146.4" r="1.4" fill="#334155"/>
  <circle cx="527.6" cy="140.6" r="1.4" fill="#334155"/>
  <circle cx="555.6" cy="164.8" r="1.4" fill="#334155"/>
  <circle cx="537.6" cy="136.1" r="1.4" fill="#334155"/>
  <circle cx="504.3" cy="108.7" r="1.4" fill="#334155"/>
  <circle cx="544.9" cy="119.8" r="1.4" fill="#334155"/>
  <circle cx="536.3" cy="122.9" r="1.4" fill="#334155"/>
  <circle cx="507.3" cy="146.4" r="1.4" fill="#334155"/>
  <circle cx="504.6" cy="108.4" r="1.4" fill="#334155"/>
  <circle cx="555.7" cy="128.7" r="1.4" fill="#334155"/>
  <circle cx="516.4" cy="153.0" r="1.4" fill="#334155"/>
  <circle cx="507.1" cy="153.2" r="1.4" fill="#334155"/>
  <circle cx="508.4" cy="149.1" r="1.4" fill="#334155"/>
  <rect x="630.0" y="100.0" width="70.0" height="70.0" rx="4" fill="#ffffff" stroke="#94a3b8" stroke-width="1.4" opacity="1.0"/>
  <circle cx="670.0" cy="116.1" r="1.4" fill="#334155"/>
  <circle cx="693.8" cy="161.3" r="1.4" fill="#334155"/>
  <circle cx="663.0" cy="145.1" r="1.4" fill="#334155"/>
  <circle cx="647.3" cy="117.7" r="1.4" fill="#334155"/>
  <circle cx="651.9" cy="146.9" r="1.4" fill="#334155"/>
  <circle cx="647.2" cy="164.2" r="1.4" fill="#334155"/>
  <circle cx="638.4" cy="116.0" r="1.4" fill="#334155"/>
  <circle cx="639.5" cy="151.7" r="1.4" fill="#334155"/>
  <circle cx="656.7" cy="133.2" r="1.4" fill="#334155"/>
  <circle cx="654.2" cy="143.5" r="1.4" fill="#334155"/>
  <circle cx="659.0" cy="116.9" r="1.4" fill="#334155"/>
  <circle cx="660.7" cy="122.9" r="1.4" fill="#334155"/>
  <circle cx="640.9" cy="155.1" r="1.4" fill="#334155"/>
  <circle cx="676.2" cy="145.2" r="1.4" fill="#334155"/>
  <circle cx="688.7" cy="128.5" r="1.4" fill="#334155"/>
  <circle cx="657.5" cy="130.2" r="1.4" fill="#334155"/>
  <circle cx="659.1" cy="145.5" r="1.4" fill="#334155"/>
  <circle cx="634.4" cy="132.8" r="1.4" fill="#334155"/>
  <circle cx="667.2" cy="125.4" r="1.4" fill="#334155"/>
  <circle cx="635.4" cy="147.7" r="1.4" fill="#334155"/>
  <circle cx="634.6" cy="139.0" r="1.4" fill="#334155"/>
  <circle cx="643.5" cy="106.1" r="1.4" fill="#334155"/>
  <circle cx="645.2" cy="108.1" r="1.4" fill="#334155"/>
  <circle cx="643.3" cy="146.5" r="1.4" fill="#334155"/>
  <circle cx="679.2" cy="126.5" r="1.4" fill="#334155"/>
  <circle cx="674.4" cy="133.5" r="1.4" fill="#334155"/>
  <circle cx="664.9" cy="158.3" r="1.4" fill="#334155"/>
  <circle cx="653.3" cy="157.9" r="1.4" fill="#334155"/>
  <circle cx="676.8" cy="146.4" r="1.4" fill="#334155"/>
  <circle cx="634.4" cy="109.2" r="1.4" fill="#334155"/>
  <circle cx="636.0" cy="125.4" r="1.4" fill="#334155"/>
  <circle cx="692.7" cy="158.3" r="1.4" fill="#334155"/>
  <circle cx="686.0" cy="111.4" r="1.4" fill="#334155"/>
  <circle cx="677.8" cy="152.0" r="1.4" fill="#334155"/>
  <circle cx="684.2" cy="153.1" r="1.4" fill="#334155"/>
  <circle cx="642.7" cy="115.1" r="1.4" fill="#334155"/>
  <circle cx="683.1" cy="149.8" r="1.4" fill="#334155"/>
  <circle cx="689.3" cy="131.7" r="1.4" fill="#334155"/>
  <circle cx="689.2" cy="112.6" r="1.4" fill="#334155"/>
  <circle cx="693.3" cy="158.8" r="1.4" fill="#334155"/>
  <circle cx="654.9" cy="108.2" r="1.4" fill="#334155"/>
  <circle cx="668.0" cy="146.7" r="1.4" fill="#334155"/>
  <circle cx="655.7" cy="107.6" r="1.4" fill="#334155"/>
  <circle cx="651.3" cy="155.1" r="1.4" fill="#334155"/>
  <circle cx="639.6" cy="162.1" r="1.4" fill="#334155"/>
  <circle cx="649.5" cy="116.7" r="1.4" fill="#334155"/>
  <circle cx="641.0" cy="164.8" r="1.4" fill="#334155"/>
  <circle cx="689.9" cy="123.8" r="1.4" fill="#334155"/>
  <circle cx="639.9" cy="144.5" r="1.4" fill="#334155"/>
  <circle cx="689.0" cy="104.8" r="1.4" fill="#334155"/>
  <circle cx="673.2" cy="157.1" r="1.4" fill="#334155"/>
  <circle cx="662.4" cy="139.3" r="1.4" fill="#334155"/>
  <circle cx="683.9" cy="118.8" r="1.4" fill="#334155"/>
  <circle cx="650.9" cy="144.9" r="1.4" fill="#334155"/>
  <circle cx="668.2" cy="137.2" r="1.4" fill="#334155"/>
  <circle cx="654.7" cy="162.1" r="1.4" fill="#334155"/>
  <circle cx="651.9" cy="146.1" r="1.4" fill="#334155"/>
  <circle cx="689.4" cy="128.8" r="1.4" fill="#334155"/>
  <circle cx="637.4" cy="117.7" r="1.4" fill="#334155"/>
  <circle cx="638.1" cy="113.2" r="1.4" fill="#334155"/>
  <circle cx="641.5" cy="125.2" r="1.4" fill="#334155"/>
  <circle cx="656.9" cy="131.7" r="1.4" fill="#334155"/>
  <circle cx="675.2" cy="146.0" r="1.4" fill="#334155"/>
  <circle cx="676.6" cy="126.6" r="1.4" fill="#334155"/>
  <circle cx="675.1" cy="138.1" r="1.4" fill="#334155"/>
  <circle cx="641.9" cy="137.8" r="1.4" fill="#334155"/>
  <circle cx="653.7" cy="145.9" r="1.4" fill="#334155"/>
  <circle cx="679.6" cy="118.9" r="1.4" fill="#334155"/>
  <circle cx="661.0" cy="132.2" r="1.4" fill="#334155"/>
  <circle cx="652.4" cy="106.5" r="1.4" fill="#334155"/>
  <line x1="150.0" y1="90.0" x2="555.0" y2="90.0" stroke="#fb7185" stroke-width="2.0" stroke-linecap="round"/>
  <path d="M555.0,90.0 L546.8,86.3 L546.8,93.7 Z" fill="#fb7185"/>
  <text x="360.0" y="78.0" font-family="-apple-system,BlinkMacSystemFont,'Segoe UI',Roboto,Helvetica,Arial,sans-serif" font-size="11.5" font-weight="700" fill="#9f1239" text-anchor="middle" opacity="1.0" dominant-baseline="middle">forward: add noise →</text>
  <line x1="555.0" y1="190.0" x2="150.0" y2="190.0" stroke="#10b981" stroke-width="2.0" stroke-linecap="round"/>
  <path d="M150.0,190.0 L158.2,193.7 L158.2,186.3 Z" fill="#10b981"/>
  <text x="360.0" y="206.0" font-family="-apple-system,BlinkMacSystemFont,'Segoe UI',Roboto,Helvetica,Arial,sans-serif" font-size="11.5" font-weight="700" fill="#065f46" text-anchor="middle" opacity="1.0" dominant-baseline="middle">← reverse: the model removes noise (denoise)</text>
  <text x="365.0" y="296.0" font-family="-apple-system,BlinkMacSystemFont,'Segoe UI',Roboto,Helvetica,Arial,sans-serif" font-size="11.5" font-weight="400" fill="#64748b" text-anchor="middle" opacity="1.0" dominant-baseline="middle">Train a model to predict the noise, then run it backward from pure noise to a fresh image — that's how it generates.</text>
</svg>
