<svg viewBox="0 0 720 340" xmlns="http://www.w3.org/2000/svg" width="720" height="340" role="img">
  <rect x="0" y="0" width="720" height="340" fill="#ffffff"/>
  <text x="360.0" y="26.0" font-family="-apple-system,BlinkMacSystemFont,'Segoe UI',Roboto,Helvetica,Arial,sans-serif" font-size="17" font-weight="700" fill="#1f2937" text-anchor="middle" opacity="1.0" dominant-baseline="middle">Why nonlinearity? Without it, stacking layers buys nothing</text>
  <rect x="32.0" y="72.0" width="300.0" height="236.0" rx="10" fill="#ffffff" stroke="#94a3b8" stroke-width="1.3" opacity="1.0"/>
  <line x1="50.0" y1="290.0" x2="300.0" y2="290.0" stroke="#475569" stroke-width="1.4" stroke-linecap="round"/>
  <line x1="50.0" y1="290.0" x2="50.0" y2="80.0" stroke="#475569" stroke-width="1.4" stroke-linecap="round"/>
  <path d="M63.8,133.6 L215.6,267.0" fill="none" stroke="#8b5cf6" stroke-width="2.4" stroke-dasharray="6 5"/>
  <circle cx="96.0" cy="244.0" r="5.2" fill="#10b981"/>
  <circle cx="188.0" cy="152.0" r="5.2" fill="#10b981"/>
  <path d="M96.0,146.8 L91.0,156.4 L101.0,156.4 Z" fill="#fb7185"/>
  <path d="M188.0,238.8 L183.0,248.4 L193.0,248.4 Z" fill="#fb7185"/>
  <text x="180.0" y="90.0" font-family="-apple-system,BlinkMacSystemFont,'Segoe UI',Roboto,Helvetica,Arial,sans-serif" font-size="12.5" font-weight="700" fill="#1f2937" text-anchor="middle" opacity="1.0" dominant-baseline="middle">linear only</text>
  <text x="180.0" y="300.0" font-family="-apple-system,BlinkMacSystemFont,'Segoe UI',Roboto,Helvetica,Arial,sans-serif" font-size="11" font-weight="400" fill="#64748b" text-anchor="middle" opacity="1.0" dominant-baseline="middle">one straight line can't split XOR</text>
  <rect x="382.0" y="72.0" width="300.0" height="236.0" rx="10" fill="#ffffff" stroke="#94a3b8" stroke-width="1.3" opacity="1.0"/>
  <line x1="400.0" y1="290.0" x2="650.0" y2="290.0" stroke="#475569" stroke-width="1.4" stroke-linecap="round"/>
  <line x1="400.0" y1="290.0" x2="400.0" y2="80.0" stroke="#475569" stroke-width="1.4" stroke-linecap="round"/>
  <path d="M418.4,198.0 L492.0,133.6 L556.4,198.0 L492.0,262.4 L418.4,198.0" fill="none" stroke="#8b5cf6" stroke-width="2.4"/>
  <circle cx="446.0" cy="244.0" r="5.2" fill="#10b981"/>
  <circle cx="538.0" cy="152.0" r="5.2" fill="#10b981"/>
  <path d="M446.0,146.8 L441.0,156.4 L451.0,156.4 Z" fill="#fb7185"/>
  <path d="M538.0,238.8 L533.0,248.4 L543.0,248.4 Z" fill="#fb7185"/>
  <text x="530.0" y="90.0" font-family="-apple-system,BlinkMacSystemFont,'Segoe UI',Roboto,Helvetica,Arial,sans-serif" font-size="12.5" font-weight="700" fill="#1f2937" text-anchor="middle" opacity="1.0" dominant-baseline="middle">with activations</text>
  <text x="530.0" y="300.0" font-family="-apple-system,BlinkMacSystemFont,'Segoe UI',Roboto,Helvetica,Arial,sans-serif" font-size="11" font-weight="400" fill="#64748b" text-anchor="middle" opacity="1.0" dominant-baseline="middle">the boundary can curve → solved</text>
</svg>
