<svg viewBox="0 0 720 400" xmlns="http://www.w3.org/2000/svg" width="720" height="400" role="img">
  <rect x="0" y="0" width="720" height="400" fill="#ffffff"/>
  <text x="360.0" y="26.0" font-family="-apple-system,BlinkMacSystemFont,'Segoe UI',Roboto,Helvetica,Arial,sans-serif" font-size="17" font-weight="700" fill="#1f2937" text-anchor="middle" opacity="1.0" dominant-baseline="middle">Common activation functions</text>
  <line x1="70.0" y1="208.0" x2="650.0" y2="208.0" stroke="#e2e8f0" stroke-width="1.2" stroke-dasharray="6 5" stroke-linecap="round"/>
  <text x="54.0" y="208.0" font-family="-apple-system,BlinkMacSystemFont,'Segoe UI',Roboto,Helvetica,Arial,sans-serif" font-size="11" font-weight="400" fill="#64748b" text-anchor="middle" opacity="1.0" dominant-baseline="middle">1</text>
  <line x1="70.0" y1="288.0" x2="650.0" y2="288.0" stroke="#e2e8f0" stroke-width="1.2" stroke-dasharray="6 5" stroke-linecap="round"/>
  <text x="54.0" y="288.0" font-family="-apple-system,BlinkMacSystemFont,'Segoe UI',Roboto,Helvetica,Arial,sans-serif" font-size="11" font-weight="400" fill="#64748b" text-anchor="middle" opacity="1.0" dominant-baseline="middle">-1</text>
  <line x1="70.0" y1="248.0" x2="650.0" y2="248.0" stroke="#475569" stroke-width="1.6" stroke-linecap="round"/>
  <line x1="360.0" y1="116.0" x2="360.0" y2="328.0" stroke="#475569" stroke-width="1.6" stroke-linecap="round"/>
  <text x="646.0" y="266.0" font-family="-apple-system,BlinkMacSystemFont,'Segoe UI',Roboto,Helvetica,Arial,sans-serif" font-size="11.5" font-weight="400" fill="#64748b" text-anchor="end" opacity="1.0" dominant-baseline="middle">input</text>
  <path d="M70.0,246.8 L73.6,246.8 L77.2,246.7 L80.9,246.7 L84.5,246.6 L88.1,246.6 L91.8,246.5 L95.4,246.4 L99.0,246.4 L102.6,246.3 L106.2,246.2 L109.9,246.1 L113.5,246.1 L117.1,246.0 L120.7,245.9 L124.4,245.8 L128.0,245.7 L131.6,245.6 L135.2,245.5 L138.9,245.4 L142.5,245.3 L146.1,245.2 L149.8,245.1 L153.4,244.9 L157.0,244.8 L160.6,244.7 L164.2,244.6 L167.9,244.4 L171.5,244.3 L175.1,244.1 L178.8,244.0 L182.4,243.8 L186.0,243.6 L189.6,243.5 L193.2,243.3 L196.9,243.1 L200.5,242.9 L204.1,242.7 L207.8,242.5 L211.4,242.3 L215.0,242.1 L218.6,241.9 L222.2,241.6 L225.9,241.4 L229.5,241.1 L233.1,240.9 L236.8,240.6 L240.4,240.4 L244.0,240.1 L247.6,239.8 L251.2,239.5 L254.9,239.2 L258.5,238.9 L262.1,238.6 L265.8,238.3 L269.4,238.0 L273.0,237.6 L276.6,237.3 L280.2,236.9 L283.9,236.6 L287.5,236.2 L291.1,235.9 L294.8,235.5 L298.4,235.1 L302.0,234.7 L305.6,234.3 L309.2,233.9 L312.9,233.5 L316.5,233.1 L320.1,232.7 L323.8,232.3 L327.4,231.9 L331.0,231.5 L334.6,231.0 L338.2,230.6 L341.9,230.2 L345.5,229.7 L349.1,229.3 L352.8,228.9 L356.4,228.4 L360.0,228.0 L363.6,227.6 L367.2,227.1 L370.9,226.7 L374.5,226.3 L378.1,225.8 L381.8,225.4 L385.4,225.0 L389.0,224.5 L392.6,224.1 L396.2,223.7 L399.9,223.3 L403.5,222.9 L407.1,222.5 L410.8,222.1 L414.4,221.7 L418.0,221.3 L421.6,220.9 L425.2,220.5 L428.9,220.1 L432.5,219.8 L436.1,219.4 L439.8,219.1 L443.4,218.7 L447.0,218.4 L450.6,218.0 L454.2,217.7 L457.9,217.4 L461.5,217.1 L465.1,216.8 L468.8,216.5 L472.4,216.2 L476.0,215.9 L479.6,215.6 L483.2,215.4 L486.9,215.1 L490.5,214.9 L494.1,214.6 L497.7,214.4 L501.4,214.1 L505.0,213.9 L508.6,213.7 L512.2,213.5 L515.9,213.3 L519.5,213.1 L523.1,212.9 L526.8,212.7 L530.4,212.5 L534.0,212.4 L537.6,212.2 L541.2,212.0 L544.9,211.9 L548.5,211.7 L552.1,211.6 L555.8,211.4 L559.4,211.3 L563.0,211.2 L566.6,211.1 L570.2,210.9 L573.9,210.8 L577.5,210.7 L581.1,210.6 L584.8,210.5 L588.4,210.4 L592.0,210.3 L595.6,210.2 L599.2,210.1 L602.9,210.0 L606.5,209.9 L610.1,209.9 L613.8,209.8 L617.4,209.7 L621.0,209.6 L624.6,209.6 L628.2,209.5 L631.9,209.4 L635.5,209.4 L639.1,209.3 L642.8,209.3 L646.4,209.2 L650.0,209.2" fill="none" stroke="#38bdf8" stroke-width="2.6"/>
  <path d="M70.0,287.9 L73.6,287.9 L77.2,287.9 L80.9,287.9 L84.5,287.9 L88.1,287.9 L91.8,287.9 L95.4,287.9 L99.0,287.9 L102.6,287.8 L106.2,287.8 L109.9,287.8 L113.5,287.8 L117.1,287.8 L120.7,287.8 L124.4,287.7 L128.0,287.7 L131.6,287.7 L135.2,287.6 L138.9,287.6 L142.5,287.6 L146.1,287.5 L149.8,287.5 L153.4,287.5 L157.0,287.4 L160.6,287.4 L164.2,287.3 L167.9,287.2 L171.5,287.2 L175.1,287.1 L178.8,287.0 L182.4,286.9 L186.0,286.8 L189.6,286.7 L193.2,286.6 L196.9,286.5 L200.5,286.3 L204.1,286.2 L207.8,286.0 L211.4,285.8 L215.0,285.7 L218.6,285.4 L222.2,285.2 L225.9,285.0 L229.5,284.7 L233.1,284.4 L236.8,284.1 L240.4,283.8 L244.0,283.4 L247.6,283.0 L251.2,282.6 L254.9,282.1 L258.5,281.6 L262.1,281.1 L265.8,280.5 L269.4,279.9 L273.0,279.3 L276.6,278.6 L280.2,277.8 L283.9,277.0 L287.5,276.2 L291.1,275.2 L294.8,274.3 L298.4,273.3 L302.0,272.2 L305.6,271.0 L309.2,269.8 L312.9,268.6 L316.5,267.3 L320.1,265.9 L323.8,264.5 L327.4,263.0 L331.0,261.5 L334.6,259.9 L338.2,258.3 L341.9,256.6 L345.5,254.9 L349.1,253.2 L352.8,251.5 L356.4,249.7 L360.0,248.0 L363.6,246.3 L367.2,244.5 L370.9,242.8 L374.5,241.1 L378.1,239.4 L381.8,237.7 L385.4,236.1 L389.0,234.5 L392.6,233.0 L396.2,231.5 L399.9,230.1 L403.5,228.7 L407.1,227.4 L410.8,226.2 L414.4,225.0 L418.0,223.8 L421.6,222.7 L425.2,221.7 L428.9,220.8 L432.5,219.8 L436.1,219.0 L439.8,218.2 L443.4,217.4 L447.0,216.7 L450.6,216.1 L454.2,215.5 L457.9,214.9 L461.5,214.4 L465.1,213.9 L468.8,213.4 L472.4,213.0 L476.0,212.6 L479.6,212.2 L483.2,211.9 L486.9,211.6 L490.5,211.3 L494.1,211.0 L497.7,210.8 L501.4,210.6 L505.0,210.3 L508.6,210.2 L512.2,210.0 L515.9,209.8 L519.5,209.7 L523.1,209.5 L526.8,209.4 L530.4,209.3 L534.0,209.2 L537.6,209.1 L541.2,209.0 L544.9,208.9 L548.5,208.8 L552.1,208.8 L555.8,208.7 L559.4,208.6 L563.0,208.6 L566.6,208.5 L570.2,208.5 L573.9,208.5 L577.5,208.4 L581.1,208.4 L584.8,208.4 L588.4,208.3 L592.0,208.3 L595.6,208.3 L599.2,208.2 L602.9,208.2 L606.5,208.2 L610.1,208.2 L613.8,208.2 L617.4,208.2 L621.0,208.1 L624.6,208.1 L628.2,208.1 L631.9,208.1 L635.5,208.1 L639.1,208.1 L642.8,208.1 L646.4,208.1 L650.0,208.1" fill="none" stroke="#f59e0b" stroke-width="2.6"/>
  <path d="M70.0,248.4 L73.6,248.4 L77.2,248.4 L80.9,248.4 L84.5,248.5 L88.1,248.5 L91.8,248.5 L95.4,248.6 L99.0,248.6 L102.6,248.6 L106.2,248.7 L109.9,248.7 L113.5,248.7 L117.1,248.8 L120.7,248.8 L124.4,248.9 L128.0,248.9 L131.6,249.0 L135.2,249.1 L138.9,249.1 L142.5,249.2 L146.1,249.3 L149.8,249.3 L153.4,249.4 L157.0,249.5 L160.6,249.6 L164.2,249.7 L167.9,249.8 L171.5,249.9 L175.1,250.0 L178.8,250.1 L182.4,250.2 L186.0,250.3 L189.6,250.4 L193.2,250.5 L196.9,250.7 L200.5,250.8 L204.1,250.9 L207.8,251.1 L211.4,251.2 L215.0,251.4 L218.6,251.5 L222.2,251.7 L225.9,251.9 L229.5,252.0 L233.1,252.2 L236.8,252.4 L240.4,252.6 L244.0,252.7 L247.6,252.9 L251.2,253.1 L254.9,253.3 L258.5,253.4 L262.1,253.6 L265.8,253.7 L269.4,253.9 L273.0,254.0 L276.6,254.2 L280.2,254.3 L283.9,254.4 L287.5,254.4 L291.1,254.5 L294.8,254.5 L298.4,254.5 L302.0,254.5 L305.6,254.5 L309.2,254.4 L312.9,254.3 L316.5,254.1 L320.1,253.9 L323.8,253.6 L327.4,253.3 L331.0,253.0 L334.6,252.6 L338.2,252.1 L341.9,251.6 L345.5,251.0 L349.1,250.3 L352.8,249.6 L356.4,248.8 L360.0,248.0 L363.6,247.1 L367.2,246.1 L370.9,245.1 L374.5,244.0 L378.1,242.8 L381.8,241.6 L385.4,240.3 L389.0,239.0 L392.6,237.6 L396.2,236.1 L399.9,234.6 L403.5,233.1 L407.1,231.5 L410.8,229.9 L414.4,228.2 L418.0,226.5 L421.6,224.8 L425.2,223.0 L428.9,221.2 L432.5,219.4 L436.1,217.6 L439.8,215.8 L443.4,213.9 L447.0,212.0 L450.6,210.1 L454.2,208.2 L457.9,206.3 L461.5,204.4 L465.1,202.5 L468.8,200.6 L472.4,198.7 L476.0,196.7 L479.6,194.8 L483.2,192.9 L486.9,191.0 L490.5,189.0 L494.1,187.1 L497.7,185.2 L501.4,183.3 L505.0,181.4 L508.6,179.5 L512.2,177.6 L515.9,175.7 L519.5,173.8 L523.1,171.9 L526.8,170.0 L530.4,168.2 L534.0,166.3 L537.6,164.4 L541.2,162.6 L544.9,160.7 L548.5,158.9 L552.1,157.0 L555.8,155.2 L559.4,153.3 L563.0,151.5 L566.6,149.7 L570.2,147.8 L573.9,146.0 L577.5,144.2 L581.1,142.4 L584.8,140.6 L588.4,138.8 L592.0,136.9 L595.6,135.1 L599.2,133.3 L602.9,131.5 L606.5,129.7 L610.1,128.0 L613.8,126.2 L617.4,124.4 L621.0,122.6 L624.6,120.8 L628.2,119.0 L631.9,117.2 L635.5,115.5 L639.1,113.7 L642.8,111.9 L646.4,110.1 L650.0,108.4" fill="none" stroke="#8b5cf6" stroke-width="2.6"/>
  <path d="M70.0,248.0 L73.6,248.0 L77.2,248.0 L80.9,248.0 L84.5,248.0 L88.1,248.0 L91.8,248.0 L95.4,248.0 L99.0,248.0 L102.6,248.0 L106.2,248.0 L109.9,248.0 L113.5,248.0 L117.1,248.0 L120.7,248.0 L124.4,248.0 L128.0,248.0 L131.6,248.0 L135.2,248.0 L138.9,248.0 L142.5,248.0 L146.1,248.0 L149.8,248.0 L153.4,248.0 L157.0,248.0 L160.6,248.0 L164.2,248.0 L167.9,248.0 L171.5,248.0 L175.1,248.0 L178.8,248.0 L182.4,248.0 L186.0,248.0 L189.6,248.0 L193.2,248.0 L196.9,248.0 L200.5,248.0 L204.1,248.0 L207.8,248.0 L211.4,248.0 L215.0,248.0 L218.6,248.0 L222.2,248.0 L225.9,248.0 L229.5,248.0 L233.1,248.0 L236.8,248.0 L240.4,248.0 L244.0,248.0 L247.6,248.0 L251.2,248.0 L254.9,248.0 L258.5,248.0 L262.1,248.0 L265.8,248.0 L269.4,248.0 L273.0,248.0 L276.6,248.0 L280.2,248.0 L283.9,248.0 L287.5,248.0 L291.1,248.0 L294.8,248.0 L298.4,248.0 L302.0,248.0 L305.6,248.0 L309.2,248.0 L312.9,248.0 L316.5,248.0 L320.1,248.0 L323.8,248.0 L327.4,248.0 L331.0,248.0 L334.6,248.0 L338.2,248.0 L341.9,248.0 L345.5,248.0 L349.1,248.0 L352.8,248.0 L356.4,248.0 L360.0,248.0 L363.6,246.2 L367.2,244.5 L370.9,242.8 L374.5,241.0 L378.1,239.2 L381.8,237.5 L385.4,235.8 L389.0,234.0 L392.6,232.2 L396.2,230.5 L399.9,228.8 L403.5,227.0 L407.1,225.2 L410.8,223.5 L414.4,221.8 L418.0,220.0 L421.6,218.2 L425.2,216.5 L428.9,214.8 L432.5,213.0 L436.1,211.2 L439.8,209.5 L443.4,207.8 L447.0,206.0 L450.6,204.2 L454.2,202.5 L457.9,200.8 L461.5,199.0 L465.1,197.2 L468.8,195.5 L472.4,193.8 L476.0,192.0 L479.6,190.2 L483.2,188.5 L486.9,186.8 L490.5,185.0 L494.1,183.2 L497.7,181.5 L501.4,179.8 L505.0,178.0 L508.6,176.2 L512.2,174.5 L515.9,172.8 L519.5,171.0 L523.1,169.2 L526.8,167.5 L530.4,165.8 L534.0,164.0 L537.6,162.2 L541.2,160.5 L544.9,158.8 L548.5,157.0 L552.1,155.2 L555.8,153.5 L559.4,151.8 L563.0,150.0 L566.6,148.2 L570.2,146.5 L573.9,144.8 L577.5,143.0 L581.1,141.2 L584.8,139.5 L588.4,137.8 L592.0,136.0 L595.6,134.2 L599.2,132.5 L602.9,130.8 L606.5,129.0 L610.1,127.2 L613.8,125.5 L617.4,123.8 L621.0,122.0 L624.6,120.3 L628.2,118.5 L631.9,116.8 L635.5,115.0 L639.1,113.2 L642.8,111.5 L646.4,109.8 L650.0,108.0" fill="none" stroke="#10b981" stroke-width="2.6"/>
  <line x1="96.0" y1="90.0" x2="126.0" y2="90.0" stroke="#10b981" stroke-width="3.4" stroke-linecap="round"/>
  <text x="132.0" y="90.0" font-family="-apple-system,BlinkMacSystemFont,'Segoe UI',Roboto,Helvetica,Arial,sans-serif" font-size="12" font-weight="700" fill="#10b981" text-anchor="start" opacity="1.0" dominant-baseline="middle">ReLU</text>
  <line x1="96.0" y1="111.0" x2="126.0" y2="111.0" stroke="#8b5cf6" stroke-width="3.4" stroke-linecap="round"/>
  <text x="132.0" y="111.0" font-family="-apple-system,BlinkMacSystemFont,'Segoe UI',Roboto,Helvetica,Arial,sans-serif" font-size="12" font-weight="700" fill="#8b5cf6" text-anchor="start" opacity="1.0" dominant-baseline="middle">GELU</text>
  <line x1="96.0" y1="132.0" x2="126.0" y2="132.0" stroke="#38bdf8" stroke-width="3.4" stroke-linecap="round"/>
  <text x="132.0" y="132.0" font-family="-apple-system,BlinkMacSystemFont,'Segoe UI',Roboto,Helvetica,Arial,sans-serif" font-size="12" font-weight="700" fill="#38bdf8" text-anchor="start" opacity="1.0" dominant-baseline="middle">sigmoid</text>
  <line x1="96.0" y1="153.0" x2="126.0" y2="153.0" stroke="#f59e0b" stroke-width="3.4" stroke-linecap="round"/>
  <text x="132.0" y="153.0" font-family="-apple-system,BlinkMacSystemFont,'Segoe UI',Roboto,Helvetica,Arial,sans-serif" font-size="12" font-weight="700" fill="#f59e0b" text-anchor="start" opacity="1.0" dominant-baseline="middle">tanh</text>
  <text x="360.0" y="376.0" font-family="-apple-system,BlinkMacSystemFont,'Segoe UI',Roboto,Helvetica,Arial,sans-serif" font-size="11.5" font-weight="400" fill="#64748b" text-anchor="middle" opacity="1.0" dominant-baseline="middle">Sigmoid &amp; tanh saturate (flatten at ±1), choking gradients; ReLU &amp; GELU keep growing for x&gt;0.</text>
</svg>
