<svg viewBox="0 0 640 360" xmlns="http://www.w3.org/2000/svg" width="640" height="360" role="img">
  <rect x="0" y="0" width="640" height="360" fill="#ffffff"/>
  <text x="320.0" y="26.0" font-family="-apple-system,BlinkMacSystemFont,'Segoe UI',Roboto,Helvetica,Arial,sans-serif" font-size="17" font-weight="700" fill="#1f2937" text-anchor="middle" opacity="1.0" dominant-baseline="middle">Optimizers: different routes down the same loss valley</text>
  <ellipse cx="440" cy="190" rx="40" ry="26" fill="none" stroke="#cbd5e1" stroke-width="1.3"/>
  <ellipse cx="440" cy="190" rx="80" ry="52" fill="none" stroke="#cbd5e1" stroke-width="1.3"/>
  <ellipse cx="440" cy="190" rx="120" ry="78" fill="none" stroke="#cbd5e1" stroke-width="1.3"/>
  <ellipse cx="440" cy="190" rx="160" ry="104" fill="none" stroke="#cbd5e1" stroke-width="1.3"/>
  <circle cx="440.0" cy="190.0" r="5" fill="#065f46"/>
  <text x="440.0" y="208.0" font-family="-apple-system,BlinkMacSystemFont,'Segoe UI',Roboto,Helvetica,Arial,sans-serif" font-size="10.5" font-weight="400" fill="#065f46" text-anchor="middle" opacity="1.0" dominant-baseline="middle">minimum</text>
  <path d="M150.0,90.0 L210.0,140.0 L180.0,175.0 L250.0,165.0 L230.0,205.0 L300.0,195.0 L290.0,225.0 L360.0,210.0 L400.0,200.0 L440.0,190.0" fill="none" stroke="#38bdf8" stroke-width="2"/>
  <path d="M150.0,90.0 L230.0,135.0 L300.0,160.0 L370.0,178.0 L430.0,184.0" fill="none" stroke="#f59e0b" stroke-width="2.2"/>
  <path d="M150.0,90.0 L250.0,120.0 L350.0,155.0 L440.0,190.0" fill="none" stroke="#8b5cf6" stroke-width="2.6"/>
  <circle cx="150.0" cy="90.0" r="5" fill="#1f2937"/>
  <text x="150.0" y="78.0" font-family="-apple-system,BlinkMacSystemFont,'Segoe UI',Roboto,Helvetica,Arial,sans-serif" font-size="10.5" font-weight="400" fill="#1f2937" text-anchor="middle" opacity="1.0" dominant-baseline="middle">start</text>
  <line x1="120.0" y1="300.0" x2="150.0" y2="300.0" stroke="#38bdf8" stroke-width="3" stroke-linecap="round"/>
  <text x="156.0" y="300.0" font-family="-apple-system,BlinkMacSystemFont,'Segoe UI',Roboto,Helvetica,Arial,sans-serif" font-size="11.5" font-weight="700" fill="#38bdf8" text-anchor="start" opacity="1.0" dominant-baseline="middle">SGD (zig-zags)</text>
  <line x1="120.0" y1="320.0" x2="150.0" y2="320.0" stroke="#f59e0b" stroke-width="3" stroke-linecap="round"/>
  <text x="156.0" y="320.0" font-family="-apple-system,BlinkMacSystemFont,'Segoe UI',Roboto,Helvetica,Arial,sans-serif" font-size="11.5" font-weight="700" fill="#f59e0b" text-anchor="start" opacity="1.0" dominant-baseline="middle">Momentum (smoother)</text>
  <line x1="120.0" y1="340.0" x2="150.0" y2="340.0" stroke="#8b5cf6" stroke-width="3" stroke-linecap="round"/>
  <text x="156.0" y="340.0" font-family="-apple-system,BlinkMacSystemFont,'Segoe UI',Roboto,Helvetica,Arial,sans-serif" font-size="11.5" font-weight="700" fill="#8b5cf6" text-anchor="start" opacity="1.0" dominant-baseline="middle">Adam (fast, adaptive)</text>
</svg>
