<svg viewBox="0 0 640 372" xmlns="http://www.w3.org/2000/svg" width="640" height="372" role="img">
  <rect x="0" y="0" width="640" height="372" fill="#ffffff"/>
  <text x="320.0" y="26.0" font-family="-apple-system,BlinkMacSystemFont,'Segoe UI',Roboto,Helvetica,Arial,sans-serif" font-size="17" font-weight="700" fill="#1f2937" text-anchor="middle" opacity="1.0" dominant-baseline="middle">Early stopping: halt when validation loss turns up</text>
  <line x1="80.0" y1="286.0" x2="580.0" y2="286.0" stroke="#475569" stroke-width="1.8" stroke-linecap="round"/>
  <line x1="80.0" y1="286.0" x2="80.0" y2="46.0" stroke="#475569" stroke-width="1.8" stroke-linecap="round"/>
  <text x="330.0" y="314.0" font-family="-apple-system,BlinkMacSystemFont,'Segoe UI',Roboto,Helvetica,Arial,sans-serif" font-size="12.5" font-weight="400" fill="#64748b" text-anchor="middle" opacity="1.0" dominant-baseline="middle">training epochs →</text>
  <text x="46.0" y="166.0" font-family="-apple-system,BlinkMacSystemFont,'Segoe UI',Roboto,Helvetica,Arial,sans-serif" font-size="12.5" fill="#64748b" text-anchor="middle" transform="rotate(-90 46.0 166.0)">loss →</text>
  <path d="M80.0,183.8 L85.4,188.2 L90.9,192.4 L96.3,196.4 L101.7,200.2 L107.2,203.9 L112.6,207.4 L118.0,210.7 L123.4,213.9 L128.9,216.9 L134.3,219.8 L139.7,222.5 L145.2,225.2 L150.6,227.7 L156.0,230.1 L161.5,232.3 L166.9,234.5 L172.3,236.6 L177.8,238.6 L183.2,240.5 L188.6,242.3 L194.1,244.0 L199.5,245.6 L204.9,247.2 L210.3,248.7 L215.8,250.1 L221.2,251.5 L226.6,252.8 L232.1,254.0 L237.5,255.2 L242.9,256.3 L248.4,257.4 L253.8,258.4 L259.2,259.4 L264.7,260.3 L270.1,261.2 L275.5,262.1 L281.0,262.9 L286.4,263.7 L291.8,264.4 L297.2,265.1 L302.7,265.8 L308.1,266.4 L313.5,267.0 L319.0,267.6 L324.4,268.2 L329.8,268.7 L335.3,269.2 L340.7,269.7 L346.1,270.2 L351.6,270.6 L357.0,271.0 L362.4,271.4 L367.8,271.8 L373.3,272.2 L378.7,272.5 L384.1,272.8 L389.6,273.2 L395.0,273.5 L400.4,273.8 L405.9,274.0 L411.3,274.3 L416.7,274.5 L422.2,274.8 L427.6,275.0 L433.0,275.2 L438.5,275.4 L443.9,275.6 L449.3,275.8 L454.7,276.0 L460.2,276.2 L465.6,276.3 L471.0,276.5 L476.5,276.6 L481.9,276.8 L487.3,276.9 L492.8,277.1 L498.2,277.2 L503.6,277.3 L509.1,277.4 L514.5,277.5 L519.9,277.6 L525.4,277.7 L530.8,277.8 L536.2,277.9 L541.6,278.0 L547.1,278.1 L552.5,278.1 L557.9,278.2 L563.4,278.3 L568.8,278.4" fill="none" stroke="#10b981" stroke-width="2.8"/>
  <path d="M80.0,191.1 L85.4,195.5 L90.9,199.6 L96.3,203.5 L101.7,207.2 L107.2,210.7 L112.6,213.9 L118.0,217.0 L123.4,219.9 L128.9,222.6 L134.3,225.1 L139.7,227.5 L145.2,229.7 L150.6,231.7 L156.0,233.6 L161.5,235.4 L166.9,237.0 L172.3,238.6 L177.8,239.9 L183.2,241.2 L188.6,242.4 L194.1,243.4 L199.5,244.3 L204.9,245.1 L210.3,245.9 L215.8,246.5 L221.2,247.0 L226.6,247.5 L232.1,247.9 L237.5,248.1 L242.9,248.3 L248.4,248.5 L253.8,248.5 L259.2,248.5 L264.7,248.4 L270.1,248.2 L275.5,247.9 L281.0,247.6 L286.4,247.2 L291.8,246.8 L297.2,246.3 L302.7,245.7 L308.1,245.1 L313.5,244.4 L319.0,243.7 L324.4,242.9 L329.8,242.1 L335.3,241.2 L340.7,240.2 L346.1,239.2 L351.6,238.2 L357.0,237.1 L362.4,235.9 L367.8,234.7 L373.3,233.5 L378.7,232.2 L384.1,230.9 L389.6,229.5 L395.0,228.1 L400.4,226.6 L405.9,225.1 L411.3,223.6 L416.7,222.0 L422.2,220.4 L427.6,218.7 L433.0,217.0 L438.5,215.2 L443.9,213.4 L449.3,211.6 L454.7,209.7 L460.2,207.8 L465.6,205.9 L471.0,203.9 L476.5,201.8 L481.9,199.8 L487.3,197.7 L492.8,195.5 L498.2,193.4 L503.6,191.2 L509.1,188.9 L514.5,186.6 L519.9,184.3 L525.4,181.9 L530.8,179.6 L536.2,177.1 L541.6,174.7 L547.1,172.2 L552.5,169.6 L557.9,167.1 L563.4,164.5 L568.8,161.8" fill="none" stroke="#fb7185" stroke-width="2.8"/>
  <line x1="263.5" y1="286.0" x2="263.5" y2="248.5" stroke="#8b5cf6" stroke-width="1.8" stroke-dasharray="6 5" stroke-linecap="round"/>
  <circle cx="263.5" cy="248.5" r="4.8" fill="#8b5cf6"/>
  <text x="568.8" y="154.8" font-family="-apple-system,BlinkMacSystemFont,'Segoe UI',Roboto,Helvetica,Arial,sans-serif" font-size="11" font-weight="700" fill="#9f1239" text-anchor="end" opacity="1.0" dominant-baseline="middle">validation</text>
  <text x="568.8" y="266.2" font-family="-apple-system,BlinkMacSystemFont,'Segoe UI',Roboto,Helvetica,Arial,sans-serif" font-size="11" font-weight="700" fill="#065f46" text-anchor="end" opacity="1.0" dominant-baseline="middle">train</text>
  <text x="320.0" y="352.0" font-family="-apple-system,BlinkMacSystemFont,'Segoe UI',Roboto,Helvetica,Arial,sans-serif" font-size="11" font-weight="400" fill="#64748b" text-anchor="middle" opacity="1.0" dominant-baseline="middle">Train loss keeps falling, but validation loss turns up — overfitting; stop at its minimum.</text>
</svg>
