<svg viewBox="0 0 700 340" xmlns="http://www.w3.org/2000/svg" width="700" height="340" role="img">
  <rect x="0" y="0" width="700" height="340" fill="#ffffff"/>
  <text x="350.0" y="26.0" font-family="-apple-system,BlinkMacSystemFont,'Segoe UI',Roboto,Helvetica,Arial,sans-serif" font-size="17" font-weight="700" fill="#1f2937" text-anchor="middle" opacity="1.0" dominant-baseline="middle">Dropout: randomly switch off neurons each training step</text>
  <text x="170.0" y="80.0" font-family="-apple-system,BlinkMacSystemFont,'Segoe UI',Roboto,Helvetica,Arial,sans-serif" font-size="12.5" font-weight="700" fill="#1f2937" text-anchor="middle" opacity="1.0" dominant-baseline="middle">full network (test time)</text>
  <line x1="73.0" y1="110.0" x2="157.0" y2="95.0" stroke="#d7def0" stroke-width="1.1" stroke-linecap="round"/>
  <line x1="73.0" y1="110.0" x2="157.0" y2="150.0" stroke="#d7def0" stroke-width="1.1" stroke-linecap="round"/>
  <line x1="73.0" y1="110.0" x2="157.0" y2="205.0" stroke="#d7def0" stroke-width="1.1" stroke-linecap="round"/>
  <line x1="73.0" y1="110.0" x2="157.0" y2="260.0" stroke="#d7def0" stroke-width="1.1" stroke-linecap="round"/>
  <line x1="73.0" y1="175.0" x2="157.0" y2="95.0" stroke="#d7def0" stroke-width="1.1" stroke-linecap="round"/>
  <line x1="73.0" y1="175.0" x2="157.0" y2="150.0" stroke="#d7def0" stroke-width="1.1" stroke-linecap="round"/>
  <line x1="73.0" y1="175.0" x2="157.0" y2="205.0" stroke="#d7def0" stroke-width="1.1" stroke-linecap="round"/>
  <line x1="73.0" y1="175.0" x2="157.0" y2="260.0" stroke="#d7def0" stroke-width="1.1" stroke-linecap="round"/>
  <line x1="73.0" y1="240.0" x2="157.0" y2="95.0" stroke="#d7def0" stroke-width="1.1" stroke-linecap="round"/>
  <line x1="73.0" y1="240.0" x2="157.0" y2="150.0" stroke="#d7def0" stroke-width="1.1" stroke-linecap="round"/>
  <line x1="73.0" y1="240.0" x2="157.0" y2="205.0" stroke="#d7def0" stroke-width="1.1" stroke-linecap="round"/>
  <line x1="73.0" y1="240.0" x2="157.0" y2="260.0" stroke="#d7def0" stroke-width="1.1" stroke-linecap="round"/>
  <line x1="183.0" y1="95.0" x2="267.0" y2="150.0" stroke="#d7def0" stroke-width="1.1" stroke-linecap="round"/>
  <line x1="183.0" y1="95.0" x2="267.0" y2="205.0" stroke="#d7def0" stroke-width="1.1" stroke-linecap="round"/>
  <line x1="183.0" y1="150.0" x2="267.0" y2="150.0" stroke="#d7def0" stroke-width="1.1" stroke-linecap="round"/>
  <line x1="183.0" y1="150.0" x2="267.0" y2="205.0" stroke="#d7def0" stroke-width="1.1" stroke-linecap="round"/>
  <line x1="183.0" y1="205.0" x2="267.0" y2="150.0" stroke="#d7def0" stroke-width="1.1" stroke-linecap="round"/>
  <line x1="183.0" y1="205.0" x2="267.0" y2="205.0" stroke="#d7def0" stroke-width="1.1" stroke-linecap="round"/>
  <line x1="183.0" y1="260.0" x2="267.0" y2="150.0" stroke="#d7def0" stroke-width="1.1" stroke-linecap="round"/>
  <line x1="183.0" y1="260.0" x2="267.0" y2="205.0" stroke="#d7def0" stroke-width="1.1" stroke-linecap="round"/>
  <circle cx="60.0" cy="110.0" r="13.0" fill="#fff" stroke="#38bdf8" stroke-width="2"/>
  <circle cx="60.0" cy="175.0" r="13.0" fill="#fff" stroke="#38bdf8" stroke-width="2"/>
  <circle cx="60.0" cy="240.0" r="13.0" fill="#fff" stroke="#38bdf8" stroke-width="2"/>
  <circle cx="170.0" cy="95.0" r="13.0" fill="#fff" stroke="#6366f1" stroke-width="2"/>
  <circle cx="170.0" cy="150.0" r="13.0" fill="#fff" stroke="#6366f1" stroke-width="2"/>
  <circle cx="170.0" cy="205.0" r="13.0" fill="#fff" stroke="#6366f1" stroke-width="2"/>
  <circle cx="170.0" cy="260.0" r="13.0" fill="#fff" stroke="#6366f1" stroke-width="2"/>
  <circle cx="280.0" cy="150.0" r="13.0" fill="#fff" stroke="#fb7185" stroke-width="2"/>
  <circle cx="280.0" cy="205.0" r="13.0" fill="#fff" stroke="#fb7185" stroke-width="2"/>
  <text x="510.0" y="80.0" font-family="-apple-system,BlinkMacSystemFont,'Segoe UI',Roboto,Helvetica,Arial,sans-serif" font-size="12.5" font-weight="700" fill="#1f2937" text-anchor="middle" opacity="1.0" dominant-baseline="middle">during training (dropout)</text>
  <line x1="413.0" y1="110.0" x2="497.0" y2="95.0" stroke="#d7def0" stroke-width="1.1" stroke-linecap="round"/>
  <line x1="413.0" y1="110.0" x2="497.0" y2="150.0" stroke="#eef1f7" stroke-width="1.1" stroke-linecap="round"/>
  <line x1="413.0" y1="110.0" x2="497.0" y2="205.0" stroke="#d7def0" stroke-width="1.1" stroke-linecap="round"/>
  <line x1="413.0" y1="110.0" x2="497.0" y2="260.0" stroke="#eef1f7" stroke-width="1.1" stroke-linecap="round"/>
  <line x1="413.0" y1="175.0" x2="497.0" y2="95.0" stroke="#d7def0" stroke-width="1.1" stroke-linecap="round"/>
  <line x1="413.0" y1="175.0" x2="497.0" y2="150.0" stroke="#eef1f7" stroke-width="1.1" stroke-linecap="round"/>
  <line x1="413.0" y1="175.0" x2="497.0" y2="205.0" stroke="#d7def0" stroke-width="1.1" stroke-linecap="round"/>
  <line x1="413.0" y1="175.0" x2="497.0" y2="260.0" stroke="#eef1f7" stroke-width="1.1" stroke-linecap="round"/>
  <line x1="413.0" y1="240.0" x2="497.0" y2="95.0" stroke="#d7def0" stroke-width="1.1" stroke-linecap="round"/>
  <line x1="413.0" y1="240.0" x2="497.0" y2="150.0" stroke="#eef1f7" stroke-width="1.1" stroke-linecap="round"/>
  <line x1="413.0" y1="240.0" x2="497.0" y2="205.0" stroke="#d7def0" stroke-width="1.1" stroke-linecap="round"/>
  <line x1="413.0" y1="240.0" x2="497.0" y2="260.0" stroke="#eef1f7" stroke-width="1.1" stroke-linecap="round"/>
  <line x1="523.0" y1="95.0" x2="607.0" y2="150.0" stroke="#d7def0" stroke-width="1.1" stroke-linecap="round"/>
  <line x1="523.0" y1="95.0" x2="607.0" y2="205.0" stroke="#d7def0" stroke-width="1.1" stroke-linecap="round"/>
  <line x1="523.0" y1="150.0" x2="607.0" y2="150.0" stroke="#eef1f7" stroke-width="1.1" stroke-linecap="round"/>
  <line x1="523.0" y1="150.0" x2="607.0" y2="205.0" stroke="#eef1f7" stroke-width="1.1" stroke-linecap="round"/>
  <line x1="523.0" y1="205.0" x2="607.0" y2="150.0" stroke="#d7def0" stroke-width="1.1" stroke-linecap="round"/>
  <line x1="523.0" y1="205.0" x2="607.0" y2="205.0" stroke="#d7def0" stroke-width="1.1" stroke-linecap="round"/>
  <line x1="523.0" y1="260.0" x2="607.0" y2="150.0" stroke="#eef1f7" stroke-width="1.1" stroke-linecap="round"/>
  <line x1="523.0" y1="260.0" x2="607.0" y2="205.0" stroke="#eef1f7" stroke-width="1.1" stroke-linecap="round"/>
  <circle cx="400.0" cy="110.0" r="13.0" fill="#fff" stroke="#38bdf8" stroke-width="2"/>
  <circle cx="400.0" cy="175.0" r="13.0" fill="#fff" stroke="#38bdf8" stroke-width="2"/>
  <circle cx="400.0" cy="240.0" r="13.0" fill="#fff" stroke="#38bdf8" stroke-width="2"/>
  <circle cx="510.0" cy="95.0" r="13.0" fill="#fff" stroke="#6366f1" stroke-width="2"/>
  <circle cx="510.0" cy="150.0" r="13.0" fill="#fff" stroke="#e2e8f0" stroke-width="2"/>
  <line x1="503.0" y1="143.0" x2="517.0" y2="157.0" stroke="#94a3b8" stroke-width="2" stroke-linecap="round"/>
  <line x1="503.0" y1="157.0" x2="517.0" y2="143.0" stroke="#94a3b8" stroke-width="2" stroke-linecap="round"/>
  <circle cx="510.0" cy="205.0" r="13.0" fill="#fff" stroke="#6366f1" stroke-width="2"/>
  <circle cx="510.0" cy="260.0" r="13.0" fill="#fff" stroke="#e2e8f0" stroke-width="2"/>
  <line x1="503.0" y1="253.0" x2="517.0" y2="267.0" stroke="#94a3b8" stroke-width="2" stroke-linecap="round"/>
  <line x1="503.0" y1="267.0" x2="517.0" y2="253.0" stroke="#94a3b8" stroke-width="2" stroke-linecap="round"/>
  <circle cx="620.0" cy="150.0" r="13.0" fill="#fff" stroke="#fb7185" stroke-width="2"/>
  <circle cx="620.0" cy="205.0" r="13.0" fill="#fff" stroke="#fb7185" stroke-width="2"/>
  <text x="350.0" y="322.0" font-family="-apple-system,BlinkMacSystemFont,'Segoe UI',Roboto,Helvetica,Arial,sans-serif" font-size="11" font-weight="400" fill="#64748b" text-anchor="middle" opacity="1.0" dominant-baseline="middle">each step trains a different thinned network → neurons can't co-depend → less overfitting</text>
</svg>
