<svg viewBox="0 0 720 330" xmlns="http://www.w3.org/2000/svg" width="720" height="330" role="img">
  <rect x="0" y="0" width="720" height="330" fill="#ffffff"/>
  <text x="360.0" y="26.0" font-family="-apple-system,BlinkMacSystemFont,'Segoe UI',Roboto,Helvetica,Arial,sans-serif" font-size="17" font-weight="700" fill="#1f2937" text-anchor="middle" opacity="1.0" dominant-baseline="middle">An RNN unrolled: one shared cell carries a hidden state through time</text>
  <rect x="41.0" y="128.0" width="58.0" height="44.0" rx="12" fill="#f8fafc" stroke="#cbd5e1" stroke-width="1.8"/>
  <text x="70.0" y="154.4" font-family="-apple-system,BlinkMacSystemFont,'Segoe UI',Roboto,Helvetica,Arial,sans-serif" font-size="13" font-weight="400" fill="#475569" text-anchor="middle" dominant-baseline="middle">h₀</text>
  <rect x="162.0" y="120.0" width="96.0" height="60.0" rx="12" fill="#eef2ff" stroke="#6366f1" stroke-width="1.8"/>
  <text x="210.0" y="145.9" font-family="-apple-system,BlinkMacSystemFont,'Segoe UI',Roboto,Helvetica,Arial,sans-serif" font-size="12.5" font-weight="400" fill="#312e81" text-anchor="middle" dominant-baseline="middle">RNN</text>
  <text x="210.0" y="162.6" font-family="-apple-system,BlinkMacSystemFont,'Segoe UI',Roboto,Helvetica,Arial,sans-serif" font-size="12.5" font-weight="400" fill="#312e81" text-anchor="middle" dominant-baseline="middle">cell</text>
  <rect x="181.0" y="238.0" width="58.0" height="44.0" rx="12" fill="#f0f9ff" stroke="#38bdf8" stroke-width="1.8"/>
  <text x="210.0" y="264.4" font-family="-apple-system,BlinkMacSystemFont,'Segoe UI',Roboto,Helvetica,Arial,sans-serif" font-size="13" font-weight="400" fill="#075985" text-anchor="middle" dominant-baseline="middle">x₁</text>
  <rect x="181.0" y="29.0" width="58.0" height="42.0" rx="12" fill="#fff1f3" stroke="#fb7185" stroke-width="1.8"/>
  <text x="210.0" y="54.4" font-family="-apple-system,BlinkMacSystemFont,'Segoe UI',Roboto,Helvetica,Arial,sans-serif" font-size="13" font-weight="400" fill="#9f1239" text-anchor="middle" dominant-baseline="middle">ŷ₁</text>
  <line x1="210.0" y1="238.0" x2="210.0" y2="180.0" stroke="#475569" stroke-width="2.0" stroke-linecap="round"/>
  <path d="M210.0,180.0 L205.9,189.1 L214.1,189.1 Z" fill="#475569"/>
  <line x1="210.0" y1="120.0" x2="210.0" y2="71.0" stroke="#475569" stroke-width="2.0" stroke-linecap="round"/>
  <path d="M210.0,71.0 L205.9,80.1 L214.1,80.1 Z" fill="#475569"/>
  <rect x="352.0" y="120.0" width="96.0" height="60.0" rx="12" fill="#eef2ff" stroke="#6366f1" stroke-width="1.8"/>
  <text x="400.0" y="145.9" font-family="-apple-system,BlinkMacSystemFont,'Segoe UI',Roboto,Helvetica,Arial,sans-serif" font-size="12.5" font-weight="400" fill="#312e81" text-anchor="middle" dominant-baseline="middle">RNN</text>
  <text x="400.0" y="162.6" font-family="-apple-system,BlinkMacSystemFont,'Segoe UI',Roboto,Helvetica,Arial,sans-serif" font-size="12.5" font-weight="400" fill="#312e81" text-anchor="middle" dominant-baseline="middle">cell</text>
  <rect x="371.0" y="238.0" width="58.0" height="44.0" rx="12" fill="#f0f9ff" stroke="#38bdf8" stroke-width="1.8"/>
  <text x="400.0" y="264.4" font-family="-apple-system,BlinkMacSystemFont,'Segoe UI',Roboto,Helvetica,Arial,sans-serif" font-size="13" font-weight="400" fill="#075985" text-anchor="middle" dominant-baseline="middle">x₂</text>
  <rect x="371.0" y="29.0" width="58.0" height="42.0" rx="12" fill="#fff1f3" stroke="#fb7185" stroke-width="1.8"/>
  <text x="400.0" y="54.4" font-family="-apple-system,BlinkMacSystemFont,'Segoe UI',Roboto,Helvetica,Arial,sans-serif" font-size="13" font-weight="400" fill="#9f1239" text-anchor="middle" dominant-baseline="middle">ŷ₂</text>
  <line x1="400.0" y1="238.0" x2="400.0" y2="180.0" stroke="#475569" stroke-width="2.0" stroke-linecap="round"/>
  <path d="M400.0,180.0 L395.9,189.1 L404.1,189.1 Z" fill="#475569"/>
  <line x1="400.0" y1="120.0" x2="400.0" y2="71.0" stroke="#475569" stroke-width="2.0" stroke-linecap="round"/>
  <path d="M400.0,71.0 L395.9,80.1 L404.1,80.1 Z" fill="#475569"/>
  <rect x="542.0" y="120.0" width="96.0" height="60.0" rx="12" fill="#eef2ff" stroke="#6366f1" stroke-width="1.8"/>
  <text x="590.0" y="145.9" font-family="-apple-system,BlinkMacSystemFont,'Segoe UI',Roboto,Helvetica,Arial,sans-serif" font-size="12.5" font-weight="400" fill="#312e81" text-anchor="middle" dominant-baseline="middle">RNN</text>
  <text x="590.0" y="162.6" font-family="-apple-system,BlinkMacSystemFont,'Segoe UI',Roboto,Helvetica,Arial,sans-serif" font-size="12.5" font-weight="400" fill="#312e81" text-anchor="middle" dominant-baseline="middle">cell</text>
  <rect x="561.0" y="238.0" width="58.0" height="44.0" rx="12" fill="#f0f9ff" stroke="#38bdf8" stroke-width="1.8"/>
  <text x="590.0" y="264.4" font-family="-apple-system,BlinkMacSystemFont,'Segoe UI',Roboto,Helvetica,Arial,sans-serif" font-size="13" font-weight="400" fill="#075985" text-anchor="middle" dominant-baseline="middle">x₃</text>
  <rect x="561.0" y="29.0" width="58.0" height="42.0" rx="12" fill="#fff1f3" stroke="#fb7185" stroke-width="1.8"/>
  <text x="590.0" y="54.4" font-family="-apple-system,BlinkMacSystemFont,'Segoe UI',Roboto,Helvetica,Arial,sans-serif" font-size="13" font-weight="400" fill="#9f1239" text-anchor="middle" dominant-baseline="middle">ŷ₃</text>
  <line x1="590.0" y1="238.0" x2="590.0" y2="180.0" stroke="#475569" stroke-width="2.0" stroke-linecap="round"/>
  <path d="M590.0,180.0 L585.9,189.1 L594.1,189.1 Z" fill="#475569"/>
  <line x1="590.0" y1="120.0" x2="590.0" y2="71.0" stroke="#475569" stroke-width="2.0" stroke-linecap="round"/>
  <path d="M590.0,71.0 L585.9,80.1 L594.1,80.1 Z" fill="#475569"/>
  <line x1="99.0" y1="150.0" x2="162.0" y2="150.0" stroke="#475569" stroke-width="2.0" stroke-linecap="round"/>
  <path d="M162.0,150.0 L152.9,145.9 L152.9,154.1 Z" fill="#475569"/>
  <rect x="122.3" y="134.2" width="16.4" height="17.1" rx="5" fill="#ffffff" opacity="0.92"/>
  <text x="130.5" y="143.0" font-family="-apple-system,BlinkMacSystemFont,'Segoe UI',Roboto,Helvetica,Arial,sans-serif" font-size="11" fill="#475569" text-anchor="middle" dominant-baseline="middle">h</text>
  <line x1="258.0" y1="150.0" x2="352.0" y2="150.0" stroke="#475569" stroke-width="2.0" stroke-linecap="round"/>
  <path d="M352.0,150.0 L342.9,145.9 L342.9,154.1 Z" fill="#475569"/>
  <rect x="293.6" y="134.2" width="22.8" height="17.1" rx="5" fill="#ffffff" opacity="0.92"/>
  <text x="305.0" y="143.0" font-family="-apple-system,BlinkMacSystemFont,'Segoe UI',Roboto,Helvetica,Arial,sans-serif" font-size="11" fill="#475569" text-anchor="middle" dominant-baseline="middle">h₁</text>
  <line x1="448.0" y1="150.0" x2="542.0" y2="150.0" stroke="#475569" stroke-width="2.0" stroke-linecap="round"/>
  <path d="M542.0,150.0 L532.9,145.9 L532.9,154.1 Z" fill="#475569"/>
  <rect x="483.6" y="134.2" width="22.8" height="17.1" rx="5" fill="#ffffff" opacity="0.92"/>
  <text x="495.0" y="143.0" font-family="-apple-system,BlinkMacSystemFont,'Segoe UI',Roboto,Helvetica,Arial,sans-serif" font-size="11" fill="#475569" text-anchor="middle" dominant-baseline="middle">h₂</text>
  <text x="400.0" y="306.0" font-family="-apple-system,BlinkMacSystemFont,'Segoe UI',Roboto,Helvetica,Arial,sans-serif" font-size="11" font-weight="400" fill="#64748b" text-anchor="middle" opacity="1.0" dominant-baseline="middle">same weights at every step (shared); the hidden state h is the network's memory of the past</text>
</svg>
