<svg viewBox="0 0 760 320" xmlns="http://www.w3.org/2000/svg" width="760" height="320" role="img">
  <rect x="0" y="0" width="760" height="320" fill="#ffffff"/>
  <text x="380.0" y="26.0" font-family="-apple-system,BlinkMacSystemFont,'Segoe UI',Roboto,Helvetica,Arial,sans-serif" font-size="17" font-weight="700" fill="#1f2937" text-anchor="middle" opacity="1.0" dominant-baseline="middle">Reading loss curves like an X-ray</text>
  <rect x="18.0" y="70.0" width="170.0" height="210.0" rx="10" fill="#fff" stroke="#94a3b8" stroke-width="1.3" opacity="1.0"/>
  <line x1="32.0" y1="250.0" x2="162.0" y2="250.0" stroke="#475569" stroke-width="1.3" stroke-linecap="round"/>
  <line x1="32.0" y1="250.0" x2="32.0" y2="90.0" stroke="#475569" stroke-width="1.3" stroke-linecap="round"/>
  <path d="M32.0,145.3 L35.3,152.6 L38.7,159.4 L42.0,165.6 L45.3,171.4 L48.7,176.6 L52.0,181.5 L55.3,186.0 L58.6,190.1 L62.0,193.9 L65.3,197.3 L68.6,200.5 L72.0,203.5 L75.3,206.2 L78.6,208.7 L81.9,211.0 L85.3,213.1 L88.6,215.0 L91.9,216.8 L95.3,218.5 L98.6,220.0 L101.9,221.4 L105.3,222.6 L108.6,223.8 L111.9,224.9 L115.2,225.9 L118.6,226.8 L121.9,227.7 L125.2,228.4 L128.6,229.2 L131.9,229.8 L135.2,230.4 L138.6,231.0 L141.9,231.5 L145.2,232.0 L148.6,232.4 L151.9,232.8 L155.2,233.2 L158.5,233.5 L161.9,233.8 L165.2,234.1" fill="none" stroke="#10b981" stroke-width="2.2"/>
  <path d="M32.0,135.4 L35.3,142.3 L38.7,148.8 L42.0,154.7 L45.3,160.3 L48.7,165.4 L52.0,170.2 L55.3,174.6 L58.6,178.7 L62.0,182.6 L65.3,186.1 L68.6,189.4 L72.0,192.5 L75.3,195.3 L78.6,198.0 L81.9,200.4 L85.3,202.7 L88.6,204.8 L91.9,206.8 L95.3,208.6 L98.6,210.3 L101.9,211.9 L105.3,213.3 L108.6,214.7 L111.9,215.9 L115.2,217.1 L118.6,218.2 L121.9,219.2 L125.2,220.2 L128.6,221.0 L131.9,221.8 L135.2,222.6 L138.6,223.3 L141.9,223.9 L145.2,224.5 L148.6,225.1 L151.9,225.6 L155.2,226.1 L158.5,226.5 L161.9,227.0 L165.2,227.3" fill="none" stroke="#fb7185" stroke-width="2.2"/>
  <text x="103.0" y="86.0" font-family="-apple-system,BlinkMacSystemFont,'Segoe UI',Roboto,Helvetica,Arial,sans-serif" font-size="12" font-weight="700" fill="#1f2937" text-anchor="middle" opacity="1.0" dominant-baseline="middle">healthy</text>
  <rect x="206.0" y="70.0" width="170.0" height="210.0" rx="10" fill="#fff" stroke="#94a3b8" stroke-width="1.3" opacity="1.0"/>
  <line x1="220.0" y1="250.0" x2="350.0" y2="250.0" stroke="#475569" stroke-width="1.3" stroke-linecap="round"/>
  <line x1="220.0" y1="250.0" x2="220.0" y2="90.0" stroke="#475569" stroke-width="1.3" stroke-linecap="round"/>
  <path d="M220.0,154.7 L223.3,163.4 L226.7,171.3 L230.0,178.4 L233.3,184.9 L236.7,190.7 L240.0,195.9 L243.3,200.7 L246.6,204.9 L250.0,208.8 L253.3,212.3 L256.6,215.5 L260.0,218.3 L263.3,220.9 L266.6,223.2 L269.9,225.3 L273.3,227.2 L276.6,228.9 L279.9,230.5 L283.3,231.9 L286.6,233.2 L289.9,234.3 L293.3,235.3 L296.6,236.3 L299.9,237.1 L303.2,237.9 L306.6,238.6 L309.9,239.2 L313.2,239.7 L316.6,240.2 L319.9,240.7 L323.2,241.1 L326.6,241.5 L329.9,241.8 L333.2,242.1 L336.6,242.4 L339.9,242.6 L343.2,242.9 L346.5,243.1 L349.9,243.3 L353.2,243.4" fill="none" stroke="#10b981" stroke-width="2.2"/>
  <path d="M220.0,144.9 L223.3,155.2 L226.7,164.5 L230.0,172.7 L233.3,180.1 L236.7,186.6 L240.0,192.4 L243.3,197.5 L246.6,201.9 L250.0,205.8 L253.3,209.2 L256.6,212.0 L260.0,214.4 L263.3,216.4 L266.6,218.0 L269.9,219.2 L273.3,220.1 L276.6,220.6 L279.9,220.9 L283.3,220.8 L286.6,220.5 L289.9,219.9 L293.3,219.1 L296.6,218.1 L299.9,216.8 L303.2,215.3 L306.6,213.6 L309.9,211.7 L313.2,209.6 L316.6,207.3 L319.9,204.8 L323.2,202.1 L326.6,199.3 L329.9,196.3 L333.2,193.1 L336.6,189.7 L339.9,186.2 L343.2,182.5 L346.5,178.7 L349.9,174.7 L353.2,170.5" fill="none" stroke="#fb7185" stroke-width="2.2"/>
  <text x="291.0" y="86.0" font-family="-apple-system,BlinkMacSystemFont,'Segoe UI',Roboto,Helvetica,Arial,sans-serif" font-size="12" font-weight="700" fill="#1f2937" text-anchor="middle" opacity="1.0" dominant-baseline="middle">overfitting</text>
  <rect x="394.0" y="70.0" width="170.0" height="210.0" rx="10" fill="#fff" stroke="#94a3b8" stroke-width="1.3" opacity="1.0"/>
  <line x1="408.0" y1="250.0" x2="538.0" y2="250.0" stroke="#475569" stroke-width="1.3" stroke-linecap="round"/>
  <line x1="408.0" y1="250.0" x2="408.0" y2="90.0" stroke="#475569" stroke-width="1.3" stroke-linecap="round"/>
  <path d="M408.0,224.8 L417.0,194.0 L426.0,185.0 L435.0,206.7 L444.0,205.4 L453.0,180.5 L462.0,188.6 L471.0,224.0 L480.0,185.2 L489.0,174.9 L498.0,203.0 L507.0,199.9 L516.0,169.9 L525.0,181.0 L534.0,222.8 L543.0,176.2" fill="none" stroke="#fb7185" stroke-width="2.2"/>
  <text x="479.0" y="86.0" font-family="-apple-system,BlinkMacSystemFont,'Segoe UI',Roboto,Helvetica,Arial,sans-serif" font-size="12" font-weight="700" fill="#1f2937" text-anchor="middle" opacity="1.0" dominant-baseline="middle">LR too high</text>
  <rect x="582.0" y="70.0" width="170.0" height="210.0" rx="10" fill="#fff" stroke="#94a3b8" stroke-width="1.3" opacity="1.0"/>
  <line x1="596.0" y1="250.0" x2="726.0" y2="250.0" stroke="#475569" stroke-width="1.3" stroke-linecap="round"/>
  <line x1="596.0" y1="250.0" x2="596.0" y2="90.0" stroke="#475569" stroke-width="1.3" stroke-linecap="round"/>
  <path d="M596.0,176.6 L599.3,176.7 L602.7,176.8 L606.0,176.9 L609.3,177.0 L612.6,177.1 L616.0,177.2 L619.3,177.3 L622.6,177.3 L626.0,177.4 L629.3,177.5 L632.6,177.5 L636.0,177.6 L639.3,177.6 L642.6,177.7 L646.0,177.7 L649.3,177.8 L652.6,177.8 L655.9,177.9 L659.3,177.9 L662.6,177.9 L665.9,178.0 L669.3,178.0 L672.6,178.0 L675.9,178.1 L679.2,178.1 L682.6,178.1 L685.9,178.2 L689.2,178.2 L692.6,178.2 L695.9,178.2 L699.2,178.2 L702.6,178.3 L705.9,178.3 L709.2,178.3 L712.5,178.3 L715.9,178.3 L719.2,178.3 L722.5,178.4 L725.9,178.4 L729.2,178.4" fill="none" stroke="#10b981" stroke-width="2.2"/>
  <path d="M596.0,170.3 L599.3,170.4 L602.7,170.5 L606.0,170.6 L609.3,170.7 L612.6,170.8 L616.0,170.9 L619.3,171.0 L622.6,171.0 L626.0,171.1 L629.3,171.2 L632.6,171.2 L636.0,171.3 L639.3,171.3 L642.6,171.4 L646.0,171.4 L649.3,171.5 L652.6,171.5 L655.9,171.6 L659.3,171.6 L662.6,171.6 L665.9,171.7 L669.3,171.7 L672.6,171.7 L675.9,171.8 L679.2,171.8 L682.6,171.8 L685.9,171.9 L689.2,171.9 L692.6,171.9 L695.9,171.9 L699.2,171.9 L702.6,172.0 L705.9,172.0 L709.2,172.0 L712.5,172.0 L715.9,172.0 L719.2,172.0 L722.5,172.1 L725.9,172.1 L729.2,172.1" fill="none" stroke="#fb7185" stroke-width="2.2"/>
  <text x="667.0" y="86.0" font-family="-apple-system,BlinkMacSystemFont,'Segoe UI',Roboto,Helvetica,Arial,sans-serif" font-size="12" font-weight="700" fill="#1f2937" text-anchor="middle" opacity="1.0" dominant-baseline="middle">underfitting</text>
  <text x="380.0" y="300.0" font-family="-apple-system,BlinkMacSystemFont,'Segoe UI',Roboto,Helvetica,Arial,sans-serif" font-size="10.6" font-weight="400" fill="#64748b" text-anchor="middle" opacity="1.0" dominant-baseline="middle">train = green, validation = red · gap → overfit · both high → underfit · spikes → lower the learning rate</text>
</svg>
