<svg viewBox="0 0 660 352" xmlns="http://www.w3.org/2000/svg" width="660" height="352" role="img">
  <rect x="0" y="0" width="660" height="352" fill="#ffffff"/>
  <text x="330.0" y="26.0" font-family="-apple-system,BlinkMacSystemFont,'Segoe UI',Roboto,Helvetica,Arial,sans-serif" font-size="17" font-weight="700" fill="#1f2937" text-anchor="middle" opacity="1.0" dominant-baseline="middle">Emergence: some abilities appear suddenly with scale</text>
  <line x1="90.0" y1="280.0" x2="570.0" y2="280.0" stroke="#475569" stroke-width="1.8" stroke-linecap="round"/>
  <line x1="90.0" y1="280.0" x2="90.0" y2="70.0" stroke="#475569" stroke-width="1.8" stroke-linecap="round"/>
  <text x="330.0" y="308.0" font-family="-apple-system,BlinkMacSystemFont,'Segoe UI',Roboto,Helvetica,Arial,sans-serif" font-size="12.5" font-weight="400" fill="#64748b" text-anchor="middle" opacity="1.0" dominant-baseline="middle">model scale →</text>
  <text x="56.0" y="175.0" font-family="-apple-system,BlinkMacSystemFont,'Segoe UI',Roboto,Helvetica,Arial,sans-serif" font-size="12.5" fill="#64748b" text-anchor="middle" transform="rotate(-90 56.0 175.0)">task accuracy →</text>
  <path d="M90.0,280.0 L95.1,280.0 L100.2,280.0 L105.3,280.0 L110.4,280.0 L115.6,280.0 L120.7,279.9 L125.8,279.9 L130.9,279.9 L136.0,279.9 L141.1,279.9 L146.2,279.9 L151.3,279.9 L156.4,279.8 L161.6,279.8 L166.7,279.8 L171.8,279.7 L176.9,279.7 L182.0,279.6 L187.1,279.5 L192.2,279.5 L197.3,279.4 L202.4,279.3 L207.6,279.1 L212.7,279.0 L217.8,278.8 L222.9,278.6 L228.0,278.3 L233.1,278.0 L238.2,277.6 L243.3,277.2 L248.4,276.7 L253.6,276.1 L258.7,275.4 L263.8,274.6 L268.9,273.7 L274.0,272.6 L279.1,271.3 L284.2,269.8 L289.3,268.1 L294.4,266.1 L299.6,263.8 L304.7,261.1 L309.8,258.1 L314.9,254.7 L320.0,250.9 L325.1,246.7 L330.2,241.9 L335.3,236.7 L340.4,231.1 L345.6,225.0 L350.7,218.6 L355.8,211.8 L360.9,204.8 L366.0,197.6 L371.1,190.4 L376.2,183.2 L381.3,176.2 L386.4,169.3 L391.6,162.8 L396.7,156.7 L401.8,151.0 L406.9,145.7 L412.0,140.9 L417.1,136.6 L422.2,132.7 L427.3,129.3 L432.4,126.2 L437.6,123.5 L442.7,121.2 L447.8,119.1 L452.9,117.4 L458.0,115.8 L463.1,114.5 L468.2,113.4 L473.3,112.4 L478.4,111.6 L483.6,110.9 L488.7,110.3 L493.8,109.8 L498.9,109.4 L504.0,109.0 L509.1,108.7 L514.2,108.4 L519.3,108.2 L524.4,108.0 L529.6,107.8 L534.7,107.7 L539.8,107.6 L544.9,107.5 L550.0,107.4" fill="none" stroke="#8b5cf6" stroke-width="3"/>
  <line x1="368.9" y1="280.0" x2="368.9" y2="90.0" stroke="#94a3b8" stroke-width="1.3" stroke-dasharray="6 5" stroke-linecap="round"/>
  <text x="368.9" y="80.0" font-family="-apple-system,BlinkMacSystemFont,'Segoe UI',Roboto,Helvetica,Arial,sans-serif" font-size="10.6" font-weight="700" fill="#5b21b6" text-anchor="middle" opacity="1.0" dominant-baseline="middle">ability 'switches on'</text>
  <text x="180.0" y="260.0" font-family="-apple-system,BlinkMacSystemFont,'Segoe UI',Roboto,Helvetica,Arial,sans-serif" font-size="10" font-weight="400" fill="#64748b" text-anchor="middle" opacity="1.0" dominant-baseline="middle">random / near-zero</text>
  <text x="330.0" y="336.0" font-family="-apple-system,BlinkMacSystemFont,'Segoe UI',Roboto,Helvetica,Arial,sans-serif" font-size="10.8" font-weight="400" fill="#64748b" text-anchor="middle" opacity="1.0" dominant-baseline="middle">below a threshold the task looks impossible; past it, performance jumps — debated, but striking</text>
</svg>
