<svg viewBox="0 0 560 320" xmlns="http://www.w3.org/2000/svg" width="560" height="320" role="img">
  <rect x="0" y="0" width="560" height="320" fill="#ffffff"/>
  <text x="280.0" y="26.0" font-family="-apple-system,BlinkMacSystemFont,'Segoe UI',Roboto,Helvetica,Arial,sans-serif" font-size="17" font-weight="700" fill="#1f2937" text-anchor="middle" opacity="1.0" dominant-baseline="middle">Variance is spread around the mean</text>
  <line x1="64.0" y1="250.0" x2="480.0" y2="250.0" stroke="#94a3b8" stroke-width="1.6" stroke-linecap="round"/>
  <line x1="80.0" y1="266.0" x2="80.0" y2="40.0" stroke="#94a3b8" stroke-width="1.6" stroke-linecap="round"/>
  <path d="M480.0,250.0 L472.7,246.7 L472.7,253.3 Z" fill="#94a3b8"/>
  <path d="M80.0,40.0 L76.7,47.3 L83.3,47.3 Z" fill="#94a3b8"/>
  <text x="483.0" y="265.0" font-family="-apple-system,BlinkMacSystemFont,'Segoe UI',Roboto,Helvetica,Arial,sans-serif" font-size="12" font-weight="400" fill="#64748b" text-anchor="middle" opacity="1.0" dominant-baseline="middle">x</text>
  <text x="67.0" y="39.0" font-family="-apple-system,BlinkMacSystemFont,'Segoe UI',Roboto,Helvetica,Arial,sans-serif" font-size="12" font-weight="400" fill="#64748b" text-anchor="middle" opacity="1.0" dominant-baseline="middle">density</text>
  <path d="M65.0,250.0 L70.3,250.0 L75.7,250.0 L81.0,250.0 L86.3,250.0 L91.7,250.0 L97.0,250.0 L102.3,250.0 L107.7,250.0 L113.0,250.0 L118.3,250.0 L123.7,250.0 L129.0,250.0 L134.3,250.0 L139.7,250.0 L145.0,250.0 L150.3,250.0 L155.7,250.0 L161.0,250.0 L166.3,250.0 L171.7,249.9 L177.0,249.9 L182.3,249.8 L187.7,249.7 L193.0,249.4 L198.3,249.0 L203.7,248.4 L209.0,247.5 L214.3,246.1 L219.7,244.1 L225.0,241.3 L230.3,237.4 L235.7,232.3 L241.0,225.7 L246.3,217.5 L251.7,207.6 L257.0,196.1 L262.3,183.2 L267.7,169.3 L273.0,154.8 L278.3,140.6 L283.7,127.5 L289.0,116.1 L294.3,107.4 L299.7,101.9 L305.0,100.0 L310.3,101.9 L315.7,107.4 L321.0,116.1 L326.3,127.5 L331.7,140.6 L337.0,154.8 L342.3,169.3 L347.7,183.2 L353.0,196.1 L358.3,207.6 L363.7,217.5 L369.0,225.7 L374.3,232.3 L379.7,237.4 L385.0,241.3 L390.3,244.1 L395.7,246.1 L401.0,247.5 L406.3,248.4 L411.7,249.0 L417.0,249.4 L422.3,249.7 L427.7,249.8 L433.0,249.9 L438.3,249.9 L443.7,250.0 L449.0,250.0 L454.3,250.0 L459.7,250.0 L465.0,250.0 L470.3,250.0 L475.7,250.0 L481.0,250.0 L486.3,250.0 L491.7,250.0 L497.0,250.0 L502.3,250.0 L507.7,250.0 L513.0,250.0 L518.3,250.0 L523.7,250.0 L529.0,250.0 L534.3,250.0 L539.7,250.0 L545.0,250.0" fill="none" stroke="#10b981" stroke-width="2.6" stroke-linecap="round" stroke-linejoin="round"/>
  <path d="M65.0,247.5 L70.3,247.1 L75.7,246.7 L81.0,246.2 L86.3,245.6 L91.7,244.9 L97.0,244.2 L102.3,243.4 L107.7,242.5 L113.0,241.6 L118.3,240.5 L123.7,239.3 L129.0,238.0 L134.3,236.7 L139.7,235.2 L145.0,233.5 L150.3,231.8 L155.7,230.0 L161.0,228.1 L166.3,226.0 L171.7,223.8 L177.0,221.6 L182.3,219.3 L187.7,216.8 L193.0,214.3 L198.3,211.8 L203.7,209.2 L209.0,206.6 L214.3,203.9 L219.7,201.3 L225.0,198.7 L230.3,196.1 L235.7,193.6 L241.0,191.2 L246.3,188.8 L251.7,186.6 L257.0,184.6 L262.3,182.7 L267.7,180.9 L273.0,179.4 L278.3,178.1 L283.7,177.0 L289.0,176.1 L294.3,175.5 L299.7,175.1 L305.0,175.0 L310.3,175.1 L315.7,175.5 L321.0,176.1 L326.3,177.0 L331.7,178.1 L337.0,179.4 L342.3,180.9 L347.7,182.7 L353.0,184.6 L358.3,186.6 L363.7,188.8 L369.0,191.2 L374.3,193.6 L379.7,196.1 L385.0,198.7 L390.3,201.3 L395.7,203.9 L401.0,206.6 L406.3,209.2 L411.7,211.8 L417.0,214.3 L422.3,216.8 L427.7,219.3 L433.0,221.6 L438.3,223.8 L443.7,226.0 L449.0,228.1 L454.3,230.0 L459.7,231.8 L465.0,233.5 L470.3,235.2 L475.7,236.7 L481.0,238.0 L486.3,239.3 L491.7,240.5 L497.0,241.6 L502.3,242.5 L507.7,243.4 L513.0,244.2 L518.3,244.9 L523.7,245.6 L529.0,246.2 L534.3,246.7 L539.7,247.1 L545.0,247.5" fill="none" stroke="#6366f1" stroke-width="2.6" stroke-linecap="round" stroke-linejoin="round"/>
  <line x1="305.0" y1="250.0" x2="305.0" y2="100.0" stroke="#fb7185" stroke-width="1.4" stroke-dasharray="6 5" stroke-linecap="round"/>
  <text x="305.0" y="266.0" font-family="-apple-system,BlinkMacSystemFont,'Segoe UI',Roboto,Helvetica,Arial,sans-serif" font-size="11" font-weight="400" fill="#9f1239" text-anchor="middle" opacity="1.0" dominant-baseline="middle">same mean</text>
  <text x="315.0" y="115.0" font-family="-apple-system,BlinkMacSystemFont,'Segoe UI',Roboto,Helvetica,Arial,sans-serif" font-size="11.5" font-weight="700" fill="#065f46" text-anchor="start" opacity="1.0" dominant-baseline="middle">low variance</text>
  <text x="420.5" y="199.0" font-family="-apple-system,BlinkMacSystemFont,'Segoe UI',Roboto,Helvetica,Arial,sans-serif" font-size="11.5" font-weight="700" fill="#312e81" text-anchor="start" opacity="1.0" dominant-baseline="middle">high variance</text>
</svg>
