<svg viewBox="0 0 580 320" xmlns="http://www.w3.org/2000/svg" width="580" height="320" role="img">
  <rect x="0" y="0" width="580" height="320" fill="#ffffff"/>
  <text x="290.0" y="26.0" font-family="-apple-system,BlinkMacSystemFont,'Segoe UI',Roboto,Helvetica,Arial,sans-serif" font-size="17" font-weight="700" fill="#1f2937" text-anchor="middle" opacity="1.0" dominant-baseline="middle">Maximum likelihood picks the best-fitting parameter</text>
  <line x1="64.0" y1="250.0" x2="510.0" y2="250.0" stroke="#94a3b8" stroke-width="1.6" stroke-linecap="round"/>
  <line x1="80.0" y1="266.0" x2="80.0" y2="50.0" stroke="#94a3b8" stroke-width="1.6" stroke-linecap="round"/>
  <path d="M510.0,250.0 L502.7,246.7 L502.7,253.3 Z" fill="#94a3b8"/>
  <path d="M80.0,50.0 L76.7,57.3 L83.3,57.3 Z" fill="#94a3b8"/>
  <text x="513.0" y="265.0" font-family="-apple-system,BlinkMacSystemFont,'Segoe UI',Roboto,Helvetica,Arial,sans-serif" font-size="12" font-weight="400" fill="#64748b" text-anchor="middle" opacity="1.0" dominant-baseline="middle">parameter θ</text>
  <text x="67.0" y="49.0" font-family="-apple-system,BlinkMacSystemFont,'Segoe UI',Roboto,Helvetica,Arial,sans-serif" font-size="12" font-weight="400" fill="#64748b" text-anchor="middle" opacity="1.0" dominant-baseline="middle">likelihood</text>
  <path d="M80.0,247.4 L84.5,246.9 L89.1,246.3 L93.6,245.6 L98.1,244.8 L102.7,243.9 L107.2,242.8 L111.7,241.6 L116.3,240.2 L120.8,238.6 L125.3,236.8 L129.9,234.8 L134.4,232.6 L138.9,230.2 L143.5,227.4 L148.0,224.5 L152.5,221.2 L157.1,217.6 L161.6,213.8 L166.1,209.7 L170.7,205.3 L175.2,200.6 L179.7,195.6 L184.3,190.4 L188.8,184.9 L193.3,179.2 L197.9,173.4 L202.4,167.4 L206.9,161.2 L211.5,155.1 L216.0,148.9 L220.5,142.7 L225.1,136.6 L229.6,130.7 L234.1,125.0 L238.7,119.5 L243.2,114.4 L247.7,109.6 L252.3,105.2 L256.8,101.3 L261.3,98.0 L265.9,95.1 L270.4,92.9 L274.9,91.3 L279.5,90.3 L284.0,90.0 L288.5,90.3 L293.1,91.3 L297.6,92.9 L302.1,95.1 L306.7,98.0 L311.2,101.3 L315.7,105.2 L320.3,109.6 L324.8,114.4 L329.3,119.5 L333.9,125.0 L338.4,130.7 L342.9,136.6 L347.5,142.7 L352.0,148.9 L356.5,155.1 L361.1,161.2 L365.6,167.4 L370.1,173.4 L374.7,179.2 L379.2,184.9 L383.7,190.4 L388.3,195.6 L392.8,200.6 L397.3,205.3 L401.9,209.7 L406.4,213.8 L410.9,217.6 L415.5,221.2 L420.0,224.5 L424.5,227.4 L429.1,230.2 L433.6,232.6 L438.1,234.8 L442.7,236.8 L447.2,238.6 L451.7,240.2 L456.3,241.6 L460.8,242.8 L465.3,243.9 L469.9,244.8 L474.4,245.6 L478.9,246.3 L483.5,246.9 L488.0,247.4" fill="none" stroke="#6366f1" stroke-width="2.8" stroke-linecap="round" stroke-linejoin="round"/>
  <line x1="284.0" y1="250.0" x2="284.0" y2="90.0" stroke="#fb7185" stroke-width="1.8" stroke-dasharray="6 5" stroke-linecap="round"/>
  <circle cx="284.0" cy="90.0" r="5.0" fill="#fff" stroke="#fb7185" stroke-width="2.4"/>
  <text x="284.0" y="266.0" font-family="-apple-system,BlinkMacSystemFont,'Segoe UI',Roboto,Helvetica,Arial,sans-serif" font-size="11.5" font-weight="700" fill="#9f1239" text-anchor="middle" opacity="1.0" dominant-baseline="middle">θ̂ (MLE)</text>
  <text x="284.0" y="74.0" font-family="-apple-system,BlinkMacSystemFont,'Segoe UI',Roboto,Helvetica,Arial,sans-serif" font-size="11" font-weight="400" fill="#312e81" text-anchor="middle" opacity="1.0" dominant-baseline="middle">most likely value given the data</text>
</svg>
