<svg viewBox="0 0 560 360" xmlns="http://www.w3.org/2000/svg" width="560" height="360" role="img">
  <rect x="0" y="0" width="560" height="360" fill="#ffffff"/>
  <text x="280.0" y="26.0" font-family="-apple-system,BlinkMacSystemFont,'Segoe UI',Roboto,Helvetica,Arial,sans-serif" font-size="17" font-weight="700" fill="#1f2937" text-anchor="middle" opacity="1.0" dominant-baseline="middle">Scaling a vector: stretch, shrink, flip</text>
  <line x1="60.0" y1="190.0" x2="500.0" y2="190.0" stroke="#94a3b8" stroke-width="1.6" stroke-linecap="round"/>
  <line x1="285.0" y1="320.0" x2="285.0" y2="40.0" stroke="#94a3b8" stroke-width="1.6" stroke-linecap="round"/>
  <path d="M500.0,190.0 L492.7,186.7 L492.7,193.3 Z" fill="#94a3b8"/>
  <path d="M285.0,40.0 L281.7,47.3 L288.3,47.3 Z" fill="#94a3b8"/>
  <text x="502.0" y="206.0" font-family="-apple-system,BlinkMacSystemFont,'Segoe UI',Roboto,Helvetica,Arial,sans-serif" font-size="13" font-weight="400" fill="#64748b" text-anchor="middle" opacity="1.0" dominant-baseline="middle">x₁</text>
  <text x="269.0" y="38.0" font-family="-apple-system,BlinkMacSystemFont,'Segoe UI',Roboto,Helvetica,Arial,sans-serif" font-size="13" font-weight="400" fill="#64748b" text-anchor="middle" opacity="1.0" dominant-baseline="middle">x₂</text>
  <line x1="285.0" y1="190.0" x2="417.0" y2="124.0" stroke="#6366f1" stroke-width="3" stroke-linecap="round"/>
  <path d="M417.0,124.0 L406.0,124.5 L410.0,132.5 Z" fill="#6366f1"/>
  <line x1="285.0" y1="190.0" x2="373.0" y2="146.0" stroke="#10b981" stroke-width="3" stroke-linecap="round"/>
  <path d="M373.0,146.0 L362.0,146.5 L366.0,154.5 Z" fill="#10b981"/>
  <line x1="285.0" y1="190.0" x2="197.0" y2="234.0" stroke="#fb7185" stroke-width="3" stroke-linecap="round"/>
  <path d="M197.0,234.0 L208.0,233.5 L204.0,225.5 Z" fill="#fb7185"/>
  <text x="425.0" y="118.0" font-family="-apple-system,BlinkMacSystemFont,'Segoe UI',Roboto,Helvetica,Arial,sans-serif" font-size="13.5" font-weight="700" fill="#312e81" text-anchor="start" opacity="1.0" dominant-baseline="middle">1.5 v</text>
  <text x="365.0" y="136.0" font-family="-apple-system,BlinkMacSystemFont,'Segoe UI',Roboto,Helvetica,Arial,sans-serif" font-size="14" font-weight="700" fill="#065f46" text-anchor="end" opacity="1.0" dominant-baseline="middle">v</text>
  <text x="189.0" y="250.0" font-family="-apple-system,BlinkMacSystemFont,'Segoe UI',Roboto,Helvetica,Arial,sans-serif" font-size="13.5" font-weight="700" fill="#9f1239" text-anchor="end" opacity="1.0" dominant-baseline="middle">−v</text>
  <circle cx="285.0" cy="190.0" r="3.5" fill="#475569"/>
  <text x="285.0" y="314.0" font-family="-apple-system,BlinkMacSystemFont,'Segoe UI',Roboto,Helvetica,Arial,sans-serif" font-size="12" font-weight="400" fill="#64748b" text-anchor="middle" opacity="1.0" dominant-baseline="middle">negative flips direction · |c|&gt;1 lengthens · |c|&lt;1 shrinks</text>
</svg>
