<svg viewBox="0 0 540 380" xmlns="http://www.w3.org/2000/svg" width="540" height="380" role="img">
  <rect x="0" y="0" width="540" height="380" fill="#ffffff"/>
  <text x="270.0" y="26.0" font-family="-apple-system,BlinkMacSystemFont,'Segoe UI',Roboto,Helvetica,Arial,sans-serif" font-size="17" font-weight="700" fill="#1f2937" text-anchor="middle" opacity="1.0" dominant-baseline="middle">A linear system = where the lines meet</text>
  <line x1="54.0" y1="320.0" x2="470.0" y2="320.0" stroke="#94a3b8" stroke-width="1.6" stroke-linecap="round"/>
  <line x1="70.0" y1="336.0" x2="70.0" y2="40.0" stroke="#94a3b8" stroke-width="1.6" stroke-linecap="round"/>
  <path d="M470.0,320.0 L462.7,316.7 L462.7,323.3 Z" fill="#94a3b8"/>
  <path d="M70.0,40.0 L66.7,47.3 L73.3,47.3 Z" fill="#94a3b8"/>
  <text x="473.0" y="335.0" font-family="-apple-system,BlinkMacSystemFont,'Segoe UI',Roboto,Helvetica,Arial,sans-serif" font-size="12" font-weight="400" fill="#64748b" text-anchor="middle" opacity="1.0" dominant-baseline="middle">x</text>
  <text x="57.0" y="39.0" font-family="-apple-system,BlinkMacSystemFont,'Segoe UI',Roboto,Helvetica,Arial,sans-serif" font-size="12" font-weight="400" fill="#64748b" text-anchor="middle" opacity="1.0" dominant-baseline="middle">y</text>
  <path d="M70.0,90.0 L72.6,92.6 L75.2,95.2 L77.8,97.8 L80.4,100.4 L83.0,103.0 L85.6,105.6 L88.2,108.2 L90.9,110.9 L93.5,113.5 L96.1,116.1 L98.7,118.7 L101.3,121.3 L103.9,123.9 L106.5,126.5 L109.1,129.1 L111.7,131.7 L114.3,134.3 L116.9,136.9 L119.5,139.5 L122.1,142.1 L124.7,144.7 L127.3,147.3 L130.0,150.0 L132.6,152.6 L135.2,155.2 L137.8,157.8 L140.4,160.4 L143.0,163.0 L145.6,165.6 L148.2,168.2 L150.8,170.8 L153.4,173.4 L156.0,176.0 L158.6,178.6 L161.2,181.2 L163.8,183.8 L166.4,186.4 L169.1,189.1 L171.7,191.7 L174.3,194.3 L176.9,196.9 L179.5,199.5 L182.1,202.1 L184.7,204.7 L187.3,207.3 L189.9,209.9 L192.5,212.5 L195.1,215.1 L197.7,217.7 L200.3,220.3 L202.9,222.9 L205.5,225.5 L208.2,228.2 L210.8,230.8 L213.4,233.4 L216.0,236.0 L218.6,238.6 L221.2,241.2 L223.8,243.8 L226.4,246.4 L229.0,249.0 L231.6,251.6 L234.2,254.2 L236.8,256.8 L239.4,259.4 L242.0,262.0 L244.6,264.6 L247.3,267.3 L249.9,269.9 L252.5,272.5 L255.1,275.1 L257.7,277.7 L260.3,280.3 L262.9,282.9 L265.5,285.5 L268.1,288.1 L270.7,290.7 L273.3,293.3 L275.9,295.9 L278.5,298.5 L281.1,301.1 L283.7,303.7 L286.4,306.4 L289.0,309.0 L291.6,311.6 L294.2,314.2 L296.8,316.8 L299.4,319.4 L302.0,322.0 L304.6,324.6" fill="none" stroke="#10b981" stroke-width="2.6" stroke-linecap="round" stroke-linejoin="round"/>
  <path d="M116.0,320.0 L118.2,317.8 L120.5,315.5 L122.7,313.3 L125.0,311.0 L127.2,308.8 L129.5,306.5 L131.7,304.3 L134.0,302.0 L136.2,299.8 L138.5,297.5 L140.7,295.3 L143.0,293.0 L145.2,290.8 L147.5,288.5 L149.7,286.3 L152.0,284.0 L154.2,281.8 L156.5,279.5 L158.7,277.3 L161.0,275.0 L163.2,272.8 L165.5,270.5 L167.7,268.3 L170.0,266.0 L172.2,263.8 L174.5,261.5 L176.7,259.3 L179.0,257.0 L181.2,254.8 L183.5,252.5 L185.7,250.3 L188.0,248.0 L190.2,245.8 L192.5,243.5 L194.7,241.3 L197.0,239.0 L199.2,236.8 L201.5,234.5 L203.7,232.3 L206.0,230.0 L208.2,227.8 L210.5,225.5 L212.7,223.3 L215.0,221.0 L217.2,218.8 L219.4,216.6 L221.7,214.3 L223.9,212.1 L226.2,209.8 L228.4,207.6 L230.7,205.3 L232.9,203.1 L235.2,200.8 L237.4,198.6 L239.7,196.3 L241.9,194.1 L244.2,191.8 L246.4,189.6 L248.7,187.3 L250.9,185.1 L253.2,182.8 L255.4,180.6 L257.7,178.3 L259.9,176.1 L262.2,173.8 L264.4,171.6 L266.7,169.3 L268.9,167.1 L271.2,164.8 L273.4,162.6 L275.7,160.3 L277.9,158.1 L280.2,155.8 L282.4,153.6 L284.7,151.3 L286.9,149.1 L289.2,146.8 L291.4,144.6 L293.7,142.3 L295.9,140.1 L298.2,137.8 L300.4,135.6 L302.7,133.3 L304.9,131.1 L307.2,128.8 L309.4,126.6 L311.7,124.3 L313.9,122.1 L316.2,119.8 L318.4,117.6" fill="none" stroke="#38bdf8" stroke-width="2.6" stroke-linecap="round" stroke-linejoin="round"/>
  <line x1="208.0" y1="228.0" x2="208.0" y2="320.0" stroke="#cbd5e1" stroke-width="1.3" stroke-dasharray="6 5" stroke-linecap="round"/>
  <line x1="208.0" y1="228.0" x2="70.0" y2="228.0" stroke="#cbd5e1" stroke-width="1.3" stroke-dasharray="6 5" stroke-linecap="round"/>
  <circle cx="208.0" cy="228.0" r="5.0" fill="#fff" stroke="#6366f1" stroke-width="2.4"/>
  <text x="93.0" y="159.0" font-family="-apple-system,BlinkMacSystemFont,'Segoe UI',Roboto,Helvetica,Arial,sans-serif" font-size="12.5" font-weight="700" fill="#065f46" text-anchor="start" opacity="1.0" dominant-baseline="middle">x + y = 5</text>
  <text x="254.0" y="168.2" font-family="-apple-system,BlinkMacSystemFont,'Segoe UI',Roboto,Helvetica,Arial,sans-serif" font-size="12.5" font-weight="700" fill="#075985" text-anchor="start" opacity="1.0" dominant-baseline="middle">x − y = 1</text>
  <text x="220.0" y="248.0" font-family="-apple-system,BlinkMacSystemFont,'Segoe UI',Roboto,Helvetica,Arial,sans-serif" font-size="13" font-weight="700" fill="#312e81" text-anchor="start" opacity="1.0" dominant-baseline="middle">solution (3, 2)</text>
  <text x="270.0" y="360.0" font-family="-apple-system,BlinkMacSystemFont,'Segoe UI',Roboto,Helvetica,Arial,sans-serif" font-size="12.5" font-weight="400" fill="#64748b" text-anchor="middle" opacity="1.0" dominant-baseline="middle">two equations, two unknowns → one crossing point</text>
</svg>
