<svg viewBox="0 0 560 380" xmlns="http://www.w3.org/2000/svg" width="560" height="380" role="img">
  <rect x="0" y="0" width="560" height="380" fill="#ffffff"/>
  <text x="280.0" y="26.0" font-family="-apple-system,BlinkMacSystemFont,'Segoe UI',Roboto,Helvetica,Arial,sans-serif" font-size="17" font-weight="700" fill="#1f2937" text-anchor="middle" opacity="1.0" dominant-baseline="middle">Eigenvectors keep their direction (only stretch)</text>
  <line x1="94.0" y1="250.0" x2="470.0" y2="250.0" stroke="#94a3b8" stroke-width="1.6" stroke-linecap="round"/>
  <line x1="110.0" y1="266.0" x2="110.0" y2="40.0" stroke="#94a3b8" stroke-width="1.6" stroke-linecap="round"/>
  <path d="M470.0,250.0 L462.7,246.7 L462.7,253.3 Z" fill="#94a3b8"/>
  <path d="M110.0,40.0 L106.7,47.3 L113.3,47.3 Z" fill="#94a3b8"/>
  <text x="473.0" y="265.0" font-family="-apple-system,BlinkMacSystemFont,'Segoe UI',Roboto,Helvetica,Arial,sans-serif" font-size="12" font-weight="400" fill="#64748b" text-anchor="middle" opacity="1.0" dominant-baseline="middle">x</text>
  <text x="97.0" y="39.0" font-family="-apple-system,BlinkMacSystemFont,'Segoe UI',Roboto,Helvetica,Arial,sans-serif" font-size="12" font-weight="400" fill="#64748b" text-anchor="middle" opacity="1.0" dominant-baseline="middle">y</text>
  <line x1="100.0" y1="250.0" x2="470.0" y2="250.0" stroke="#c7d2fe" stroke-width="1.4" stroke-dasharray="6 5" stroke-linecap="round"/>
  <line x1="110.0" y1="250.0" x2="180.0" y2="250.0" stroke="#38bdf8" stroke-width="3" stroke-linecap="round"/>
  <path d="M180.0,250.0 L170.0,245.5 L170.0,254.5 Z" fill="#38bdf8"/>
  <line x1="110.0" y1="250.0" x2="250.0" y2="250.0" stroke="#10b981" stroke-width="3.4" stroke-linecap="round"/>
  <path d="M250.0,250.0 L239.0,245.1 L239.0,254.9 Z" fill="#10b981"/>
  <text x="145.0" y="238.0" font-family="-apple-system,BlinkMacSystemFont,'Segoe UI',Roboto,Helvetica,Arial,sans-serif" font-size="12.5" font-weight="700" fill="#075985" text-anchor="middle" opacity="1.0" dominant-baseline="middle">v</text>
  <text x="258.0" y="238.0" font-family="-apple-system,BlinkMacSystemFont,'Segoe UI',Roboto,Helvetica,Arial,sans-serif" font-size="12" font-weight="700" fill="#065f46" text-anchor="start" opacity="1.0" dominant-baseline="middle">Av = 2v</text>
  <text x="180.0" y="284.0" font-family="-apple-system,BlinkMacSystemFont,'Segoe UI',Roboto,Helvetica,Arial,sans-serif" font-size="11.5" font-weight="400" fill="#10b981" text-anchor="start" opacity="1.0" dominant-baseline="middle">eigenvector: direction unchanged, length ×2</text>
  <line x1="110.0" y1="250.0" x2="180.0" y2="152.0" stroke="#f59e0b" stroke-width="3" stroke-linecap="round"/>
  <path d="M180.0,152.0 L170.5,157.6 L177.8,162.8 Z" fill="#f59e0b"/>
  <line x1="110.0" y1="250.0" x2="250.0" y2="201.0" stroke="#fb7185" stroke-width="3" stroke-linecap="round"/>
  <path d="M250.0,201.0 L239.0,200.1 L242.0,208.5 Z" fill="#fb7185"/>
  <text x="186.0" y="148.0" font-family="-apple-system,BlinkMacSystemFont,'Segoe UI',Roboto,Helvetica,Arial,sans-serif" font-size="12.5" font-weight="700" fill="#92400e" text-anchor="start" opacity="1.0" dominant-baseline="middle">w</text>
  <text x="256.0" y="195.0" font-family="-apple-system,BlinkMacSystemFont,'Segoe UI',Roboto,Helvetica,Arial,sans-serif" font-size="11.5" font-weight="400" fill="#9f1239" text-anchor="start" opacity="1.0" dominant-baseline="middle">Aw (direction changed)</text>
</svg>
