<svg viewBox="0 0 560 380" xmlns="http://www.w3.org/2000/svg" width="560" height="380" role="img">
  <rect x="0" y="0" width="560" height="380" fill="#ffffff"/>
  <text x="280.0" y="26.0" font-family="-apple-system,BlinkMacSystemFont,'Segoe UI',Roboto,Helvetica,Arial,sans-serif" font-size="17" font-weight="700" fill="#1f2937" text-anchor="middle" opacity="1.0" dominant-baseline="middle">Reduce dimensions: project onto PC1</text>
  <line x1="177.3" y1="221.3" x2="402.7" y2="108.7" stroke="#fbcfe8" stroke-width="2.6" stroke-linecap="round"/>
  <line x1="313.7" y1="154.9" x2="313.1" y2="153.5" stroke="#cbd5e1" stroke-width="1.2" stroke-dasharray="6 5" stroke-linecap="round"/>
  <circle cx="313.7" cy="154.9" r="3.2" fill="#6366f1"/>
  <circle cx="313.1" cy="153.5" r="3.4" fill="#fb7185"/>
  <line x1="375.5" y1="155.9" x2="362.0" y2="129.0" stroke="#cbd5e1" stroke-width="1.2" stroke-dasharray="6 5" stroke-linecap="round"/>
  <circle cx="375.5" cy="155.9" r="3.2" fill="#6366f1"/>
  <circle cx="362.0" cy="129.0" r="3.4" fill="#fb7185"/>
  <line x1="336.3" y1="137.8" x2="338.0" y2="141.0" stroke="#cbd5e1" stroke-width="1.2" stroke-dasharray="6 5" stroke-linecap="round"/>
  <circle cx="336.3" cy="137.8" r="3.2" fill="#6366f1"/>
  <circle cx="338.0" cy="141.0" r="3.4" fill="#fb7185"/>
  <line x1="283.4" y1="170.5" x2="282.5" y2="168.8" stroke="#cbd5e1" stroke-width="1.2" stroke-dasharray="6 5" stroke-linecap="round"/>
  <circle cx="283.4" cy="170.5" r="3.2" fill="#6366f1"/>
  <circle cx="282.5" cy="168.8" r="3.4" fill="#fb7185"/>
  <line x1="375.7" y1="146.3" x2="366.0" y2="127.0" stroke="#cbd5e1" stroke-width="1.2" stroke-dasharray="6 5" stroke-linecap="round"/>
  <circle cx="375.7" cy="146.3" r="3.2" fill="#6366f1"/>
  <circle cx="366.0" cy="127.0" r="3.4" fill="#fb7185"/>
  <line x1="215.3" y1="235.1" x2="202.2" y2="208.9" stroke="#cbd5e1" stroke-width="1.2" stroke-dasharray="6 5" stroke-linecap="round"/>
  <circle cx="215.3" cy="235.1" r="3.2" fill="#6366f1"/>
  <circle cx="202.2" cy="208.9" r="3.4" fill="#fb7185"/>
  <line x1="284.0" y1="167.5" x2="284.2" y2="167.9" stroke="#cbd5e1" stroke-width="1.2" stroke-dasharray="6 5" stroke-linecap="round"/>
  <circle cx="284.0" cy="167.5" r="3.2" fill="#6366f1"/>
  <circle cx="284.2" cy="167.9" r="3.4" fill="#fb7185"/>
  <line x1="304.3" y1="134.2" x2="313.8" y2="153.1" stroke="#cbd5e1" stroke-width="1.2" stroke-dasharray="6 5" stroke-linecap="round"/>
  <circle cx="304.3" cy="134.2" r="3.2" fill="#6366f1"/>
  <circle cx="313.8" cy="153.1" r="3.4" fill="#fb7185"/>
  <line x1="195.9" y1="208.9" x2="197.2" y2="211.4" stroke="#cbd5e1" stroke-width="1.2" stroke-dasharray="6 5" stroke-linecap="round"/>
  <circle cx="195.9" cy="208.9" r="3.2" fill="#6366f1"/>
  <circle cx="197.2" cy="211.4" r="3.4" fill="#fb7185"/>
  <line x1="370.4" y1="109.8" x2="376.4" y2="121.8" stroke="#cbd5e1" stroke-width="1.2" stroke-dasharray="6 5" stroke-linecap="round"/>
  <circle cx="370.4" cy="109.8" r="3.2" fill="#6366f1"/>
  <circle cx="376.4" cy="121.8" r="3.4" fill="#fb7185"/>
  <line x1="341.3" y1="121.2" x2="348.6" y2="135.7" stroke="#cbd5e1" stroke-width="1.2" stroke-dasharray="6 5" stroke-linecap="round"/>
  <circle cx="341.3" cy="121.2" r="3.2" fill="#6366f1"/>
  <circle cx="348.6" cy="135.7" r="3.4" fill="#fb7185"/>
  <line x1="220.2" y1="171.4" x2="231.6" y2="194.2" stroke="#cbd5e1" stroke-width="1.2" stroke-dasharray="6 5" stroke-linecap="round"/>
  <circle cx="220.2" cy="171.4" r="3.2" fill="#6366f1"/>
  <circle cx="231.6" cy="194.2" r="3.4" fill="#fb7185"/>
  <line x1="312.7" y1="152.9" x2="313.0" y2="153.5" stroke="#cbd5e1" stroke-width="1.2" stroke-dasharray="6 5" stroke-linecap="round"/>
  <circle cx="312.7" cy="152.9" r="3.2" fill="#6366f1"/>
  <circle cx="313.0" cy="153.5" r="3.4" fill="#fb7185"/>
  <line x1="361.8" y1="128.3" x2="362.1" y2="129.0" stroke="#cbd5e1" stroke-width="1.2" stroke-dasharray="6 5" stroke-linecap="round"/>
  <circle cx="361.8" cy="128.3" r="3.2" fill="#6366f1"/>
  <circle cx="362.1" cy="129.0" r="3.4" fill="#fb7185"/>
  <text x="406.7" y="106.7" font-family="-apple-system,BlinkMacSystemFont,'Segoe UI',Roboto,Helvetica,Arial,sans-serif" font-size="12" font-weight="700" fill="#9f1239" text-anchor="start" opacity="1.0" dominant-baseline="middle">PC1</text>
  <line x1="120.0" y1="330.0" x2="440.0" y2="330.0" stroke="#94a3b8" stroke-width="1.6" stroke-linecap="round"/>
  <circle cx="310.7" cy="330.0" r="3.4" fill="#fb7185"/>
  <circle cx="375.9" cy="330.0" r="3.4" fill="#fb7185"/>
  <circle cx="343.8" cy="330.0" r="3.4" fill="#fb7185"/>
  <circle cx="270.0" cy="330.0" r="3.4" fill="#fb7185"/>
  <circle cx="381.2" cy="330.0" r="3.4" fill="#fb7185"/>
  <circle cx="163.1" cy="330.0" r="3.4" fill="#fb7185"/>
  <circle cx="272.3" cy="330.0" r="3.4" fill="#fb7185"/>
  <circle cx="311.6" cy="330.0" r="3.4" fill="#fb7185"/>
  <circle cx="156.5" cy="330.0" r="3.4" fill="#fb7185"/>
  <circle cx="395.0" cy="330.0" r="3.4" fill="#fb7185"/>
  <circle cx="358.0" cy="330.0" r="3.4" fill="#fb7185"/>
  <circle cx="202.3" cy="330.0" r="3.4" fill="#fb7185"/>
  <circle cx="310.6" cy="330.0" r="3.4" fill="#fb7185"/>
  <circle cx="375.9" cy="330.0" r="3.4" fill="#fb7185"/>
  <text x="280.0" y="354.0" font-family="-apple-system,BlinkMacSystemFont,'Segoe UI',Roboto,Helvetica,Arial,sans-serif" font-size="12" font-weight="400" fill="#64748b" text-anchor="middle" opacity="1.0" dominant-baseline="middle">each 2-D point → one number along PC1</text>
</svg>
