<svg viewBox="0 0 520 380" xmlns="http://www.w3.org/2000/svg" width="520" height="380" role="img">
  <rect x="0" y="0" width="520" height="380" fill="#ffffff"/>
  <text x="260.0" y="26.0" font-family="-apple-system,BlinkMacSystemFont,'Segoe UI',Roboto,Helvetica,Arial,sans-serif" font-size="17" font-weight="700" fill="#1f2937" text-anchor="middle" opacity="1.0" dominant-baseline="middle">PCA finds the axes your data varies along</text>
  <line x1="60.0" y1="200.0" x2="460.0" y2="200.0" stroke="#94a3b8" stroke-width="1.6" stroke-linecap="round"/>
  <line x1="60.0" y1="350.0" x2="60.0" y2="50.0" stroke="#94a3b8" stroke-width="1.6" stroke-linecap="round"/>
  <path d="M460.0,200.0 L452.7,196.7 L452.7,203.3 Z" fill="#94a3b8"/>
  <path d="M60.0,50.0 L56.7,57.3 L63.3,57.3 Z" fill="#94a3b8"/>
  <text x="463.0" y="215.0" font-family="-apple-system,BlinkMacSystemFont,'Segoe UI',Roboto,Helvetica,Arial,sans-serif" font-size="12" font-weight="400" fill="#64748b" text-anchor="middle" opacity="1.0" dominant-baseline="middle">feature 1</text>
  <text x="47.0" y="49.0" font-family="-apple-system,BlinkMacSystemFont,'Segoe UI',Roboto,Helvetica,Arial,sans-serif" font-size="12" font-weight="400" fill="#64748b" text-anchor="middle" opacity="1.0" dominant-baseline="middle">feature 2</text>
  <line x1="260.0" y1="50.0" x2="260.0" y2="350.0" stroke="#94a3b8" stroke-width="1.6" stroke-linecap="round"/>
  <circle cx="189.1" cy="257.1" r="3" fill="#6366f1"/>
  <circle cx="288.1" cy="192.1" r="3" fill="#6366f1"/>
  <circle cx="294.0" cy="179.5" r="3" fill="#6366f1"/>
  <circle cx="351.3" cy="152.8" r="3" fill="#6366f1"/>
  <circle cx="194.9" cy="225.0" r="3" fill="#6366f1"/>
  <circle cx="252.0" cy="127.2" r="3" fill="#6366f1"/>
  <circle cx="351.0" cy="187.5" r="3" fill="#6366f1"/>
  <circle cx="165.5" cy="242.3" r="3" fill="#6366f1"/>
  <circle cx="296.5" cy="162.5" r="3" fill="#6366f1"/>
  <circle cx="325.2" cy="188.4" r="3" fill="#6366f1"/>
  <circle cx="306.3" cy="140.5" r="3" fill="#6366f1"/>
  <circle cx="284.6" cy="172.2" r="3" fill="#6366f1"/>
  <circle cx="206.3" cy="180.9" r="3" fill="#6366f1"/>
  <circle cx="252.6" cy="194.6" r="3" fill="#6366f1"/>
  <circle cx="319.2" cy="143.6" r="3" fill="#6366f1"/>
  <circle cx="373.9" cy="168.6" r="3" fill="#6366f1"/>
  <circle cx="231.6" cy="206.2" r="3" fill="#6366f1"/>
  <circle cx="377.8" cy="165.2" r="3" fill="#6366f1"/>
  <circle cx="362.4" cy="138.4" r="3" fill="#6366f1"/>
  <circle cx="183.5" cy="231.0" r="3" fill="#6366f1"/>
  <circle cx="385.9" cy="167.3" r="3" fill="#6366f1"/>
  <circle cx="206.2" cy="214.1" r="3" fill="#6366f1"/>
  <circle cx="262.0" cy="215.4" r="3" fill="#6366f1"/>
  <circle cx="283.0" cy="174.2" r="3" fill="#6366f1"/>
  <circle cx="282.8" cy="159.4" r="3" fill="#6366f1"/>
  <circle cx="376.0" cy="162.1" r="3" fill="#6366f1"/>
  <circle cx="356.4" cy="117.0" r="3" fill="#6366f1"/>
  <circle cx="168.9" cy="247.5" r="3" fill="#6366f1"/>
  <circle cx="357.5" cy="101.8" r="3" fill="#6366f1"/>
  <circle cx="278.7" cy="201.8" r="3" fill="#6366f1"/>
  <circle cx="317.8" cy="160.4" r="3" fill="#6366f1"/>
  <circle cx="279.9" cy="147.2" r="3" fill="#6366f1"/>
  <circle cx="201.9" cy="186.8" r="3" fill="#6366f1"/>
  <circle cx="392.4" cy="116.0" r="3" fill="#6366f1"/>
  <circle cx="148.7" cy="248.1" r="3" fill="#6366f1"/>
  <circle cx="165.6" cy="270.1" r="3" fill="#6366f1"/>
  <circle cx="204.3" cy="222.3" r="3" fill="#6366f1"/>
  <circle cx="136.7" cy="308.8" r="3" fill="#6366f1"/>
  <circle cx="291.0" cy="148.7" r="3" fill="#6366f1"/>
  <circle cx="214.3" cy="212.5" r="3" fill="#6366f1"/>
  <circle cx="363.0" cy="120.9" r="3" fill="#6366f1"/>
  <circle cx="394.8" cy="136.0" r="3" fill="#6366f1"/>
  <circle cx="208.5" cy="197.7" r="3" fill="#6366f1"/>
  <circle cx="133.3" cy="248.6" r="3" fill="#6366f1"/>
  <circle cx="178.2" cy="267.8" r="3" fill="#6366f1"/>
  <circle cx="167.0" cy="228.9" r="3" fill="#6366f1"/>
  <line x1="148.4" y1="255.8" x2="380.9" y2="139.5" stroke="#fb7185" stroke-width="3.2" stroke-linecap="round"/>
  <path d="M380.9,139.5 L368.9,140.1 L373.3,148.8 Z" fill="#fb7185"/>
  <text x="384.9" y="133.5" font-family="-apple-system,BlinkMacSystemFont,'Segoe UI',Roboto,Helvetica,Arial,sans-serif" font-size="12" font-weight="700" fill="#9f1239" text-anchor="start" opacity="1.0" dominant-baseline="middle">PC1 (most variance)</text>
  <line x1="260.0" y1="200.0" x2="229.8" y2="139.5" stroke="#f59e0b" stroke-width="3" stroke-linecap="round"/>
  <path d="M229.8,139.5 L230.3,150.5 L238.3,146.5 Z" fill="#f59e0b"/>
  <text x="223.8" y="131.5" font-family="-apple-system,BlinkMacSystemFont,'Segoe UI',Roboto,Helvetica,Arial,sans-serif" font-size="12" font-weight="700" fill="#92400e" text-anchor="end" opacity="1.0" dominant-baseline="middle">PC2</text>
</svg>
