<svg viewBox="0 0 540 360" xmlns="http://www.w3.org/2000/svg" width="540" height="360" role="img">
  <rect x="0" y="0" width="540" height="360" fill="#ffffff"/>
  <text x="270.0" y="26.0" font-family="-apple-system,BlinkMacSystemFont,'Segoe UI',Roboto,Helvetica,Arial,sans-serif" font-size="17" font-weight="700" fill="#1f2937" text-anchor="middle" opacity="1.0" dominant-baseline="middle">The derivative is the slope of the tangent</text>
  <line x1="54.0" y1="300.0" x2="490.0" y2="300.0" stroke="#94a3b8" stroke-width="1.6" stroke-linecap="round"/>
  <line x1="70.0" y1="316.0" x2="70.0" y2="50.0" stroke="#94a3b8" stroke-width="1.6" stroke-linecap="round"/>
  <path d="M490.0,300.0 L482.7,296.7 L482.7,303.3 Z" fill="#94a3b8"/>
  <path d="M70.0,50.0 L66.7,57.3 L73.3,57.3 Z" fill="#94a3b8"/>
  <text x="493.0" y="315.0" font-family="-apple-system,BlinkMacSystemFont,'Segoe UI',Roboto,Helvetica,Arial,sans-serif" font-size="12" font-weight="400" fill="#64748b" text-anchor="middle" opacity="1.0" dominant-baseline="middle">x</text>
  <text x="57.0" y="49.0" font-family="-apple-system,BlinkMacSystemFont,'Segoe UI',Roboto,Helvetica,Arial,sans-serif" font-size="12" font-weight="400" fill="#64748b" text-anchor="middle" opacity="1.0" dominant-baseline="middle">f(x)</text>
  <path d="M25.0,297.0 L29.6,297.6 L34.2,298.1 L38.8,298.6 L43.3,299.0 L47.9,299.3 L52.5,299.6 L57.1,299.8 L61.7,299.9 L66.2,300.0 L70.8,300.0 L75.4,300.0 L80.0,299.9 L84.6,299.7 L89.2,299.5 L93.8,299.2 L98.3,298.8 L102.9,298.4 L107.5,297.9 L112.1,297.4 L116.7,296.8 L121.2,296.1 L125.8,295.4 L130.4,294.6 L135.0,293.8 L139.6,292.9 L144.2,291.9 L148.8,290.9 L153.3,289.8 L157.9,288.7 L162.5,287.5 L167.1,286.2 L171.7,284.8 L176.2,283.4 L180.8,282.0 L185.4,280.5 L190.0,278.9 L194.6,277.2 L199.2,275.5 L203.8,273.8 L208.3,271.9 L212.9,270.0 L217.5,268.1 L222.1,266.1 L226.7,264.0 L231.2,261.9 L235.8,259.7 L240.4,257.4 L245.0,255.1 L249.6,252.7 L254.2,250.3 L258.8,247.7 L263.3,245.2 L267.9,242.5 L272.5,239.9 L277.1,237.1 L281.7,234.3 L286.2,231.4 L290.8,228.5 L295.4,225.5 L300.0,222.4 L304.6,219.3 L309.2,216.1 L313.8,212.9 L318.3,209.6 L322.9,206.2 L327.5,202.8 L332.1,199.3 L336.7,195.7 L341.2,192.1 L345.8,188.4 L350.4,184.7 L355.0,180.9 L359.6,177.0 L364.2,173.1 L368.7,169.1 L373.3,165.1 L377.9,160.9 L382.5,156.8 L387.1,152.5 L391.7,148.2 L396.3,143.9 L400.8,139.5 L405.4,135.0 L410.0,130.5 L414.6,125.9 L419.2,121.2 L423.8,116.5 L428.3,111.7 L432.9,106.8 L437.5,101.9" fill="none" stroke="#6366f1" stroke-width="2.8" stroke-linecap="round" stroke-linejoin="round"/>
  <line x1="212.5" y1="280.2" x2="415.0" y2="146.6" stroke="#fb7185" stroke-width="2.6" stroke-linecap="round"/>
  <circle cx="295.0" cy="225.8" r="4.5" fill="#fb7185"/>
  <circle cx="295.0" cy="225.8" r="6.0" fill="none" stroke="#fb7185" stroke-width="2"/>
  <line x1="295.0" y1="225.8" x2="400.0" y2="225.8" stroke="#94a3b8" stroke-width="1.6" stroke-linecap="round"/>
  <line x1="400.0" y1="225.8" x2="400.0" y2="156.4" stroke="#94a3b8" stroke-width="1.6" stroke-linecap="round"/>
  <text x="347.5" y="241.8" font-family="-apple-system,BlinkMacSystemFont,'Segoe UI',Roboto,Helvetica,Arial,sans-serif" font-size="11.5" font-weight="400" fill="#64748b" text-anchor="middle" opacity="1.0" dominant-baseline="middle">run</text>
  <text x="416.0" y="191.1" font-family="-apple-system,BlinkMacSystemFont,'Segoe UI',Roboto,Helvetica,Arial,sans-serif" font-size="11.5" font-weight="400" fill="#64748b" text-anchor="start" opacity="1.0" dominant-baseline="middle">rise</text>
  <text x="270.0" y="342.0" font-family="-apple-system,BlinkMacSystemFont,'Segoe UI',Roboto,Helvetica,Arial,sans-serif" font-size="13" font-weight="700" fill="#9f1239" text-anchor="middle" opacity="1.0" dominant-baseline="middle">slope = f '(x) = rise / run</text>
</svg>
