<svg viewBox="0 0 560 400" xmlns="http://www.w3.org/2000/svg" width="560" height="400" role="img">
  <rect x="0" y="0" width="560" height="400" fill="#ffffff"/>
  <text x="280.0" y="26.0" font-family="-apple-system,BlinkMacSystemFont,'Segoe UI',Roboto,Helvetica,Arial,sans-serif" font-size="17" font-weight="700" fill="#1f2937" text-anchor="middle" opacity="1.0" dominant-baseline="middle">Batch vs. mini-batch vs. stochastic</text>
  <circle cx="300.0" cy="190.0" r="34.0" fill="none" stroke="#c7d2fe" stroke-width="1.5"/>
  <circle cx="300.0" cy="190.0" r="68.0" fill="none" stroke="#c7d2fe" stroke-width="1.5"/>
  <circle cx="300.0" cy="190.0" r="102.0" fill="none" stroke="#c7d2fe" stroke-width="1.5"/>
  <circle cx="300.0" cy="190.0" r="136.0" fill="none" stroke="#c7d2fe" stroke-width="1.5"/>
  <circle cx="300.0" cy="190.0" r="4" fill="#f59e0b"/>
  <text x="312.0" y="186.0" font-family="-apple-system,BlinkMacSystemFont,'Segoe UI',Roboto,Helvetica,Arial,sans-serif" font-size="10.5" font-weight="400" fill="#92400e" text-anchor="start" opacity="1.0" dominant-baseline="middle">minimum</text>
  <line x1="150.0" y1="300.0" x2="165.0" y2="289.0" stroke="#10b981" stroke-width="2" stroke-linecap="round"/>
  <line x1="165.0" y1="289.0" x2="180.0" y2="278.0" stroke="#10b981" stroke-width="2" stroke-linecap="round"/>
  <line x1="180.0" y1="278.0" x2="195.0" y2="267.0" stroke="#10b981" stroke-width="2" stroke-linecap="round"/>
  <line x1="195.0" y1="267.0" x2="210.0" y2="256.0" stroke="#10b981" stroke-width="2" stroke-linecap="round"/>
  <line x1="210.0" y1="256.0" x2="225.0" y2="245.0" stroke="#10b981" stroke-width="2" stroke-linecap="round"/>
  <line x1="225.0" y1="245.0" x2="240.0" y2="234.0" stroke="#10b981" stroke-width="2" stroke-linecap="round"/>
  <line x1="240.0" y1="234.0" x2="255.0" y2="223.0" stroke="#10b981" stroke-width="2" stroke-linecap="round"/>
  <line x1="255.0" y1="223.0" x2="270.0" y2="212.0" stroke="#10b981" stroke-width="2" stroke-linecap="round"/>
  <line x1="270.0" y1="212.0" x2="285.0" y2="201.0" stroke="#10b981" stroke-width="2" stroke-linecap="round"/>
  <line x1="285.0" y1="201.0" x2="300.0" y2="190.0" stroke="#10b981" stroke-width="2" stroke-linecap="round"/>
  <path d="M300.0,190.0 L291.2,191.9 L295.5,197.8 Z" fill="#10b981"/>
  <text x="150.0" y="345.0" font-family="-apple-system,BlinkMacSystemFont,'Segoe UI',Roboto,Helvetica,Arial,sans-serif" font-size="11.5" font-weight="700" fill="#10b981" text-anchor="start" opacity="1.0" dominant-baseline="middle">batch: smooth, exact steps</text>
  <line x1="150.0" y1="300.0" x2="168.0" y2="294.8" stroke="#6366f1" stroke-width="2" stroke-linecap="round"/>
  <line x1="168.0" y1="294.8" x2="186.6" y2="287.9" stroke="#6366f1" stroke-width="2" stroke-linecap="round"/>
  <line x1="186.6" y1="287.9" x2="199.9" y2="275.7" stroke="#6366f1" stroke-width="2" stroke-linecap="round"/>
  <line x1="199.9" y1="275.7" x2="201.2" y2="255.4" stroke="#6366f1" stroke-width="2" stroke-linecap="round"/>
  <line x1="201.2" y1="255.4" x2="232.5" y2="247.5" stroke="#6366f1" stroke-width="2" stroke-linecap="round"/>
  <line x1="232.5" y1="247.5" x2="246.0" y2="228.2" stroke="#6366f1" stroke-width="2" stroke-linecap="round"/>
  <line x1="246.0" y1="228.2" x2="254.6" y2="219.6" stroke="#6366f1" stroke-width="2" stroke-linecap="round"/>
  <line x1="254.6" y1="219.6" x2="270.5" y2="212.8" stroke="#6366f1" stroke-width="2" stroke-linecap="round"/>
  <line x1="270.5" y1="212.8" x2="280.3" y2="198.3" stroke="#6366f1" stroke-width="2" stroke-linecap="round"/>
  <line x1="280.3" y1="198.3" x2="300.0" y2="190.0" stroke="#6366f1" stroke-width="2" stroke-linecap="round"/>
  <path d="M300.0,190.0 L291.0,189.8 L293.8,196.6 Z" fill="#6366f1"/>
  <text x="150.0" y="365.0" font-family="-apple-system,BlinkMacSystemFont,'Segoe UI',Roboto,Helvetica,Arial,sans-serif" font-size="11.5" font-weight="700" fill="#6366f1" text-anchor="start" opacity="1.0" dominant-baseline="middle">mini-batch: a little noisy</text>
  <line x1="150.0" y1="300.0" x2="150.8" y2="313.1" stroke="#fb7185" stroke-width="2" stroke-linecap="round"/>
  <line x1="150.8" y1="313.1" x2="162.0" y2="287.9" stroke="#fb7185" stroke-width="2" stroke-linecap="round"/>
  <line x1="162.0" y1="287.9" x2="176.6" y2="255.8" stroke="#fb7185" stroke-width="2" stroke-linecap="round"/>
  <line x1="176.6" y1="255.8" x2="230.1" y2="244.3" stroke="#fb7185" stroke-width="2" stroke-linecap="round"/>
  <line x1="230.1" y1="244.3" x2="230.2" y2="243.5" stroke="#fb7185" stroke-width="2" stroke-linecap="round"/>
  <line x1="230.2" y1="243.5" x2="238.5" y2="233.8" stroke="#fb7185" stroke-width="2" stroke-linecap="round"/>
  <line x1="238.5" y1="233.8" x2="246.2" y2="232.4" stroke="#fb7185" stroke-width="2" stroke-linecap="round"/>
  <line x1="246.2" y1="232.4" x2="259.9" y2="205.5" stroke="#fb7185" stroke-width="2" stroke-linecap="round"/>
  <line x1="259.9" y1="205.5" x2="275.1" y2="196.2" stroke="#fb7185" stroke-width="2" stroke-linecap="round"/>
  <line x1="275.1" y1="196.2" x2="300.0" y2="190.0" stroke="#fb7185" stroke-width="2" stroke-linecap="round"/>
  <path d="M300.0,190.0 L291.1,188.4 L292.9,195.5 Z" fill="#fb7185"/>
  <text x="150.0" y="385.0" font-family="-apple-system,BlinkMacSystemFont,'Segoe UI',Roboto,Helvetica,Arial,sans-serif" font-size="11.5" font-weight="700" fill="#fb7185" text-anchor="start" opacity="1.0" dominant-baseline="middle">stochastic: very noisy</text>
</svg>
