<svg viewBox="0 0 560 340" xmlns="http://www.w3.org/2000/svg" width="560" height="340" role="img">
  <rect x="0" y="0" width="560" height="340" fill="#ffffff"/>
  <text x="280.0" y="26.0" font-family="-apple-system,BlinkMacSystemFont,'Segoe UI',Roboto,Helvetica,Arial,sans-serif" font-size="17" font-weight="700" fill="#1f2937" text-anchor="middle" opacity="1.0" dominant-baseline="middle">The normal (Gaussian) distribution</text>
  <line x1="54.0" y1="260.0" x2="520.0" y2="260.0" stroke="#94a3b8" stroke-width="1.6" stroke-linecap="round"/>
  <line x1="70.0" y1="276.0" x2="70.0" y2="50.0" stroke="#94a3b8" stroke-width="1.6" stroke-linecap="round"/>
  <path d="M520.0,260.0 L512.7,256.7 L512.7,263.3 Z" fill="#94a3b8"/>
  <path d="M70.0,50.0 L66.7,57.3 L73.3,57.3 Z" fill="#94a3b8"/>
  <text x="523.0" y="275.0" font-family="-apple-system,BlinkMacSystemFont,'Segoe UI',Roboto,Helvetica,Arial,sans-serif" font-size="12" font-weight="400" fill="#64748b" text-anchor="middle" opacity="1.0" dominant-baseline="middle">x</text>
  <text x="57.0" y="49.0" font-family="-apple-system,BlinkMacSystemFont,'Segoe UI',Roboto,Helvetica,Arial,sans-serif" font-size="12" font-weight="400" fill="#64748b" text-anchor="middle" opacity="1.0" dominant-baseline="middle">density</text>
  <path d="M90.2,259.1 L94.8,258.9 L99.3,258.6 L103.9,258.3 L108.4,257.9 L113.0,257.4 L117.5,256.8 L122.1,256.1 L126.6,255.3 L131.2,254.3 L135.7,253.2 L140.3,251.9 L144.8,250.4 L149.4,248.7 L153.9,246.8 L158.5,244.6 L163.0,242.1 L167.6,239.3 L172.1,236.3 L176.7,232.8 L181.2,229.1 L185.8,225.0 L190.3,220.6 L194.9,215.9 L199.4,210.8 L204.0,205.4 L208.5,199.8 L213.1,193.9 L217.6,187.8 L222.2,181.5 L226.7,175.1 L231.3,168.6 L235.8,162.2 L240.4,155.8 L244.9,149.5 L249.5,143.5 L254.0,137.8 L258.6,132.4 L263.1,127.5 L267.7,123.1 L272.2,119.2 L276.8,115.9 L281.3,113.4 L285.9,111.5 L290.4,110.4 L295.0,110.0 L299.6,110.4 L304.1,111.5 L308.7,113.4 L313.2,115.9 L317.8,119.2 L322.3,123.1 L326.9,127.5 L331.4,132.4 L336.0,137.8 L340.5,143.5 L345.1,149.5 L349.6,155.8 L354.2,162.2 L358.7,168.6 L363.3,175.1 L367.8,181.5 L372.4,187.8 L376.9,193.9 L381.5,199.8 L386.0,205.4 L390.6,210.8 L395.1,215.9 L399.7,220.6 L404.2,225.0 L408.8,229.1 L413.3,232.8 L417.9,236.3 L422.4,239.3 L427.0,242.1 L431.5,244.6 L436.1,246.8 L440.6,248.7 L445.2,250.4 L449.7,251.9 L454.3,253.2 L458.8,254.3 L463.4,255.3 L467.9,256.1 L472.5,256.8 L477.0,257.4 L481.6,257.9 L486.1,258.3 L490.7,258.6 L495.2,258.9 L499.8,259.1" fill="none" stroke="#6366f1" stroke-width="2.8" stroke-linecap="round" stroke-linejoin="round"/>
  <line x1="295.0" y1="260.0" x2="295.0" y2="110.0" stroke="#fb7185" stroke-width="1.8" stroke-dasharray="6 5" stroke-linecap="round"/>
  <text x="295.0" y="276.0" font-family="-apple-system,BlinkMacSystemFont,'Segoe UI',Roboto,Helvetica,Arial,sans-serif" font-size="11" font-weight="400" fill="#9f1239" text-anchor="middle" opacity="1.0" dominant-baseline="middle">μ (mean)</text>
  <line x1="231.0" y1="260.0" x2="231.0" y2="169.0" stroke="#f59e0b" stroke-width="1.4" stroke-dasharray="6 5" stroke-linecap="round"/>
  <line x1="359.0" y1="260.0" x2="359.0" y2="169.0" stroke="#f59e0b" stroke-width="1.4" stroke-dasharray="6 5" stroke-linecap="round"/>
  <text x="359.0" y="276.0" font-family="-apple-system,BlinkMacSystemFont,'Segoe UI',Roboto,Helvetica,Arial,sans-serif" font-size="10.5" font-weight="400" fill="#92400e" text-anchor="middle" opacity="1.0" dominant-baseline="middle">μ+σ</text>
  <text x="231.0" y="276.0" font-family="-apple-system,BlinkMacSystemFont,'Segoe UI',Roboto,Helvetica,Arial,sans-serif" font-size="10.5" font-weight="400" fill="#92400e" text-anchor="middle" opacity="1.0" dominant-baseline="middle">μ−σ</text>
  <text x="295.0" y="185.0" font-family="-apple-system,BlinkMacSystemFont,'Segoe UI',Roboto,Helvetica,Arial,sans-serif" font-size="11.5" font-weight="700" fill="#312e81" text-anchor="middle" opacity="1.0" dominant-baseline="middle">≈68% within ±σ</text>
</svg>
