<svg viewBox="0 0 740 330" xmlns="http://www.w3.org/2000/svg" width="740" height="330" role="img">
  <rect x="0" y="0" width="740" height="330" fill="#ffffff"/>
  <text x="370.0" y="26.0" font-family="-apple-system,BlinkMacSystemFont,'Segoe UI',Roboto,Helvetica,Arial,sans-serif" font-size="17" font-weight="700" fill="#1f2937" text-anchor="middle" opacity="1.0" dominant-baseline="middle">Attention: each word gathers info from the words it relates to</text>
  <rect x="41.0" y="90.0" width="78.0" height="40.0" rx="12" fill="#eef2ff" stroke="#6366f1" stroke-width="1.8"/>
  <text x="80.0" y="114.2" font-family="-apple-system,BlinkMacSystemFont,'Segoe UI',Roboto,Helvetica,Arial,sans-serif" font-size="12.5" font-weight="400" fill="#312e81" text-anchor="middle" dominant-baseline="middle">the</text>
  <rect x="136.0" y="90.0" width="78.0" height="40.0" rx="12" fill="#eef2ff" stroke="#6366f1" stroke-width="1.8"/>
  <text x="175.0" y="114.2" font-family="-apple-system,BlinkMacSystemFont,'Segoe UI',Roboto,Helvetica,Arial,sans-serif" font-size="12.5" font-weight="400" fill="#312e81" text-anchor="middle" dominant-baseline="middle">cat</text>
  <rect x="231.0" y="90.0" width="78.0" height="40.0" rx="12" fill="#eef2ff" stroke="#6366f1" stroke-width="1.8"/>
  <text x="270.0" y="114.2" font-family="-apple-system,BlinkMacSystemFont,'Segoe UI',Roboto,Helvetica,Arial,sans-serif" font-size="12.5" font-weight="400" fill="#312e81" text-anchor="middle" dominant-baseline="middle">sat</text>
  <rect x="326.0" y="90.0" width="78.0" height="40.0" rx="12" fill="#eef2ff" stroke="#6366f1" stroke-width="1.8"/>
  <text x="365.0" y="114.2" font-family="-apple-system,BlinkMacSystemFont,'Segoe UI',Roboto,Helvetica,Arial,sans-serif" font-size="12.5" font-weight="400" fill="#312e81" text-anchor="middle" dominant-baseline="middle">because</text>
  <rect x="421.0" y="90.0" width="78.0" height="40.0" rx="12" fill="#fff1f3" stroke="#fb7185" stroke-width="1.8"/>
  <text x="460.0" y="114.2" font-family="-apple-system,BlinkMacSystemFont,'Segoe UI',Roboto,Helvetica,Arial,sans-serif" font-size="12.5" font-weight="400" fill="#9f1239" text-anchor="middle" dominant-baseline="middle">it</text>
  <rect x="516.0" y="90.0" width="78.0" height="40.0" rx="12" fill="#eef2ff" stroke="#6366f1" stroke-width="1.8"/>
  <text x="555.0" y="114.2" font-family="-apple-system,BlinkMacSystemFont,'Segoe UI',Roboto,Helvetica,Arial,sans-serif" font-size="12.5" font-weight="400" fill="#312e81" text-anchor="middle" dominant-baseline="middle">was</text>
  <rect x="611.0" y="90.0" width="78.0" height="40.0" rx="12" fill="#eef2ff" stroke="#6366f1" stroke-width="1.8"/>
  <text x="650.0" y="114.2" font-family="-apple-system,BlinkMacSystemFont,'Segoe UI',Roboto,Helvetica,Arial,sans-serif" font-size="12.5" font-weight="400" fill="#312e81" text-anchor="middle" dominant-baseline="middle">tired</text>
  <path d="M460.0,130.0 L270.0,235.0 L80.0,130.0" fill="none" stroke="#fb7185" stroke-width="1.08" stroke-linejoin="round" stroke-linecap="round"/>
  <path d="M80.0,130.0 L86.0,138.0 L90.0,130.9 Z" fill="#fb7185"/>
  <path d="M460.0,130.0 L317.5,235.0 L175.0,130.0" fill="none" stroke="#fb7185" stroke-width="4.65" stroke-linejoin="round" stroke-linecap="round"/>
  <path d="M175.0,130.0 L179.9,138.7 L184.8,132.1 Z" fill="#fb7185"/>
  <path d="M460.0,130.0 L365.0,235.0 L270.0,130.0" fill="none" stroke="#fb7185" stroke-width="1.6400000000000001" stroke-linejoin="round" stroke-linecap="round"/>
  <path d="M270.0,130.0 L273.1,139.5 L279.1,134.0 Z" fill="#fb7185"/>
  <path d="M460.0,130.0 L412.5,235.0 L365.0,130.0" fill="none" stroke="#fb7185" stroke-width="1.08" stroke-linejoin="round" stroke-linecap="round"/>
  <path d="M365.0,130.0 L365.1,140.0 L372.5,136.6 Z" fill="#fb7185"/>
  <path d="M460.0,130.0 L507.5,235.0 L555.0,130.0" fill="none" stroke="#fb7185" stroke-width="1.01" stroke-linejoin="round" stroke-linecap="round"/>
  <path d="M555.0,130.0 L547.5,136.6 L554.9,140.0 Z" fill="#fb7185"/>
  <path d="M460.0,130.0 L555.0,235.0 L650.0,130.0" fill="none" stroke="#fb7185" stroke-width="2.2" stroke-linejoin="round" stroke-linecap="round"/>
  <path d="M650.0,130.0 L640.9,134.0 L646.9,139.5 Z" fill="#fb7185"/>
  <text x="460.0" y="270.0" font-family="-apple-system,BlinkMacSystemFont,'Segoe UI',Roboto,Helvetica,Arial,sans-serif" font-size="11.5" font-weight="700" fill="#9f1239" text-anchor="middle" opacity="1.0" dominant-baseline="middle">"it" attends most to "cat" (its referent)</text>
  <text x="370.0" y="306.0" font-family="-apple-system,BlinkMacSystemFont,'Segoe UI',Roboto,Helvetica,Arial,sans-serif" font-size="11" font-weight="400" fill="#64748b" text-anchor="middle" opacity="1.0" dominant-baseline="middle">thicker line = stronger attention; the query word builds its meaning from the most relevant words</text>
</svg>
