<svg viewBox="0 0 620 440" xmlns="http://www.w3.org/2000/svg" width="620" height="440" role="img">
  <rect x="0" y="0" width="620" height="440" fill="#ffffff"/>
  <text x="310.0" y="26.0" font-family="-apple-system,BlinkMacSystemFont,'Segoe UI',Roboto,Helvetica,Arial,sans-serif" font-size="17" font-weight="700" fill="#1f2937" text-anchor="middle" opacity="1.0" dominant-baseline="middle">One transformer block</text>
  <rect x="180.0" y="380.0" width="260.0" height="40.0" rx="12" fill="#f0f9ff" stroke="#38bdf8" stroke-width="1.8"/>
  <text x="310.0" y="404.2" font-family="-apple-system,BlinkMacSystemFont,'Segoe UI',Roboto,Helvetica,Arial,sans-serif" font-size="12.5" font-weight="400" fill="#075985" text-anchor="middle" dominant-baseline="middle">input (token vectors)</text>
  <rect x="180.0" y="298.0" width="260.0" height="44.0" rx="12" fill="#fff1f3" stroke="#fb7185" stroke-width="1.8"/>
  <text x="310.0" y="324.2" font-family="-apple-system,BlinkMacSystemFont,'Segoe UI',Roboto,Helvetica,Arial,sans-serif" font-size="12.5" font-weight="400" fill="#9f1239" text-anchor="middle" dominant-baseline="middle">multi-head self-attention</text>
  <rect x="220.0" y="237.0" width="180.0" height="36.0" rx="12" fill="#f8fafc" stroke="#cbd5e1" stroke-width="1.8"/>
  <text x="310.0" y="259.1" font-family="-apple-system,BlinkMacSystemFont,'Segoe UI',Roboto,Helvetica,Arial,sans-serif" font-size="12" font-weight="400" fill="#475569" text-anchor="middle" dominant-baseline="middle">add &amp; norm</text>
  <rect x="180.0" y="158.0" width="260.0" height="44.0" rx="12" fill="#fffbeb" stroke="#f59e0b" stroke-width="1.8"/>
  <text x="310.0" y="184.2" font-family="-apple-system,BlinkMacSystemFont,'Segoe UI',Roboto,Helvetica,Arial,sans-serif" font-size="12.5" font-weight="400" fill="#92400e" text-anchor="middle" dominant-baseline="middle">feed-forward network (MLP)</text>
  <rect x="220.0" y="97.0" width="180.0" height="36.0" rx="12" fill="#f8fafc" stroke="#cbd5e1" stroke-width="1.8"/>
  <text x="310.0" y="119.1" font-family="-apple-system,BlinkMacSystemFont,'Segoe UI',Roboto,Helvetica,Arial,sans-serif" font-size="12" font-weight="400" fill="#475569" text-anchor="middle" dominant-baseline="middle">add &amp; norm</text>
  <rect x="180.0" y="38.0" width="260.0" height="40.0" rx="12" fill="#f5f3ff" stroke="#8b5cf6" stroke-width="1.8"/>
  <text x="310.0" y="62.2" font-family="-apple-system,BlinkMacSystemFont,'Segoe UI',Roboto,Helvetica,Arial,sans-serif" font-size="12.5" font-weight="400" fill="#5b21b6" text-anchor="middle" dominant-baseline="middle">output (same shape)</text>
  <line x1="310.0" y1="380.0" x2="310.0" y2="342.0" stroke="#475569" stroke-width="2.0" stroke-linecap="round"/>
  <path d="M310.0,342.0 L305.9,351.1 L314.1,351.1 Z" fill="#475569"/>
  <line x1="310.0" y1="298.0" x2="310.0" y2="273.0" stroke="#475569" stroke-width="2.0" stroke-linecap="round"/>
  <path d="M310.0,273.0 L305.9,282.1 L314.1,282.1 Z" fill="#475569"/>
  <line x1="310.0" y1="237.0" x2="310.0" y2="202.0" stroke="#475569" stroke-width="2.0" stroke-linecap="round"/>
  <path d="M310.0,202.0 L305.9,211.1 L314.1,211.1 Z" fill="#475569"/>
  <line x1="310.0" y1="158.0" x2="310.0" y2="133.0" stroke="#475569" stroke-width="2.0" stroke-linecap="round"/>
  <path d="M310.0,133.0 L305.9,142.1 L314.1,142.1 Z" fill="#475569"/>
  <line x1="310.0" y1="97.0" x2="310.0" y2="78.0" stroke="#475569" stroke-width="2.0" stroke-linecap="round"/>
  <path d="M310.0,78.0 L305.9,87.1 L314.1,87.1 Z" fill="#475569"/>
  <path d="M180.0,395.0 L150.0,395.0 L150.0,255.0 L216.0,255.0" fill="none" stroke="#10b981" stroke-width="1.8" stroke-dasharray="6 5" stroke-linejoin="round" stroke-linecap="round"/>
  <path d="M216.0,255.0 L206.9,250.9 L206.9,259.1 Z" fill="#10b981"/>
  <path d="M180.0,250.0 L150.0,250.0 L150.0,115.0 L216.0,115.0" fill="none" stroke="#10b981" stroke-width="1.8" stroke-dasharray="6 5" stroke-linejoin="round" stroke-linecap="round"/>
  <path d="M216.0,115.0 L206.9,110.9 L206.9,119.1 Z" fill="#10b981"/>
  <text x="120.0" y="330.0" font-family="-apple-system,BlinkMacSystemFont,'Segoe UI',Roboto,Helvetica,Arial,sans-serif" font-size="10.5" font-weight="400" fill="#065f46" text-anchor="middle" opacity="1.0" dominant-baseline="middle">residual</text>
  <text x="120.0" y="344.0" font-family="-apple-system,BlinkMacSystemFont,'Segoe UI',Roboto,Helvetica,Arial,sans-serif" font-size="10.5" font-weight="400" fill="#065f46" text-anchor="middle" opacity="1.0" dominant-baseline="middle">(skip)</text>
  <text x="500.0" y="255.0" font-family="-apple-system,BlinkMacSystemFont,'Segoe UI',Roboto,Helvetica,Arial,sans-serif" font-size="10.2" font-weight="400" fill="#64748b" text-anchor="middle" opacity="1.0" dominant-baseline="middle">attention mixes</text>
  <text x="500.0" y="269.0" font-family="-apple-system,BlinkMacSystemFont,'Segoe UI',Roboto,Helvetica,Arial,sans-serif" font-size="10.2" font-weight="400" fill="#64748b" text-anchor="middle" opacity="1.0" dominant-baseline="middle">across tokens</text>
  <text x="500.0" y="180.0" font-family="-apple-system,BlinkMacSystemFont,'Segoe UI',Roboto,Helvetica,Arial,sans-serif" font-size="10.2" font-weight="400" fill="#64748b" text-anchor="middle" opacity="1.0" dominant-baseline="middle">FFN transforms</text>
  <text x="500.0" y="194.0" font-family="-apple-system,BlinkMacSystemFont,'Segoe UI',Roboto,Helvetica,Arial,sans-serif" font-size="10.2" font-weight="400" fill="#64748b" text-anchor="middle" opacity="1.0" dominant-baseline="middle">each token</text>
</svg>
