<svg viewBox="0 0 720 350" xmlns="http://www.w3.org/2000/svg" width="720" height="350" role="img">
  <rect x="0" y="0" width="720" height="350" fill="#ffffff"/>
  <text x="360.0" y="26.0" font-family="-apple-system,BlinkMacSystemFont,'Segoe UI',Roboto,Helvetica,Arial,sans-serif" font-size="17" font-weight="700" fill="#1f2937" text-anchor="middle" opacity="1.0" dominant-baseline="middle">Drift: the world changes, the model goes stale</text>
  <line x1="70.0" y1="210.0" x2="320.0" y2="210.0" stroke="#475569" stroke-width="1.8" stroke-linecap="round"/>
  <line x1="70.0" y1="210.0" x2="70.0" y2="70.0" stroke="#475569" stroke-width="1.8" stroke-linecap="round"/>
  <text x="195.0" y="238.0" font-family="-apple-system,BlinkMacSystemFont,'Segoe UI',Roboto,Helvetica,Arial,sans-serif" font-size="12.5" font-weight="400" fill="#64748b" text-anchor="middle" opacity="1.0" dominant-baseline="middle">input value</text>
  <text x="36.0" y="140.0" font-family="-apple-system,BlinkMacSystemFont,'Segoe UI',Roboto,Helvetica,Arial,sans-serif" font-size="12.5" fill="#64748b" text-anchor="middle" transform="rotate(-90 36.0 140.0)">frequency</text>
  <path d="M70.0,207.3 L72.8,206.5 L75.6,205.5 L78.3,204.4 L81.1,202.9 L83.9,201.2 L86.7,199.2 L89.4,196.8 L92.2,194.1 L95.0,190.9 L97.8,187.3 L100.6,183.2 L103.3,178.7 L106.1,173.7 L108.9,168.3 L111.7,162.5 L114.4,156.3 L117.2,149.9 L120.0,143.3 L122.8,136.5 L125.6,129.8 L128.3,123.2 L131.1,116.9 L133.9,111.0 L136.7,105.6 L139.4,100.8 L142.2,96.8 L145.0,93.7 L147.8,91.5 L150.6,90.3 L153.3,90.0 L156.1,90.9 L158.9,92.7 L161.7,95.5 L164.4,99.1 L167.2,103.6 L170.0,108.8 L172.8,114.5 L175.6,120.7 L178.3,127.2 L181.1,133.8 L183.9,140.6 L186.7,147.3 L189.4,153.8 L192.2,160.1 L195.0,166.0 L197.8,171.6 L200.6,176.7 L203.3,181.4 L206.1,185.7 L208.9,189.5 L211.7,192.8 L214.4,195.8 L217.2,198.3 L220.0,200.5 L222.8,202.3 L225.6,203.8 L228.3,205.1 L231.1,206.1 L233.9,207.0 L236.7,207.7 L239.4,208.2 L242.2,208.6 L245.0,209.0 L247.8,209.2 L250.6,209.4 L253.3,209.6 L256.1,209.7 L258.9,209.8 L261.7,209.8 L264.4,209.9 L267.2,209.9 L270.0,209.9 L272.8,210.0 L275.6,210.0 L278.3,210.0 L281.1,210.0 L283.9,210.0 L286.7,210.0 L289.4,210.0 L292.2,210.0 L295.0,210.0 L297.8,210.0 L300.6,210.0 L303.3,210.0 L306.1,210.0 L308.9,210.0 L311.7,210.0 L314.4,210.0 L317.2,210.0 L320.0,210.0" fill="none" stroke="#38bdf8" stroke-width="2.6"/>
  <path d="M70.0,210.0 L72.8,210.0 L75.6,210.0 L78.3,210.0 L81.1,210.0 L83.9,210.0 L86.7,210.0 L89.4,210.0 L92.2,210.0 L95.0,210.0 L97.8,210.0 L100.6,210.0 L103.3,210.0 L106.1,210.0 L108.9,210.0 L111.7,210.0 L114.4,210.0 L117.2,209.9 L120.0,209.9 L122.8,209.9 L125.6,209.8 L128.3,209.8 L131.1,209.7 L133.9,209.6 L136.7,209.4 L139.4,209.2 L142.2,209.0 L145.0,208.7 L147.8,208.2 L150.6,207.7 L153.3,207.0 L156.1,206.2 L158.9,205.2 L161.7,204.0 L164.4,202.4 L167.2,200.7 L170.0,198.5 L172.8,196.0 L175.6,193.1 L178.3,189.8 L181.1,186.1 L183.9,181.9 L186.7,177.2 L189.4,172.1 L192.2,166.6 L195.0,160.7 L197.8,154.4 L200.6,147.9 L203.3,141.3 L206.1,134.5 L208.9,127.8 L211.7,121.3 L214.4,115.1 L217.2,109.3 L220.0,104.1 L222.8,99.6 L225.6,95.8 L228.3,92.9 L231.1,91.0 L233.9,90.1 L236.7,90.2 L239.4,91.3 L242.2,93.4 L245.0,96.5 L247.8,100.4 L250.6,105.1 L253.3,110.4 L256.1,116.3 L258.9,122.6 L261.7,129.2 L264.4,135.9 L267.2,142.6 L270.0,149.2 L272.8,155.7 L275.6,161.9 L278.3,167.7 L281.1,173.2 L283.9,178.2 L286.7,182.8 L289.4,186.9 L292.2,190.5 L295.0,193.8 L297.8,196.6 L300.6,199.0 L303.3,201.0 L306.1,202.8 L308.9,204.2 L311.7,205.4 L314.4,206.4 L317.2,207.2 L320.0,207.8" fill="none" stroke="#fb7185" stroke-width="2.6" stroke-dasharray="6 5"/>
  <text x="118.0" y="96.0" font-family="-apple-system,BlinkMacSystemFont,'Segoe UI',Roboto,Helvetica,Arial,sans-serif" font-size="12" font-weight="700" fill="#075985" text-anchor="middle" opacity="1.0" dominant-baseline="middle">train</text>
  <text x="262.0" y="96.0" font-family="-apple-system,BlinkMacSystemFont,'Segoe UI',Roboto,Helvetica,Arial,sans-serif" font-size="12" font-weight="700" fill="#9f1239" text-anchor="middle" opacity="1.0" dominant-baseline="middle">live now</text>
  <text x="195.0" y="250.0" font-family="-apple-system,BlinkMacSystemFont,'Segoe UI',Roboto,Helvetica,Arial,sans-serif" font-size="13" font-weight="700" fill="#1f2937" text-anchor="middle" opacity="1.0" dominant-baseline="middle">Data drift</text>
  <text x="195.0" y="270.0" font-family="-apple-system,BlinkMacSystemFont,'Segoe UI',Roboto,Helvetica,Arial,sans-serif" font-size="11.5" font-weight="400" fill="#64748b" text-anchor="middle" opacity="1.0" dominant-baseline="middle">inputs shift</text>
  <line x1="420.0" y1="210.0" x2="670.0" y2="210.0" stroke="#475569" stroke-width="1.8" stroke-linecap="round"/>
  <line x1="420.0" y1="210.0" x2="420.0" y2="70.0" stroke="#475569" stroke-width="1.8" stroke-linecap="round"/>
  <text x="545.0" y="238.0" font-family="-apple-system,BlinkMacSystemFont,'Segoe UI',Roboto,Helvetica,Arial,sans-serif" font-size="12.5" font-weight="400" fill="#64748b" text-anchor="middle" opacity="1.0" dominant-baseline="middle">input</text>
  <text x="386.0" y="140.0" font-family="-apple-system,BlinkMacSystemFont,'Segoe UI',Roboto,Helvetica,Arial,sans-serif" font-size="12.5" fill="#64748b" text-anchor="middle" transform="rotate(-90 386.0 140.0)">correct output</text>
  <path d="M420.0,180.0 L670.0,108.0" fill="none" stroke="#10b981" stroke-width="2.6"/>
  <path d="M420.0,114.0 L670.0,174.0" fill="none" stroke="#fb7185" stroke-width="2.6" stroke-dasharray="6 5"/>
  <text x="470.0" y="96.0" font-family="-apple-system,BlinkMacSystemFont,'Segoe UI',Roboto,Helvetica,Arial,sans-serif" font-size="12" font-weight="700" fill="#065f46" text-anchor="middle" opacity="1.0" dominant-baseline="middle">old rule</text>
  <text x="470.0" y="150.0" font-family="-apple-system,BlinkMacSystemFont,'Segoe UI',Roboto,Helvetica,Arial,sans-serif" font-size="12" font-weight="700" fill="#9f1239" text-anchor="middle" opacity="1.0" dominant-baseline="middle">new rule</text>
  <text x="545.0" y="250.0" font-family="-apple-system,BlinkMacSystemFont,'Segoe UI',Roboto,Helvetica,Arial,sans-serif" font-size="13" font-weight="700" fill="#1f2937" text-anchor="middle" opacity="1.0" dominant-baseline="middle">Concept drift</text>
  <text x="545.0" y="270.0" font-family="-apple-system,BlinkMacSystemFont,'Segoe UI',Roboto,Helvetica,Arial,sans-serif" font-size="11.5" font-weight="400" fill="#64748b" text-anchor="middle" opacity="1.0" dominant-baseline="middle">the right answer shifts</text>
  <text x="360.0" y="326.0" font-family="-apple-system,BlinkMacSystemFont,'Segoe UI',Roboto,Helvetica,Arial,sans-serif" font-size="12.5" font-weight="400" fill="#64748b" text-anchor="middle" opacity="1.0" dominant-baseline="middle">Either way accuracy decays — which is why you monitor and retrain.</text>
</svg>
