<svg viewBox="0 0 700 340" xmlns="http://www.w3.org/2000/svg" width="700" height="340" role="img">
  <rect x="0" y="0" width="700" height="340" fill="#ffffff"/>
  <text x="350.0" y="26.0" font-family="-apple-system,BlinkMacSystemFont,'Segoe UI',Roboto,Helvetica,Arial,sans-serif" font-size="17" font-weight="700" fill="#1f2937" text-anchor="middle" opacity="1.0" dominant-baseline="middle">HNSW: a layered graph for fast approximate search</text>
  <text x="40.0" y="92.0" font-family="-apple-system,BlinkMacSystemFont,'Segoe UI',Roboto,Helvetica,Arial,sans-serif" font-size="9.6" font-weight="400" fill="#64748b" text-anchor="start" opacity="1.0" dominant-baseline="middle">top (sparse, long hops)</text>
  <circle cx="140.0" cy="108.0" r="7.0" fill="#eef2ff" stroke="#6366f1" stroke-width="1.5"/>
  <circle cx="360.0" cy="108.0" r="7.0" fill="#eef2ff" stroke="#6366f1" stroke-width="1.5"/>
  <circle cx="560.0" cy="108.0" r="7.0" fill="#eef2ff" stroke="#6366f1" stroke-width="1.5"/>
  <line x1="147.0" y1="108.0" x2="353.0" y2="108.0" stroke="#c7d2fe" stroke-width="1.2" stroke-linecap="round"/>
  <line x1="367.0" y1="108.0" x2="553.0" y2="108.0" stroke="#c7d2fe" stroke-width="1.2" stroke-linecap="round"/>
  <text x="40.0" y="169.0" font-family="-apple-system,BlinkMacSystemFont,'Segoe UI',Roboto,Helvetica,Arial,sans-serif" font-size="9.6" font-weight="400" fill="#64748b" text-anchor="start" opacity="1.0" dominant-baseline="middle">middle</text>
  <circle cx="110.0" cy="185.0" r="7.0" fill="#eef2ff" stroke="#6366f1" stroke-width="1.5"/>
  <circle cx="250.0" cy="185.0" r="7.0" fill="#eef2ff" stroke="#6366f1" stroke-width="1.5"/>
  <circle cx="400.0" cy="185.0" r="7.0" fill="#eef2ff" stroke="#6366f1" stroke-width="1.5"/>
  <circle cx="540.0" cy="185.0" r="7.0" fill="#eef2ff" stroke="#6366f1" stroke-width="1.5"/>
  <circle cx="610.0" cy="185.0" r="7.0" fill="#eef2ff" stroke="#6366f1" stroke-width="1.5"/>
  <line x1="117.0" y1="185.0" x2="243.0" y2="185.0" stroke="#c7d2fe" stroke-width="1.2" stroke-linecap="round"/>
  <line x1="257.0" y1="185.0" x2="393.0" y2="185.0" stroke="#c7d2fe" stroke-width="1.2" stroke-linecap="round"/>
  <line x1="407.0" y1="185.0" x2="533.0" y2="185.0" stroke="#c7d2fe" stroke-width="1.2" stroke-linecap="round"/>
  <line x1="547.0" y1="185.0" x2="603.0" y2="185.0" stroke="#c7d2fe" stroke-width="1.2" stroke-linecap="round"/>
  <text x="40.0" y="250.0" font-family="-apple-system,BlinkMacSystemFont,'Segoe UI',Roboto,Helvetica,Arial,sans-serif" font-size="9.6" font-weight="400" fill="#64748b" text-anchor="start" opacity="1.0" dominant-baseline="middle">bottom (dense, all points)</text>
  <circle cx="90.0" cy="266.0" r="7.0" fill="#eef2ff" stroke="#6366f1" stroke-width="1.5"/>
  <circle cx="170.0" cy="266.0" r="7.0" fill="#eef2ff" stroke="#6366f1" stroke-width="1.5"/>
  <circle cx="250.0" cy="266.0" r="7.0" fill="#eef2ff" stroke="#6366f1" stroke-width="1.5"/>
  <circle cx="330.0" cy="266.0" r="7.0" fill="#eef2ff" stroke="#6366f1" stroke-width="1.5"/>
  <circle cx="410.0" cy="266.0" r="7.0" fill="#eef2ff" stroke="#6366f1" stroke-width="1.5"/>
  <circle cx="490.0" cy="266.0" r="7.0" fill="#eef2ff" stroke="#6366f1" stroke-width="1.5"/>
  <circle cx="570.0" cy="266.0" r="7.0" fill="#eef2ff" stroke="#6366f1" stroke-width="1.5"/>
  <circle cx="640.0" cy="266.0" r="7.0" fill="#eef2ff" stroke="#6366f1" stroke-width="1.5"/>
  <line x1="97.0" y1="266.0" x2="163.0" y2="266.0" stroke="#c7d2fe" stroke-width="1.2" stroke-linecap="round"/>
  <line x1="177.0" y1="266.0" x2="243.0" y2="266.0" stroke="#c7d2fe" stroke-width="1.2" stroke-linecap="round"/>
  <line x1="257.0" y1="266.0" x2="323.0" y2="266.0" stroke="#c7d2fe" stroke-width="1.2" stroke-linecap="round"/>
  <line x1="337.0" y1="266.0" x2="403.0" y2="266.0" stroke="#c7d2fe" stroke-width="1.2" stroke-linecap="round"/>
  <line x1="417.0" y1="266.0" x2="483.0" y2="266.0" stroke="#c7d2fe" stroke-width="1.2" stroke-linecap="round"/>
  <line x1="497.0" y1="266.0" x2="563.0" y2="266.0" stroke="#c7d2fe" stroke-width="1.2" stroke-linecap="round"/>
  <line x1="577.0" y1="266.0" x2="633.0" y2="266.0" stroke="#c7d2fe" stroke-width="1.2" stroke-linecap="round"/>
  <circle cx="140.0" cy="108.0" r="4" fill="#9f1239"/>
  <circle cx="250.0" cy="185.0" r="4" fill="#9f1239"/>
  <circle cx="250.0" cy="266.0" r="4" fill="#9f1239"/>
  <line x1="140.0" y1="114.0" x2="250.0" y2="179.0" stroke="#fb7185" stroke-width="1.8" stroke-linecap="round"/>
  <path d="M250.0,179.0 L245.4,172.5 L242.1,178.1 Z" fill="#fb7185"/>
  <line x1="250.0" y1="191.0" x2="250.0" y2="260.0" stroke="#fb7185" stroke-width="1.8" stroke-linecap="round"/>
  <path d="M250.0,260.0 L253.3,252.7 L246.7,252.7 Z" fill="#fb7185"/>
  <text x="360.0" y="300.0" font-family="-apple-system,BlinkMacSystemFont,'Segoe UI',Roboto,Helvetica,Arial,sans-serif" font-size="10.4" font-weight="400" fill="#64748b" text-anchor="middle" opacity="1.0" dominant-baseline="middle">start at the sparse top layer (big jumps), descend toward the target — log-time search over millions of vectors</text>
</svg>
