<svg viewBox="0 0 660 330" xmlns="http://www.w3.org/2000/svg" width="660" height="330" role="img">
  <rect x="0" y="0" width="660" height="330" fill="#ffffff"/>
  <text x="330.0" y="26.0" font-family="-apple-system,BlinkMacSystemFont,'Segoe UI',Roboto,Helvetica,Arial,sans-serif" font-size="17" font-weight="700" fill="#1f2937" text-anchor="middle" opacity="1.0" dominant-baseline="middle">SLAs target the tail: p95 and p99, not the average</text>
  <line x1="70.0" y1="250.0" x2="590.0" y2="250.0" stroke="#475569" stroke-width="1.8" stroke-linecap="round"/>
  <line x1="70.0" y1="250.0" x2="70.0" y2="80.0" stroke="#475569" stroke-width="1.8" stroke-linecap="round"/>
  <text x="330.0" y="278.0" font-family="-apple-system,BlinkMacSystemFont,'Segoe UI',Roboto,Helvetica,Arial,sans-serif" font-size="12.5" font-weight="400" fill="#64748b" text-anchor="middle" opacity="1.0" dominant-baseline="middle">request latency (ms)</text>
  <text x="36.0" y="165.0" font-family="-apple-system,BlinkMacSystemFont,'Segoe UI',Roboto,Helvetica,Arial,sans-serif" font-size="12.5" fill="#64748b" text-anchor="middle" transform="rotate(-90 36.0 165.0)">frequency</text>
  <path d="M70.0,247.2 L75.8,218.8 L81.5,194.0 L87.3,172.6 L93.1,154.1 L98.9,138.4 L104.6,125.1 L110.4,113.9 L116.2,104.7 L121.9,97.3 L127.7,91.4 L133.5,86.9 L139.3,83.7 L145.0,81.5 L150.8,80.3 L156.6,80.0 L162.4,80.4 L168.1,81.5 L173.9,83.1 L179.7,85.2 L185.4,87.8 L191.2,90.7 L197.0,93.9 L202.8,97.3 L208.5,101.0 L214.3,104.8 L220.1,108.7 L225.8,112.8 L231.6,116.9 L237.4,121.0 L243.2,125.2 L248.9,129.3 L254.7,133.5 L260.5,137.6 L266.2,141.7 L272.0,145.7 L277.8,149.6 L283.6,153.5 L289.3,157.3 L295.1,160.9 L300.9,164.6 L306.7,168.1 L312.4,171.5 L318.2,174.8 L324.0,178.0 L329.7,181.1 L335.5,184.1 L341.3,187.0 L347.1,189.8 L352.8,192.5 L358.6,195.2 L364.4,197.7 L370.1,200.1 L375.9,202.4 L381.7,204.6 L387.5,206.8 L393.2,208.8 L399.0,210.8 L404.8,212.7 L410.5,214.5 L416.3,216.2 L422.1,217.8 L427.9,219.4 L433.6,220.9 L439.4,222.4 L445.2,223.8 L451.0,225.1 L456.7,226.3 L462.5,227.5 L468.3,228.7 L474.0,229.7 L479.8,230.8 L485.6,231.8 L491.4,232.7 L497.1,233.6 L502.9,234.4 L508.7,235.3 L514.4,236.0 L520.2,236.8 L526.0,237.4 L531.8,238.1 L537.5,238.7 L543.3,239.3 L549.1,239.9 L554.8,240.4 L560.6,240.9 L566.4,241.4 L572.2,241.9 L577.9,242.3 L583.7,242.7 L589.5,243.1" fill="none" stroke="#6366f1" stroke-width="2.6"/>
  <line x1="163.6" y1="250.0" x2="163.6" y2="86.0" stroke="#065f46" stroke-width="1.8" stroke-dasharray="6 5" stroke-linecap="round"/>
  <text x="163.6" y="78.0" font-family="-apple-system,BlinkMacSystemFont,'Segoe UI',Roboto,Helvetica,Arial,sans-serif" font-size="11.5" font-weight="700" fill="#065f46" text-anchor="middle" opacity="1.0" dominant-baseline="middle">p50 ~70ms</text>
  <line x1="330.0" y1="250.0" x2="330.0" y2="86.0" stroke="#92400e" stroke-width="1.8" stroke-dasharray="6 5" stroke-linecap="round"/>
  <text x="330.0" y="78.0" font-family="-apple-system,BlinkMacSystemFont,'Segoe UI',Roboto,Helvetica,Arial,sans-serif" font-size="11.5" font-weight="700" fill="#92400e" text-anchor="middle" opacity="1.0" dominant-baseline="middle">p95 ~200ms</text>
  <line x1="444.4" y1="250.0" x2="444.4" y2="86.0" stroke="#9f1239" stroke-width="1.8" stroke-dasharray="6 5" stroke-linecap="round"/>
  <text x="444.4" y="78.0" font-family="-apple-system,BlinkMacSystemFont,'Segoe UI',Roboto,Helvetica,Arial,sans-serif" font-size="11.5" font-weight="700" fill="#9f1239" text-anchor="middle" opacity="1.0" dominant-baseline="middle">p99 ~290ms</text>
  <text x="330.0" y="300.0" font-family="-apple-system,BlinkMacSystemFont,'Segoe UI',Roboto,Helvetica,Arial,sans-serif" font-size="12.5" font-weight="400" fill="#64748b" text-anchor="middle" opacity="1.0" dominant-baseline="middle">Most requests are fast, but a long tail is slow — users feel the tail, so SLAs are set on p95/p99.</text>
</svg>
