<svg viewBox="0 0 760 385" xmlns="http://www.w3.org/2000/svg" width="760" height="385" role="img">
  <rect x="0" y="0" width="760" height="385" fill="#ffffff"/>
  <text x="380.0" y="26.0" font-family="-apple-system,BlinkMacSystemFont,'Segoe UI',Roboto,Helvetica,Arial,sans-serif" font-size="17" font-weight="700" fill="#1f2937" text-anchor="middle" opacity="1.0" dominant-baseline="middle">RAG at scale: separate the index pipeline from serving</text>
  <text x="250.0" y="58.0" font-family="-apple-system,BlinkMacSystemFont,'Segoe UI',Roboto,Helvetica,Arial,sans-serif" font-size="12.5" font-weight="700" fill="#312e81" text-anchor="middle" opacity="1.0" dominant-baseline="middle">OFFLINE — build the index (batch)</text>
  <rect x="50.0" y="76.0" width="120.0" height="48.0" rx="12" fill="#f8fafc" stroke="#cbd5e1" stroke-width="1.8"/>
  <text x="110.0" y="104.2" font-family="-apple-system,BlinkMacSystemFont,'Segoe UI',Roboto,Helvetica,Arial,sans-serif" font-size="12.5" font-weight="400" fill="#475569" text-anchor="middle" dominant-baseline="middle">Documents</text>
  <rect x="200.0" y="76.0" width="110.0" height="48.0" rx="12" fill="#fffbeb" stroke="#f59e0b" stroke-width="1.8"/>
  <text x="255.0" y="104.2" font-family="-apple-system,BlinkMacSystemFont,'Segoe UI',Roboto,Helvetica,Arial,sans-serif" font-size="12.5" font-weight="400" fill="#92400e" text-anchor="middle" dominant-baseline="middle">Chunk</text>
  <rect x="340.0" y="76.0" width="110.0" height="48.0" rx="12" fill="#f0f9ff" stroke="#38bdf8" stroke-width="1.8"/>
  <text x="395.0" y="104.2" font-family="-apple-system,BlinkMacSystemFont,'Segoe UI',Roboto,Helvetica,Arial,sans-serif" font-size="12.5" font-weight="400" fill="#075985" text-anchor="middle" dominant-baseline="middle">Embed</text>
  <line x1="170.0" y1="100.0" x2="200.0" y2="100.0" stroke="#475569" stroke-width="2.0" stroke-linecap="round"/>
  <path d="M200.0,100.0 L190.9,95.9 L190.9,104.1 Z" fill="#475569"/>
  <line x1="310.0" y1="100.0" x2="340.0" y2="100.0" stroke="#475569" stroke-width="2.0" stroke-linecap="round"/>
  <path d="M340.0,100.0 L330.9,95.9 L330.9,104.1 Z" fill="#475569"/>
  <rect x="335.0" y="168.0" width="140.0" height="64.0" rx="12" fill="#eef2ff" stroke="#6366f1" stroke-width="1.8"/>
  <text x="405.0" y="204.4" font-family="-apple-system,BlinkMacSystemFont,'Segoe UI',Roboto,Helvetica,Arial,sans-serif" font-size="13" font-weight="700" fill="#312e81" text-anchor="middle" dominant-baseline="middle">Vector DB</text>
  <line x1="397.4" y1="124.0" x2="401.8" y2="168.0" stroke="#475569" stroke-width="2.0" stroke-linecap="round"/>
  <path d="M401.8,168.0 L404.9,158.5 L396.8,159.3 Z" fill="#475569"/>
  <text x="245.0" y="256.0" font-family="-apple-system,BlinkMacSystemFont,'Segoe UI',Roboto,Helvetica,Arial,sans-serif" font-size="12.5" font-weight="700" fill="#5b21b6" text-anchor="middle" opacity="1.0" dominant-baseline="middle">ONLINE — answer a query</text>
  <rect x="55.0" y="287.0" width="100.0" height="46.0" rx="12" fill="#ecfdf5" stroke="#10b981" stroke-width="1.8"/>
  <text x="105.0" y="314.2" font-family="-apple-system,BlinkMacSystemFont,'Segoe UI',Roboto,Helvetica,Arial,sans-serif" font-size="12.5" font-weight="400" fill="#065f46" text-anchor="middle" dominant-baseline="middle">Query</text>
  <rect x="190.0" y="287.0" width="100.0" height="46.0" rx="12" fill="#f0f9ff" stroke="#38bdf8" stroke-width="1.8"/>
  <text x="240.0" y="314.2" font-family="-apple-system,BlinkMacSystemFont,'Segoe UI',Roboto,Helvetica,Arial,sans-serif" font-size="12.5" font-weight="400" fill="#075985" text-anchor="middle" dominant-baseline="middle">Embed</text>
  <rect x="345.0" y="287.0" width="110.0" height="46.0" rx="12" fill="#fffbeb" stroke="#f59e0b" stroke-width="1.8"/>
  <text x="400.0" y="314.2" font-family="-apple-system,BlinkMacSystemFont,'Segoe UI',Roboto,Helvetica,Arial,sans-serif" font-size="12.5" font-weight="400" fill="#92400e" text-anchor="middle" dominant-baseline="middle">Retrieve</text>
  <rect x="510.0" y="287.0" width="100.0" height="46.0" rx="12" fill="#f5f3ff" stroke="#8b5cf6" stroke-width="1.8"/>
  <text x="560.0" y="314.2" font-family="-apple-system,BlinkMacSystemFont,'Segoe UI',Roboto,Helvetica,Arial,sans-serif" font-size="12.5" font-weight="400" fill="#5b21b6" text-anchor="middle" dominant-baseline="middle">LLM</text>
  <rect x="640.0" y="287.0" width="100.0" height="46.0" rx="12" fill="#fff1f3" stroke="#fb7185" stroke-width="1.8"/>
  <text x="690.0" y="314.2" font-family="-apple-system,BlinkMacSystemFont,'Segoe UI',Roboto,Helvetica,Arial,sans-serif" font-size="12.5" font-weight="400" fill="#9f1239" text-anchor="middle" dominant-baseline="middle">Answer</text>
  <line x1="155.0" y1="310.0" x2="190.0" y2="310.0" stroke="#475569" stroke-width="2.0" stroke-linecap="round"/>
  <path d="M190.0,310.0 L180.9,305.9 L180.9,314.1 Z" fill="#475569"/>
  <line x1="290.0" y1="310.0" x2="345.0" y2="310.0" stroke="#475569" stroke-width="2.0" stroke-linecap="round"/>
  <path d="M345.0,310.0 L335.9,305.9 L335.9,314.1 Z" fill="#475569"/>
  <line x1="455.0" y1="310.0" x2="510.0" y2="310.0" stroke="#475569" stroke-width="2.0" stroke-linecap="round"/>
  <path d="M510.0,310.0 L500.9,305.9 L500.9,314.1 Z" fill="#475569"/>
  <line x1="610.0" y1="310.0" x2="640.0" y2="310.0" stroke="#475569" stroke-width="2.0" stroke-linecap="round"/>
  <path d="M640.0,310.0 L630.9,305.9 L630.9,314.1 Z" fill="#475569"/>
  <line x1="403.5" y1="232.0" x2="401.0" y2="287.0" stroke="#475569" stroke-width="1.8" stroke-linecap="round"/>
  <path d="M401.0,287.0 L405.5,278.1 L397.4,277.7 Z" fill="#475569"/>
  <rect x="378.2" y="243.7" width="48.3" height="17.1" rx="5" fill="#ffffff" opacity="0.92"/>
  <text x="402.3" y="252.5" font-family="-apple-system,BlinkMacSystemFont,'Segoe UI',Roboto,Helvetica,Arial,sans-serif" font-size="11" fill="#475569" text-anchor="middle" dominant-baseline="middle">search</text>
  <text x="380.0" y="368.0" font-family="-apple-system,BlinkMacSystemFont,'Segoe UI',Roboto,Helvetica,Arial,sans-serif" font-size="12.5" font-weight="400" fill="#64748b" text-anchor="middle" opacity="1.0" dominant-baseline="middle">Offline indexing builds the vector DB; online serving reads it per query — scale and cache each independently.</text>
</svg>
