<svg viewBox="0 0 700 330" xmlns="http://www.w3.org/2000/svg" width="700" height="330" role="img">
  <rect x="0" y="0" width="700" height="330" fill="#ffffff"/>
  <text x="350.0" y="26.0" font-family="-apple-system,BlinkMacSystemFont,'Segoe UI',Roboto,Helvetica,Arial,sans-serif" font-size="17" font-weight="700" fill="#1f2937" text-anchor="middle" opacity="1.0" dominant-baseline="middle">Sharding: split a huge index across machines</text>
  <rect x="35.0" y="146.0" width="100.0" height="48.0" rx="12" fill="#ecfdf5" stroke="#10b981" stroke-width="1.8"/>
  <text x="85.0" y="174.2" font-family="-apple-system,BlinkMacSystemFont,'Segoe UI',Roboto,Helvetica,Arial,sans-serif" font-size="12.5" font-weight="400" fill="#065f46" text-anchor="middle" dominant-baseline="middle">Query</text>
  <rect x="180.0" y="144.0" width="110.0" height="52.0" rx="12" fill="#fffbeb" stroke="#f59e0b" stroke-width="1.8"/>
  <text x="235.0" y="174.4" font-family="-apple-system,BlinkMacSystemFont,'Segoe UI',Roboto,Helvetica,Arial,sans-serif" font-size="13" font-weight="400" fill="#92400e" text-anchor="middle" dominant-baseline="middle">Router</text>
  <rect x="390.0" y="62.0" width="120.0" height="46.0" rx="12" fill="#f0f9ff" stroke="#38bdf8" stroke-width="1.8"/>
  <text x="450.0" y="89.2" font-family="-apple-system,BlinkMacSystemFont,'Segoe UI',Roboto,Helvetica,Arial,sans-serif" font-size="12.5" font-weight="400" fill="#075985" text-anchor="middle" dominant-baseline="middle">Shard 1</text>
  <rect x="390.0" y="147.0" width="120.0" height="46.0" rx="12" fill="#f0f9ff" stroke="#38bdf8" stroke-width="1.8"/>
  <text x="450.0" y="174.2" font-family="-apple-system,BlinkMacSystemFont,'Segoe UI',Roboto,Helvetica,Arial,sans-serif" font-size="12.5" font-weight="400" fill="#075985" text-anchor="middle" dominant-baseline="middle">Shard 2</text>
  <rect x="390.0" y="232.0" width="120.0" height="46.0" rx="12" fill="#f0f9ff" stroke="#38bdf8" stroke-width="1.8"/>
  <text x="450.0" y="259.2" font-family="-apple-system,BlinkMacSystemFont,'Segoe UI',Roboto,Helvetica,Arial,sans-serif" font-size="12.5" font-weight="400" fill="#075985" text-anchor="middle" dominant-baseline="middle">Shard 3</text>
  <rect x="580.0" y="144.0" width="100.0" height="52.0" rx="12" fill="#fff1f3" stroke="#fb7185" stroke-width="1.8"/>
  <text x="630.0" y="174.4" font-family="-apple-system,BlinkMacSystemFont,'Segoe UI',Roboto,Helvetica,Arial,sans-serif" font-size="13" font-weight="400" fill="#9f1239" text-anchor="middle" dominant-baseline="middle">Merge</text>
  <line x1="135.0" y1="170.0" x2="180.0" y2="170.0" stroke="#475569" stroke-width="2.2" stroke-linecap="round"/>
  <path d="M180.0,170.0 L170.9,165.9 L170.9,174.1 Z" fill="#475569"/>
  <line x1="290.0" y1="148.3" x2="391.8" y2="108.0" stroke="#475569" stroke-width="1.8" stroke-linecap="round"/>
  <path d="M391.8,108.0 L381.8,107.6 L384.8,115.1 Z" fill="#475569"/>
  <line x1="498.7" y1="108.0" x2="580.0" y2="146.4" stroke="#475569" stroke-width="1.8" stroke-linecap="round"/>
  <path d="M580.0,146.4 L573.5,138.8 L570.0,146.2 Z" fill="#475569"/>
  <line x1="290.0" y1="170.0" x2="390.0" y2="170.0" stroke="#475569" stroke-width="1.8" stroke-linecap="round"/>
  <path d="M390.0,170.0 L380.9,165.9 L380.9,174.1 Z" fill="#475569"/>
  <line x1="510.0" y1="170.0" x2="580.0" y2="170.0" stroke="#475569" stroke-width="1.8" stroke-linecap="round"/>
  <path d="M580.0,170.0 L570.9,165.9 L570.9,174.1 Z" fill="#475569"/>
  <line x1="290.0" y1="191.7" x2="391.8" y2="232.0" stroke="#475569" stroke-width="1.8" stroke-linecap="round"/>
  <path d="M391.8,232.0 L384.8,224.9 L381.8,232.4 Z" fill="#475569"/>
  <line x1="498.7" y1="232.0" x2="580.0" y2="193.6" stroke="#475569" stroke-width="1.8" stroke-linecap="round"/>
  <path d="M580.0,193.6 L570.0,193.8 L573.5,201.2 Z" fill="#475569"/>
  <text x="350.0" y="305.0" font-family="-apple-system,BlinkMacSystemFont,'Segoe UI',Roboto,Helvetica,Arial,sans-serif" font-size="12.5" font-weight="400" fill="#64748b" text-anchor="middle" opacity="1.0" dominant-baseline="middle">When data exceeds one machine, partition it into shards; the router queries all and merges the results.</text>
</svg>
